<svg xmlns="http://www.w3.org/2000/svg" viewBox="0 0 1920 1080"><defs><style>.cls-1{fill:#ddd;}.cls-2,.cls-3{fill:#929293;}.cls-2,.cls-4{opacity:0.16;}.cls-4{fill:#8c8c8c;}.cls-5{fill:#dbdbdb;}.cls-6{fill:#b3b1b5;}.cls-7{fill:#afafaf;}.cls-8{fill:#adadad;}</style></defs><title>1</title><g id="Layer_11" data-name="Layer 11"><polygon class="cls-1" points="684 1080 1920 378 1920 775 1331 1083 684 1080"/><polygon class="cls-2" points="1012.33 1078 1239 969 1266 905 1474 791 1621 764 1774 614 1921 513 1921 775 1332 1083 1012.33 1078"/><polygon class="cls-3" points="754 1062 891 1009 1035 983 882 993 754 1062"/><polygon class="cls-4" points="1864 717 1751 820 1578 896 1445 1000 1565 887 1735 806 1864 717"/><polygon class="cls-5" points="1920.31 399 1849 454 1819 506 1751 561 1819 522 1859 466 1891 466 1864 500 1864 522 1920.31 522.4 1920.31 399"/></g><g id="Layer_12" data-name="Layer 12"><polygon class="cls-6" points="1236 1080 0 378 0 775 589 1083 1236 1080"/><polygon class="cls-2" points="908.67 1078 682 969 655 905 447 791 300 764 147 614 0 513 0 775 589 1083 908.67 1078"/><polygon class="cls-7" points="1167 1062 1030 1009 886 983 1039 993 1167 1062"/><polygon class="cls-4" points="57 717 170 820 343 896 476 1000 356 887 186 806 57 717"/><polygon class="cls-8" points="0.69 399 72 454 102 506 170 561 102 522 62 466 30 466 57 500 57 522 0.69 522.4 0.69 399"/></g></svg>