<svg xmlns="http://www.w3.org/2000/svg" xmlns:xlink="http://www.w3.org/1999/xlink" viewBox="0 0 1920 1080"><defs><style>.cls-1{opacity:0.27;fill:url(#linear-gradient);}.cls-2,.cls-3,.cls-4{opacity:0.33;}.cls-2{fill:url(#linear-gradient-2);}.cls-3{fill:url(#linear-gradient-3);}.cls-4{fill:url(#linear-gradient-4);}</style><linearGradient id="linear-gradient" x1="3755.36" y1="9619.93" x2="3755.36" y2="9749.55" gradientTransform="matrix(1, -0.07, -0.07, -1, -1734.92, 10380.06)" gradientUnits="userSpaceOnUse"><stop offset="0" stop-color="#989898"/><stop offset="0.1" stop-color="#888b8f"/><stop offset="0.72" stop-color="#273c56"/><stop offset="1" stop-color="#001d3f"/></linearGradient><linearGradient id="linear-gradient-2" x1="800.9" y1="27" x2="800.9" y2="76.23" gradientTransform="matrix(1, 0, 0, 1, 0, 0)" xlink:href="#linear-gradient"/><linearGradient id="linear-gradient-3" x1="3559.93" y1="466.48" x2="3559.93" y2="508" gradientTransform="matrix(-1, 0, 0, 1, 3826.24, 0)" xlink:href="#linear-gradient"/><linearGradient id="linear-gradient-4" x1="4667" y1="9890.96" x2="4667" y2="9925.33" gradientTransform="matrix(-1, -0.07, 0.07, -1, 4528.17, 10380.06)" xlink:href="#linear-gradient"/></defs><title>2</title><g id="Clouds"><path class="cls-1" d="M1444.34,477.77l-50.76,26-55.18-18.18-103,.56L1169.58,498l-39.06-21.7-4.45-60.54s74-28.86,82.19-28.3,95.54,25.74,95.54,25.74l92.63-13.84,31.35-3.48,30.09,27.05,12.87,31.83Z"/><path class="cls-2" d="M855,35.42,835,27l-20.39,8.42-39,2.66-25.27-2.66-14.19,9.31V67.79s28.82,8.87,31.92,8.42S803.56,63.8,803.56,63.8L839,66.46l12,.44,10.64-11.08,4-12.42Z"/><path class="cls-3" d="M320.37,474l-10.08-2.44h-6.41l-4.27-2.14h-9.47l-7.32,2.29-4.73,1.22-5.5-1.22-5.65-4.12s-8.85-1.07-9.61-1.07-20.61,2-20.61,2L228,473.2l-18.47,7.48-2,5.49,4.27,7.63,9.16,2.14,12.21,2,5.19,2.9,7.48,3.05,7,3.36,6.87.76h7l13.43-1.68,5.8-.46,6.26.61,6.72.77h7.63l7-.61,5-3.06,3.66-3.81,2.6-3.06s-.62-4.88,0-5.34-1.38-4.73-1.84-5a63.59,63.59,0,0,1-3.35-5.8v-2.9Z"/><path class="cls-4" d="M562.81,164.48l13.46,6.88,14.63-4.82,27.3.15,17.46,3.15L646,164.08,647.2,148s-19.61-7.65-21.79-7.5-25.34,6.82-25.34,6.82l-24.56-3.67-8.31-.92-8,7.17-3.41,8.44Z"/></g></svg>