<svg xmlns="http://www.w3.org/2000/svg" xmlns:xlink="http://www.w3.org/1999/xlink" viewBox="0 0 1920 1080"><defs><style>.cls-1,.cls-2{opacity:0.45;}.cls-1{fill:url(#linear-gradient);}.cls-2{fill:url(#linear-gradient-2);}.cls-3,.cls-4,.cls-5{opacity:0.33;}.cls-3{fill:url(#linear-gradient-3);}.cls-4{fill:url(#linear-gradient-4);}.cls-5{fill:url(#linear-gradient-5);}</style><linearGradient id="linear-gradient" x1="-3131.31" y1="346.76" x2="-3131.31" y2="500.79" gradientTransform="matrix(-1, 0, 0, 1, -1462.76, 0)" gradientUnits="userSpaceOnUse"><stop offset="0" stop-color="#989898"/><stop offset="0.1" stop-color="#888b8f"/><stop offset="0.72" stop-color="#273c56"/><stop offset="1" stop-color="#001d3f"/></linearGradient><linearGradient id="linear-gradient-2" x1="3636.9" y1="9459.66" x2="3636.9" y2="9503.57" gradientTransform="matrix(1, -0.07, -0.07, -1, -1740.67, 10223.8)" xlink:href="#linear-gradient"/><linearGradient id="linear-gradient-3" x1="1156.79" y1="35.42" x2="1156.79" y2="156.02" gradientTransform="matrix(1, 0, 0, 1, 0, 0)" xlink:href="#linear-gradient"/><linearGradient id="linear-gradient-4" x1="605.88" y1="326.52" x2="605.88" y2="377.95" gradientTransform="matrix(1, 0, 0, 1, 0, 0)" xlink:href="#linear-gradient"/><linearGradient id="linear-gradient-5" x1="127.02" y1="320.56" x2="127.02" y2="416.32" gradientTransform="matrix(1, 0, 0, 1, 0, 0)" xlink:href="#linear-gradient"/></defs><title>3</title><g id="Clouds"><path class="cls-1" d="M1869.09,374.51l-37.38-9.06h-23.78l-15.86-7.93H1757L1729.78,366l-17.56,4.53L1691.84,366l-21-15.29s-32.84-4-35.67-4-76.45,7.36-76.45,7.36l-32.28,17.56L1458,399.43l-7.37,20.38,15.86,28.32,34,7.93,45.3,7.36L1565,474.18l27.74,11.32,26,12.46,25.49,2.83h26l49.83-6.23,21.52-1.7,23.22,2.27,24.92,2.83h28.31l26.05-2.26,18.69-11.33,13.59-14.16,9.63-11.32s-2.27-18.12,0-19.82-5.1-17.56-6.8-18.69-12.46-21.52-12.46-21.52V388.1Z"/><path class="cls-2" d="M1239.37,511.59l-17.19,8.8-18.69-6.16-34.88.19-22.3,4-13.22-7.35-1.51-20.5s25-9.78,27.83-9.58,32.36,8.71,32.36,8.71l31.37-4.69,10.62-1.17L1244,493l4.36,10.78Z"/><path class="cls-3" d="M999.78,57.15l29.27-7.09h18.62l12.41-6.21h27.49l21.28,6.65,13.75,3.55,16-3.55,16.4-12s25.72-3.11,27.94-3.11,59.85,5.77,59.85,5.77L1268,54.93l53.65,21.73,5.77,16L1315,114.79l-26.6,6.2L1253,126.76l-15.08,8.42-21.72,8.87-20.4,9.75-20,2.22h-20.39l-39-4.88-16.85-1.33-18.18,1.78-19.5,2.21h-22.17l-20.4-1.77-14.63-8.87L994,132.08l-7.54-8.87s1.78-14.19,0-15.52,4-13.74,5.32-14.63,9.76-16.85,9.76-16.85V67.79Z"/><polygon class="cls-4" points="714.06 326.52 694.11 335.38 676.37 330.95 655.09 326.52 639.57 326.52 612.08 326.52 593.02 330.95 566.86 335.38 542.92 326.52 518.09 330.95 483.95 335.38 473.75 352.68 477.3 360.66 491.93 367.75 510.11 370.41 522.52 366.42 538.48 360.66 557.55 360.66 567.75 360.66 582.38 360.66 602.77 367.31 628.49 372.63 660.85 375.29 688.34 377.95 714.06 377.95 734.01 368.64 738 342.92 728.25 326.52 714.06 326.52"/><polygon class="cls-5" points="191.97 328.09 160.93 320.56 142.76 333.41 110.39 333.41 90.44 340.06 60.73 354.25 31.91 357.36 14.62 370.66 10.19 395.93 22.16 407.46 54.52 410.56 95.31 402.58 111.28 406.57 153.84 416.32 191.97 416.32 213.25 409.67 243.84 392.82 243.84 370.66 232.76 338.73 213.25 329.87 191.97 328.09"/></g></svg>