<svg xmlns="http://www.w3.org/2000/svg" xmlns:xlink="http://www.w3.org/1999/xlink" viewBox="0 0 1920 1080"><defs><style>.cls-1,.cls-2,.cls-3,.cls-4,.cls-5,.cls-6{opacity:0.96;}.cls-1{fill:url(#linear-gradient);}.cls-2{fill:url(#linear-gradient-2);}.cls-3{fill:url(#linear-gradient-3);}.cls-4{fill:url(#linear-gradient-4);}.cls-5{fill:url(#linear-gradient-5);}.cls-6{fill:url(#linear-gradient-6);}</style><linearGradient id="linear-gradient" x1="398.12" y1="56" x2="398.12" y2="328" gradientUnits="userSpaceOnUse"><stop offset="0" stop-color="#989898"/><stop offset="0.1" stop-color="#888b8f"/><stop offset="0.72" stop-color="#273c56"/><stop offset="1" stop-color="#001d3f"/></linearGradient><linearGradient id="linear-gradient-2" x1="1614" y1="487" x2="1614" y2="603" xlink:href="#linear-gradient"/><linearGradient id="linear-gradient-3" x1="759.5" y1="451" x2="759.5" y2="667" xlink:href="#linear-gradient"/><linearGradient id="linear-gradient-4" x1="1693" y1="174" x2="1693" y2="285.04" xlink:href="#linear-gradient"/><linearGradient id="linear-gradient-5" x1="-4857.26" y1="667.36" x2="-4857.26" y2="761" gradientTransform="matrix(-1, 0, 0, 1, -4685.76, 0)" xlink:href="#linear-gradient"/><linearGradient id="linear-gradient-6" x1="-4485.92" y1="10057.54" x2="-4485.92" y2="10135.06" gradientTransform="matrix(-1, -0.07, 0.07, -1, -3972.35, 10067.55)" xlink:href="#linear-gradient"/></defs><title>4</title><g id="Clouds_close" data-name="Clouds close"><path class="cls-1" d="M44,105l66-16h42l28-14h62l48,15,31,8,36-8,37-27s58-7,63-7S592,69,592,69l57,31,121,49,13,36-28,50-60,14-80,13-34,19-49,20-46,22-45,5H395l-88-11-38-3-41,4-44,5H134l-46-4L55,299,31,274,14,254s4-32,0-35,9-31,12-33,22-38,22-38V129Z"/><polygon class="cls-2" points="1858 487 1813 507 1773 497 1725 487 1690 487 1628 487 1585 497 1526 507 1472 487 1416 497 1339 507 1316 546 1324 564 1357 580 1398 586 1426 577 1462 564 1505 564 1528 564 1561 564 1607 579 1665 591 1738 597 1800 603 1858 603 1903 582 1912 524 1890 487 1858 487"/><polygon class="cls-3" points="906 468 836 451 795 480 722 480 677 495 610 527 545 534 506 564 496 621 523 647 596 654 688 636 724 645 820 667 906 667 954 652 1023 614 1023 564 998 492 954 472 906 468"/><path class="cls-4" d="M1815,193l-45-19-46,19-88,6-57-6-32,21v52s65,20,72,19,80-28,80-28l80,6,27,1,24-25,9-28Z"/><path class="cls-5" d="M293.41,684.23l-22.72-5.51H256.23l-9.64-4.82H225.25l-16.53,5.17-10.67,2.75-12.39-2.75-12.74-9.3s-20-2.41-21.69-2.41-46.48,4.48-46.48,4.48L85.13,682.51,43.48,699.38,39,711.77,48.64,729,69.3,733.8l27.54,4.48,11.7,6.54,16.87,6.88,15.84,7.58L156.74,761h15.83l30.3-3.79,13.08-1,14.12,1.38,15.14,1.72h17.22l15.83-1.38L289.62,751l8.27-8.61,5.85-6.89s-1.38-11,0-12-3.1-10.68-4.13-11.37S292,699,292,699v-6.54Z"/><path class="cls-6" d="M1156,347.07l30.36,15.54,33-10.88,61.58.34,39.38,7.1,23.36-13,2.67-36.21s-44.23-17.26-49.16-16.92S1240,308.45,1240,308.45l-55.39-8.28-18.75-2.08-18,16.18-7.7,19Z"/></g></svg>