<svg xmlns="http://www.w3.org/2000/svg" xmlns:xlink="http://www.w3.org/1999/xlink" viewBox="0 0 1920 1080"><defs><style>.cls-1{fill:url(#linear-gradient);}</style><linearGradient id="linear-gradient" x1="946.5" y1="1125" x2="946.5" y2="709" gradientUnits="userSpaceOnUse"><stop offset="0" stop-color="#020202"/><stop offset="0.06" stop-color="#02030c"/><stop offset="0.71" stop-color="#010d6d"/><stop offset="1" stop-color="#001194"/></linearGradient></defs><title>5</title><g id="Layer_4" data-name="Layer 4"><path class="cls-1" d="M1902.71,726.94l-30.53-2.24h-52.65l-35.81,32.52-36.24,35.41L1683.55,864l-72.49,49.12-24.75,9.35-222,27.18,15.74,1.69-24.25,1.79-9.25-1.3,17.76-2.18c-28.68-3.09-54.38-6-56-6.61-3.68-1.41-54.24-38.94-54.24-38.94l-99-47.1-67.39-46-41.07-30.28-58.35-9.35L935,751.9l-52.66-20.47L836,716.85,776,709l-80,7.69L589.61,709l-81.08,17.94L474.84,746s-40,20.19-43.72,21.7-28.84,11.62-28.84,11.62l-52.75,10.41H316.88l-40,14.58-18.95,23.55-15.8,28L201.05,903,138.93,966.9,29.41,1042l-69.49,62.8L-75,1125h7.22l59.46-7.28L-33.63,1125H1968V739.27l-42.12-11.21Zm-597,229.9,36.44-4.46,5,1.4Z"/></g></svg>