<svg xmlns="http://www.w3.org/2000/svg" xmlns:xlink="http://www.w3.org/1999/xlink" viewBox="0 0 1920 1080"><defs><style>.cls-1{fill:url(#linear-gradient);}</style><linearGradient id="linear-gradient" x1="939.5" y1="607" x2="939.5" y2="1125" gradientUnits="userSpaceOnUse"><stop offset="0" stop-color="#6155ff"/><stop offset="0.52" stop-color="#4327d1"/><stop offset="1" stop-color="#2900aa"/></linearGradient></defs><title>6</title><g id="Layer_1" data-name="Layer 1"><polygon class="cls-1" points="1950.95 768.18 1950.95 764.7 1937.27 756.44 1937.27 756.44 1927.76 748.27 1868.82 727.68 1854.11 718.7 1846.94 714.32 1662.28 680.37 1572.07 644.24 1459.58 607 1314.18 607 1153.93 632.19 1090.25 659.57 1090.25 672.71 1131.64 668.33 1159.24 673.8 1180.46 692.42 1186.83 705.56 1188.95 731.85 1178.34 752.65 1160.81 777.84 1084.68 820.05 1017.87 854.25 944.91 884.38 825.27 916.98 717.75 931.16 599.95 919.11 544.76 897.21 471.53 879.69 426.92 843.62 288.56 800.47 166.07 784.41 20.55 776.45 -73 764.28 -73 1125 1950.95 1125 1950.95 781.13 1952 769.08 1950.95 768.18"/></g></svg>