<svg xmlns="http://www.w3.org/2000/svg" xmlns:xlink="http://www.w3.org/1999/xlink" viewBox="0 0 1920 1080"><defs><style>.cls-1{fill:url(#linear-gradient);}</style><linearGradient id="linear-gradient" x1="-42" y1="949.5" x2="1956" y2="949.5" gradientUnits="userSpaceOnUse"><stop offset="0" stop-color="#619eff"/><stop offset="0.17" stop-color="#609afd"/><stop offset="0.33" stop-color="#5c8ff7"/><stop offset="0.48" stop-color="#557ced"/><stop offset="0.64" stop-color="#4b61de"/><stop offset="0.79" stop-color="#3f3ecb"/><stop offset="0.94" stop-color="#3014b5"/><stop offset="1" stop-color="#2900aa"/></linearGradient></defs><title>8</title><g id="Layer_3" data-name="Layer 3"><polygon class="cls-1" points="1881.69 802.39 1775.03 857.37 1732.01 856.82 1628.37 889.62 1536.94 944.02 1479.06 965.84 1404.47 987.1 1351.57 996.56 1319.65 999.84 1256.08 1001.39 1188.42 988.65 1106.25 971.38 1006.4 952.96 916.24 905.29 831.34 865.18 735.98 836.64 617.41 787.12 488.44 778.57 348.03 794.03 206.18 822.82 79.19 874 79.19 874 28.73 841.25 -9.76 810.15 -42 772.15 -40.96 949.5 -27.07 950.42 -40.96 961.02 -40.96 1128 1956 1128 1956 771 1881.69 802.39"/></g></svg>