<svg xmlns="http://www.w3.org/2000/svg" xmlns:xlink="http://www.w3.org/1999/xlink" viewBox="0 0 1920 1080"><defs><style>.cls-1,.cls-2,.cls-3,.cls-4,.cls-5{opacity:0.33;}.cls-1{fill:url(#linear-gradient);}.cls-2{fill:url(#linear-gradient-2);}.cls-3{fill:url(#linear-gradient-3);}.cls-4{fill:url(#linear-gradient-4);}.cls-5{fill:url(#linear-gradient-5);}</style><linearGradient id="linear-gradient" x1="540.83" y1="186" x2="540.83" y2="66" gradientUnits="userSpaceOnUse"><stop offset="0" stop-color="#cacaca"/><stop offset="1" stop-color="#acf"/></linearGradient><linearGradient id="linear-gradient-2" x1="2315.83" y1="80" x2="2315.83" y2="-40" gradientTransform="matrix(-1, 0, 0, 1, 3575.65, 0)" xlink:href="#linear-gradient"/><linearGradient id="linear-gradient-3" x1="1653.33" y1="303" x2="1653.33" y2="186" xlink:href="#linear-gradient"/><linearGradient id="linear-gradient-4" x1="854" y1="309" x2="854" y2="155" xlink:href="#linear-gradient"/><linearGradient id="linear-gradient-5" x1="172.5" y1="271" x2="172.5" y2="179" xlink:href="#linear-gradient"/></defs><title>1</title><g id="Layer_3" data-name="Layer 3"><polygon class="cls-1" points="391 66 431 66 448 66 499 66 545 81 596 81 655 99 713 99 760 120 760 144 703 174 655 167 569 186 495 174 444 141 374 137 338 126 321.65 88.12 342 66 391 66"/><polygon class="cls-2" points="1409.65 -40 1369.65 -40 1352.65 -40 1301.65 -40 1255.65 -25 1204.65 -25 1145.65 -7 1087.65 -7 1040.65 14 1040.65 38 1097.65 68 1145.65 61 1231.65 80 1305.65 68 1356.65 35 1426.65 31 1462.65 20 1479 -17.88 1458.65 -40 1409.65 -40"/><polygon class="cls-3" points="1576 207 1624 186 1693 186 1738 207 1762.65 266 1684 303 1587 281 1544 253 1576 207"/><polygon class="cls-4" points="956 155 1067 164 1115 245 1020.37 297.7 903 287 792.75 286.52 734 309 593 303 605 281 687 268.63 717 261 773 215 813 168 874 155 956 155"/><polygon class="cls-5" points="53 194 91 179 163 179 236 201 307 219 321 271 260 271 173 232 117 245 77 261 24 232 53 194"/></g></svg>