<svg xmlns="http://www.w3.org/2000/svg" xmlns:xlink="http://www.w3.org/1999/xlink" viewBox="0 0 1920 1080"><defs><style>.cls-1,.cls-2,.cls-3,.cls-4,.cls-5,.cls-6{opacity:0.95;}.cls-1{fill:url(#linear-gradient);}.cls-2{fill:url(#linear-gradient-2);}.cls-3{fill:url(#linear-gradient-3);}.cls-4{fill:url(#linear-gradient-4);}.cls-5{fill:url(#linear-gradient-5);}.cls-6{fill:url(#linear-gradient-6);}</style><linearGradient id="linear-gradient" x1="199.5" y1="174" x2="199.5" y2="47" gradientUnits="userSpaceOnUse"><stop offset="0" stop-color="#cacaca"/><stop offset="1" stop-color="#acf"/></linearGradient><linearGradient id="linear-gradient-2" x1="891.32" y1="338.71" x2="891.32" y2="180" xlink:href="#linear-gradient"/><linearGradient id="linear-gradient-3" x1="893" y1="81" x2="893" y2="18" xlink:href="#linear-gradient"/><linearGradient id="linear-gradient-4" x1="1416.5" y1="180" x2="1416.5" y2="74" xlink:href="#linear-gradient"/><linearGradient id="linear-gradient-5" x1="1570.79" y1="349" x2="1570.79" y2="280" xlink:href="#linear-gradient"/><linearGradient id="linear-gradient-6" x1="1776" y1="99" x2="1776" y2="33" xlink:href="#linear-gradient"/></defs><title>2</title><g id="Layer_2" data-name="Layer 2"><polygon class="cls-1" points="42 53 117 47 154 53 236 53 289 81 344 93 374 137 327 168 236 174 173 153 117 158 63 146 46 110 25 75 42 53"/><polygon class="cls-2" points="1206 228 1125 219 1056 195 963 180 860 195 793 195 783.45 212.43 755.62 205.75 676.17 226.06 638.84 229.42 567.66 253.81 556.64 279.34 585.66 308.05 611.05 338.71 666.34 336.96 719.36 318.24 785.59 322.98 872.27 294.62 891.07 273.92 918 271 1020.37 297.7 1137 305 1226 261 1206 228"/><polygon class="cls-3" points="844 33 910 18 953 26 988 56 946 81 881 72 834 81 798 59 844 33"/><polygon class="cls-4" points="1255 98 1339 89 1376 74 1435 74 1479 86 1536 117 1581 132 1597 159 1569 180 1479 168 1421 180 1349 158 1296 158 1273 149 1236 116 1255 98"/><polygon class="cls-5" points="1516 303 1562 280 1608 287 1625.59 324.5 1600 349 1553 349 1516 340 1516 303"/><polygon class="cls-6" points="1875 33 1809 33 1781 50 1720 63 1665 63 1665 81 1679 99 1736 99 1770 99 1795 90 1835 81 1862 99 1885 81 1887 50 1875 33"/></g></svg>