<svg xmlns="http://www.w3.org/2000/svg" viewBox="0 0 1920 1080"><defs><style>.cls-1{fill:#fff1e1;}.cls-2{fill:#b5b5b4;}.cls-3{fill:#bdf4e9;}.cls-4{fill:#969690;}.cls-5{fill:#dbdbdb;}.cls-6{fill:#dbdddd;}.cls-7{fill:#ccc;}.cls-8{fill:#5d51fc;}.cls-9{fill:#d8d5d4;}</style></defs><title>3</title><g id="Layer_1" data-name="Layer 1"><rect class="cls-1" y="402" width="1920" height="494"/><rect class="cls-2" x="1492" y="660" width="16" height="235"/><rect class="cls-2" x="1316" y="660" width="16" height="235"/><rect class="cls-2" x="236" y="660" width="16" height="235" transform="translate(488 1555) rotate(-180)"/><rect class="cls-2" y="669" width="16" height="235" transform="translate(16 1573) rotate(-180)"/><rect class="cls-2" x="412" y="660" width="16" height="235" transform="translate(840 1555) rotate(-180)"/><rect class="cls-2" x="588" y="660" width="16" height="235" transform="translate(1192 1555) rotate(-180)"/><rect class="cls-2" x="1668" y="661" width="16" height="235"/><rect class="cls-2" x="1904" y="669" width="16" height="235"/><rect class="cls-3" x="173" y="327" width="502" height="62"/><rect class="cls-3" x="1199" y="327" width="502" height="62"/><rect class="cls-4" x="968" y="454" width="10" height="158"/><rect class="cls-4" x="876" y="454" width="10" height="158"/><polygon class="cls-5" points="688 444 648 444 648 454 658 454 658 625 678 625 678 454 688 454 688 444"/><polygon class="cls-5" points="818 444 778 444 778 454 788 454 788 625 808 625 808 454 818 454 818 444"/><polygon class="cls-5" points="1076 444 1036 444 1036 454 1046 454 1046 625 1066 625 1066 454 1076 454 1076 444"/><polygon class="cls-5" points="1206 444 1166 444 1166 454 1176 454 1176 625 1196 625 1196 454 1206 454 1206 444"/><rect class="cls-2" x="1492" y="416" width="16" height="235"/><rect class="cls-2" x="1316" y="416" width="16" height="235"/><rect class="cls-2" x="236" y="416" width="16" height="235" transform="translate(488 1067) rotate(-180)"/><rect class="cls-2" y="425" width="16" height="235" transform="translate(16 1085) rotate(-180)"/><rect class="cls-2" x="219" y="437" width="17" height="12.04" transform="translate(455 886.04) rotate(-180)"/><rect class="cls-2" x="219" y="613" width="17" height="12.04" transform="translate(455 1238.04) rotate(-180)"/><rect class="cls-2" x="16" y="613" width="17" height="12.04" transform="translate(49 1238.04) rotate(-180)"/><rect class="cls-2" x="16" y="437" width="17" height="12.04" transform="translate(49 886.04) rotate(-180)"/><rect class="cls-2" x="412" y="416" width="16" height="235" transform="translate(840 1067) rotate(-180)"/><rect class="cls-2" x="588" y="416" width="16" height="235" transform="translate(1192 1067) rotate(-180)"/><rect class="cls-2" x="1668" y="416" width="16" height="235"/><rect class="cls-2" x="1904" y="425" width="16" height="235"/><rect class="cls-6" y="389" width="1920" height="48"/><rect class="cls-6" y="627" width="1920" height="48"/><rect class="cls-5" x="649" y="615" width="568" height="71"/><rect class="cls-2" x="640" y="669" width="586" height="11"/><rect class="cls-2" x="655" y="677" width="555" height="11"/><rect class="cls-2" x="640" y="620" width="586" height="11"/><rect class="cls-2" x="655" y="612" width="555" height="11"/><rect class="cls-2" x="1205" y="601" width="2" height="17"/><rect class="cls-2" x="1191" y="601" width="2" height="17"/><rect class="cls-2" x="1177" y="601" width="2" height="17"/><rect class="cls-2" x="1163" y="601" width="2" height="17"/><rect class="cls-2" x="1149" y="601" width="2" height="17"/><rect class="cls-2" x="1135" y="601" width="2" height="17"/><rect class="cls-2" x="1121" y="601" width="2" height="17"/><rect class="cls-2" x="1107" y="601" width="2" height="17"/><rect class="cls-2" x="1093" y="601" width="2" height="17"/><rect class="cls-2" x="1079" y="601" width="2" height="17"/><rect class="cls-2" x="1065" y="601" width="2" height="17"/><rect class="cls-2" x="1051" y="601" width="2" height="17"/><rect class="cls-2" x="1037" y="601" width="2" height="17"/><rect class="cls-2" x="1023" y="601" width="2" height="17"/><rect class="cls-2" x="1009" y="601" width="2" height="17"/><rect class="cls-2" x="995" y="601" width="2" height="17"/><rect class="cls-2" x="981" y="601" width="2" height="17"/><rect class="cls-2" x="967" y="601" width="2" height="17"/><rect class="cls-2" x="953" y="601" width="2" height="17"/><rect class="cls-2" x="939" y="601" width="2" height="17"/><rect class="cls-2" x="925" y="601" width="2" height="17"/><rect class="cls-2" x="911" y="601" width="2" height="17"/><rect class="cls-2" x="897" y="601" width="2" height="17"/><rect class="cls-2" x="883" y="601" width="2" height="17"/><rect class="cls-2" x="869" y="601" width="2" height="17"/><rect class="cls-2" x="855" y="601" width="2" height="17"/><rect class="cls-2" x="841" y="601" width="2" height="17"/><rect class="cls-2" x="827" y="601" width="2" height="17"/><rect class="cls-2" x="813" y="601" width="2" height="17"/><rect class="cls-2" x="799" y="601" width="2" height="17"/><rect class="cls-2" x="785" y="601" width="2" height="17"/><rect class="cls-2" x="771" y="601" width="2" height="17"/><rect class="cls-2" x="757" y="601" width="2" height="17"/><rect class="cls-2" x="743" y="601" width="2" height="17"/><rect class="cls-2" x="729" y="601" width="2" height="17"/><rect class="cls-2" x="715" y="601" width="2" height="17"/><rect class="cls-2" x="701" y="601" width="2" height="17"/><rect class="cls-2" x="687" y="601" width="2" height="17"/><rect class="cls-2" x="673" y="601" width="2" height="17"/><rect class="cls-2" x="659" y="601" width="2" height="17"/><rect class="cls-2" x="655" y="599" width="555" height="2"/><rect class="cls-2" x="1236" y="625" width="691" height="3"/><rect class="cls-2" x="1250.76" y="628" width="673.24" height="3"/><rect class="cls-2" x="1236" y="673" width="691" height="3"/><rect class="cls-2" x="1250.76" y="670" width="673.24" height="3"/><rect class="cls-2" x="-3" y="625" width="633" height="3" transform="translate(627 1253) rotate(-180)"/><rect class="cls-2" x="-0.25" y="628" width="616.73" height="3" transform="translate(616.22 1259) rotate(-180)"/><rect class="cls-2" x="-3" y="673" width="633" height="3" transform="translate(627 1349) rotate(-180)"/><rect class="cls-2" x="-0.25" y="670" width="616.73" height="3" transform="translate(616.22 1343) rotate(-180)"/><rect class="cls-2" x="1684" y="437" width="17" height="12.04"/><rect class="cls-2" x="1684" y="613" width="17" height="12.04"/><rect class="cls-2" x="1887" y="613" width="17" height="12.04"/><rect class="cls-2" x="1887" y="437" width="17" height="12.04"/><polygon class="cls-4" points="977.91 439.08 975.91 420.31 972.62 404.81 965.93 385.71 957.94 371.32 944.11 357.18 927.09 348 910.08 357.18 896.24 371.32 888.25 385.71 881.56 404.81 878.27 420.31 876.27 439.08 876 455 927.09 455 978.18 455 977.91 439.08"/><polygon class="cls-5" points="874.28 439.49 876.35 420.02 879.77 403.94 886.71 384.12 892.88 373 648 373 648 444 874.21 444 874.28 439.49"/><polygon class="cls-5" points="961.12 373 967.29 384.12 974.23 403.94 977.65 420.02 979.72 439.49 979.79 444 1216 444 1216 373 961.12 373"/><polygon class="cls-5" points="973.34 436.42 971.51 419.23 968.5 405.03 962.37 387.54 955.04 374.36 942.38 361.4 926.79 353 911.21 361.4 898.54 374.36 891.22 387.54 885.09 405.03 882.08 419.23 880.25 436.42 880 451 926.79 451 973.59 451 973.34 436.42"/><rect class="cls-2" x="1668" y="383" width="252" height="6"/><path class="cls-2" d="M1795,266a117,117,0,0,0-117,117h234A117,117,0,0,0,1795,266Z"/><path class="cls-7" d="M1795,293a90,90,0,0,0-90,90h180A90,90,0,0,0,1795,293Z"/><rect class="cls-2" y="383" width="252" height="6"/><path class="cls-2" d="M127,266A117,117,0,0,0,10,383H244A117,117,0,0,0,127,266Z"/><path class="cls-7" d="M127,293a90,90,0,0,0-90,90H217A90,90,0,0,0,127,293Z"/><polygon class="cls-5" points="1182 251 1182 288 1085.24 288 927 219 768.76 288 681 288 681 251 664 251 664 288 664 373 894.75 373 896.24 370.32 910.08 356.18 927.09 347 944.11 356.18 957.94 370.32 959.43 373 1199 373 1199 288 1199 251 1182 251"/><polygon class="cls-2" points="378 215 378 242 397 242 397 327 525 327 525 242 544 242 544 215 378 215"/><polygon class="cls-2" points="1319 215 1319 242 1338 242 1338 327 1466 327 1466 242 1485 242 1485 215 1319 215"/><polygon class="cls-5" points="688 688 648 688 648 698 658 698 658 869 678 869 678 698 688 698 688 688"/><polygon class="cls-5" points="818 688 778 688 778 698 788 698 788 869 808 869 808 698 818 698 818 688"/><polygon class="cls-5" points="1076 688 1036 688 1036 698 1046 698 1046 869 1066 869 1066 698 1076 698 1076 688"/><polygon class="cls-5" points="1206 688 1166 688 1166 698 1176 698 1176 869 1196 869 1196 698 1206 698 1206 688"/><rect class="cls-2" x="219" y="676" width="17" height="12.04" transform="translate(455 1364.04) rotate(-180)"/><rect class="cls-2" x="219" y="857" width="17" height="12.04" transform="translate(455 1726.04) rotate(-180)"/><rect class="cls-2" x="16" y="857" width="17" height="12.04" transform="translate(49 1726.04) rotate(-180)"/><rect class="cls-2" x="16" y="676" width="17" height="12.04" transform="translate(49 1364.04) rotate(-180)"/><rect class="cls-6" y="869" width="1920" height="48"/><rect class="cls-2" x="1684" y="676" width="17" height="12.04"/><rect class="cls-2" x="1684" y="857" width="17" height="12.04"/><rect class="cls-2" x="1887" y="857" width="17" height="12.04"/><rect class="cls-2" x="1887" y="676" width="17" height="12.04"/><rect class="cls-8" x="64.35" y="446.45" width="51.3" height="169.62"/><path class="cls-9" d="M117,617.5H63V445h54Zm-51.3-2.86h48.6V447.88H65.7Z"/><rect class="cls-9" x="88.65" y="446.45" width="2.7" height="169.62"/><rect class="cls-9" x="64.35" y="482.18" width="51.3" height="2.86"/><rect class="cls-9" x="64.35" y="530.31" width="51.3" height="2.86"/><rect class="cls-9" x="64.35" y="577" width="51.3" height="2.86"/><rect class="cls-8" x="136.35" y="446.45" width="51.3" height="169.62"/><path class="cls-9" d="M189,617.5H135V445h54Zm-51.3-2.86h48.6V447.88H137.7Z"/><rect class="cls-9" x="160.65" y="446.45" width="2.7" height="169.62"/><rect class="cls-9" x="136.35" y="482.18" width="51.3" height="2.86"/><rect class="cls-9" x="136.35" y="530.31" width="51.3" height="2.86"/><rect class="cls-9" x="136.35" y="577" width="51.3" height="2.86"/><rect class="cls-8" x="270.35" y="446.45" width="51.3" height="169.62"/><path class="cls-9" d="M323,617.5H269V445h54Zm-51.3-2.86h48.6V447.88H271.7Z"/><rect class="cls-9" x="294.65" y="446.45" width="2.7" height="169.62"/><rect class="cls-9" x="270.35" y="482.18" width="51.3" height="2.86"/><rect class="cls-9" x="270.35" y="530.31" width="51.3" height="2.86"/><rect class="cls-9" x="270.35" y="577" width="51.3" height="2.86"/><rect class="cls-8" x="342.35" y="446.45" width="51.3" height="169.62"/><path class="cls-9" d="M395,617.5H341V445h54Zm-51.3-2.86h48.6V447.88H343.7Z"/><rect class="cls-9" x="366.65" y="446.45" width="2.7" height="169.62"/><rect class="cls-9" x="342.35" y="482.18" width="51.3" height="2.86"/><rect class="cls-9" x="342.35" y="530.31" width="51.3" height="2.86"/><rect class="cls-9" x="342.35" y="577" width="51.3" height="2.86"/><rect class="cls-8" x="446.35" y="446.45" width="51.3" height="169.62"/><path class="cls-9" d="M499,617.5H445V445h54Zm-51.3-2.86h48.6V447.88H447.7Z"/><rect class="cls-9" x="470.65" y="446.45" width="2.7" height="169.62"/><rect class="cls-9" x="446.35" y="482.18" width="51.3" height="2.86"/><rect class="cls-9" x="446.35" y="530.31" width="51.3" height="2.86"/><rect class="cls-9" x="446.35" y="577" width="51.3" height="2.86"/><rect class="cls-8" x="518.35" y="446.45" width="51.3" height="169.62"/><path class="cls-9" d="M571,617.5H517V445h54Zm-51.3-2.86h48.6V447.88H519.7Z"/><rect class="cls-9" x="542.65" y="446.45" width="2.7" height="169.62"/><rect class="cls-9" x="518.35" y="482.18" width="51.3" height="2.86"/><rect class="cls-9" x="518.35" y="530.31" width="51.3" height="2.86"/><rect class="cls-9" x="518.35" y="577" width="51.3" height="2.86"/><rect class="cls-8" x="1350.35" y="446.45" width="51.3" height="169.62"/><path class="cls-9" d="M1403,617.5h-54V445h54Zm-51.3-2.86h48.6V447.88h-48.6Z"/><rect class="cls-9" x="1374.65" y="446.45" width="2.7" height="169.62"/><rect class="cls-9" x="1350.35" y="482.18" width="51.3" height="2.86"/><rect class="cls-9" x="1350.35" y="530.31" width="51.3" height="2.86"/><rect class="cls-9" x="1350.35" y="577" width="51.3" height="2.86"/><rect class="cls-8" x="1422.35" y="446.45" width="51.3" height="169.62"/><path class="cls-9" d="M1475,617.5h-54V445h54Zm-51.3-2.86h48.6V447.88h-48.6Z"/><rect class="cls-9" x="1446.65" y="446.45" width="2.7" height="169.62"/><rect class="cls-9" x="1422.35" y="482.18" width="51.3" height="2.86"/><rect class="cls-9" x="1422.35" y="530.31" width="51.3" height="2.86"/><rect class="cls-9" x="1422.35" y="577" width="51.3" height="2.86"/><rect class="cls-8" x="1526.35" y="446.45" width="51.3" height="169.62"/><path class="cls-9" d="M1579,617.5h-54V445h54Zm-51.3-2.86h48.6V447.88h-48.6Z"/><rect class="cls-9" x="1550.65" y="446.45" width="2.7" height="169.62"/><rect class="cls-9" x="1526.35" y="482.18" width="51.3" height="2.86"/><rect class="cls-9" x="1526.35" y="530.31" width="51.3" height="2.86"/><rect class="cls-9" x="1526.35" y="577" width="51.3" height="2.86"/><rect class="cls-8" x="1598.35" y="446.45" width="51.3" height="169.62"/><path class="cls-9" d="M1651,617.5h-54V445h54Zm-51.3-2.86h48.6V447.88h-48.6Z"/><rect class="cls-9" x="1622.65" y="446.45" width="2.7" height="169.62"/><rect class="cls-9" x="1598.35" y="482.18" width="51.3" height="2.86"/><rect class="cls-9" x="1598.35" y="530.31" width="51.3" height="2.86"/><rect class="cls-9" x="1598.35" y="577" width="51.3" height="2.86"/><rect class="cls-8" x="1738.35" y="445.45" width="51.3" height="169.62"/><path class="cls-9" d="M1791,616.5h-54V444h54Zm-51.3-2.86h48.6V446.88h-48.6Z"/><rect class="cls-9" x="1762.65" y="445.45" width="2.7" height="169.62"/><rect class="cls-9" x="1738.35" y="481.18" width="51.3" height="2.86"/><rect class="cls-9" x="1738.35" y="529.31" width="51.3" height="2.86"/><rect class="cls-9" x="1738.35" y="576" width="51.3" height="2.86"/><rect class="cls-8" x="1810.35" y="445.45" width="51.3" height="169.62"/><path class="cls-9" d="M1863,616.5h-54V444h54Zm-51.3-2.86h48.6V446.88h-48.6Z"/><rect class="cls-9" x="1834.65" y="445.45" width="2.7" height="169.62"/><rect class="cls-9" x="1810.35" y="481.18" width="51.3" height="2.86"/><rect class="cls-9" x="1810.35" y="529.31" width="51.3" height="2.86"/><rect class="cls-9" x="1810.35" y="576" width="51.3" height="2.86"/><rect class="cls-8" x="63.35" y="688.45" width="51.3" height="169.62"/><path class="cls-9" d="M116,859.5H62V687h54Zm-51.3-2.86h48.6V689.88H64.7Z"/><rect class="cls-9" x="87.65" y="688.45" width="2.7" height="169.62"/><rect class="cls-9" x="63.35" y="724.18" width="51.3" height="2.86"/><rect class="cls-9" x="63.35" y="772.31" width="51.3" height="2.86"/><rect class="cls-9" x="63.35" y="819" width="51.3" height="2.86"/><rect class="cls-8" x="135.35" y="688.45" width="51.3" height="169.62"/><path class="cls-9" d="M188,859.5H134V687h54Zm-51.3-2.86h48.6V689.88H136.7Z"/><rect class="cls-9" x="159.65" y="688.45" width="2.7" height="169.62"/><rect class="cls-9" x="135.35" y="724.18" width="51.3" height="2.86"/><rect class="cls-9" x="135.35" y="772.31" width="51.3" height="2.86"/><rect class="cls-9" x="135.35" y="819" width="51.3" height="2.86"/><rect class="cls-8" x="269.35" y="688.45" width="51.3" height="169.62"/><path class="cls-9" d="M322,859.5H268V687h54Zm-51.3-2.86h48.6V689.88H270.7Z"/><rect class="cls-9" x="293.65" y="688.45" width="2.7" height="169.62"/><rect class="cls-9" x="269.35" y="724.18" width="51.3" height="2.86"/><rect class="cls-9" x="269.35" y="772.31" width="51.3" height="2.86"/><rect class="cls-9" x="269.35" y="819" width="51.3" height="2.86"/><rect class="cls-8" x="341.35" y="688.45" width="51.3" height="169.62"/><path class="cls-9" d="M394,859.5H340V687h54Zm-51.3-2.86h48.6V689.88H342.7Z"/><rect class="cls-9" x="365.65" y="688.45" width="2.7" height="169.62"/><rect class="cls-9" x="341.35" y="724.18" width="51.3" height="2.86"/><rect class="cls-9" x="341.35" y="772.31" width="51.3" height="2.86"/><rect class="cls-9" x="341.35" y="819" width="51.3" height="2.86"/><rect class="cls-8" x="445.35" y="688.45" width="51.3" height="169.62"/><path class="cls-9" d="M498,859.5H444V687h54Zm-51.3-2.86h48.6V689.88H446.7Z"/><rect class="cls-9" x="469.65" y="688.45" width="2.7" height="169.62"/><rect class="cls-9" x="445.35" y="724.18" width="51.3" height="2.86"/><rect class="cls-9" x="445.35" y="772.31" width="51.3" height="2.86"/><rect class="cls-9" x="445.35" y="819" width="51.3" height="2.86"/><rect class="cls-8" x="517.35" y="688.45" width="51.3" height="169.62"/><path class="cls-9" d="M570,859.5H516V687h54Zm-51.3-2.86h48.6V689.88H518.7Z"/><rect class="cls-9" x="541.65" y="688.45" width="2.7" height="169.62"/><rect class="cls-9" x="517.35" y="724.18" width="51.3" height="2.86"/><rect class="cls-9" x="517.35" y="772.31" width="51.3" height="2.86"/><rect class="cls-9" x="517.35" y="819" width="51.3" height="2.86"/><rect class="cls-8" x="1350.35" y="689.45" width="51.3" height="169.62"/><path class="cls-9" d="M1403,860.5h-54V688h54Zm-51.3-2.86h48.6V690.88h-48.6Z"/><rect class="cls-9" x="1374.65" y="689.45" width="2.7" height="169.62"/><rect class="cls-9" x="1350.35" y="725.18" width="51.3" height="2.86"/><rect class="cls-9" x="1350.35" y="773.31" width="51.3" height="2.86"/><rect class="cls-9" x="1350.35" y="820" width="51.3" height="2.86"/><rect class="cls-8" x="1422.35" y="689.45" width="51.3" height="169.62"/><path class="cls-9" d="M1475,860.5h-54V688h54Zm-51.3-2.86h48.6V690.88h-48.6Z"/><rect class="cls-9" x="1446.65" y="689.45" width="2.7" height="169.62"/><rect class="cls-9" x="1422.35" y="725.18" width="51.3" height="2.86"/><rect class="cls-9" x="1422.35" y="773.31" width="51.3" height="2.86"/><rect class="cls-9" x="1422.35" y="820" width="51.3" height="2.86"/><rect class="cls-8" x="1526.35" y="689.45" width="51.3" height="169.62"/><path class="cls-9" d="M1579,860.5h-54V688h54Zm-51.3-2.86h48.6V690.88h-48.6Z"/><rect class="cls-9" x="1550.65" y="689.45" width="2.7" height="169.62"/><rect class="cls-9" x="1526.35" y="725.18" width="51.3" height="2.86"/><rect class="cls-9" x="1526.35" y="773.31" width="51.3" height="2.86"/><rect class="cls-9" x="1526.35" y="820" width="51.3" height="2.86"/><rect class="cls-8" x="1598.35" y="689.45" width="51.3" height="169.62"/><path class="cls-9" d="M1651,860.5h-54V688h54Zm-51.3-2.86h48.6V690.88h-48.6Z"/><rect class="cls-9" x="1622.65" y="689.45" width="2.7" height="169.62"/><rect class="cls-9" x="1598.35" y="725.18" width="51.3" height="2.86"/><rect class="cls-9" x="1598.35" y="773.31" width="51.3" height="2.86"/><rect class="cls-9" x="1598.35" y="820" width="51.3" height="2.86"/><rect class="cls-8" x="1738.35" y="688.45" width="51.3" height="169.62"/><path class="cls-9" d="M1791,859.5h-54V687h54Zm-51.3-2.86h48.6V689.88h-48.6Z"/><rect class="cls-9" x="1762.65" y="688.45" width="2.7" height="169.62"/><rect class="cls-9" x="1738.35" y="724.18" width="51.3" height="2.86"/><rect class="cls-9" x="1738.35" y="772.31" width="51.3" height="2.86"/><rect class="cls-9" x="1738.35" y="819" width="51.3" height="2.86"/><rect class="cls-8" x="1810.35" y="688.45" width="51.3" height="169.62"/><path class="cls-9" d="M1863,859.5h-54V687h54Zm-51.3-2.86h48.6V689.88h-48.6Z"/><rect class="cls-9" x="1834.65" y="688.45" width="2.7" height="169.62"/><rect class="cls-9" x="1810.35" y="724.18" width="51.3" height="2.86"/><rect class="cls-9" x="1810.35" y="772.31" width="51.3" height="2.86"/><rect class="cls-9" x="1810.35" y="819" width="51.3" height="2.86"/><path class="cls-8" d="M1146.42,725.88c-.17-16.89-11.49-30.51-25.43-30.51s-25.25,13.62-25.42,30.51Z"/><path class="cls-9" d="M1148,727.44h-54v-1.58c.18-17.68,12.29-32.06,27-32.06s26.81,14.38,27,32.06Zm-50.82-3.12h47.62c-.82-15.24-11.24-27.39-23.81-27.39S1098,709.08,1097.18,724.32Z"/><rect class="cls-8" x="1095.35" y="724.66" width="51.29" height="132.72"/><path class="cls-9" d="M1148,858.5h-54v-135h54Zm-51.28-2.24h48.58V725.78H1096.7Z"/><rect class="cls-9" x="1119.64" y="695.37" width="2.7" height="162.02"/><rect class="cls-9" x="1095.35" y="752.62" width="51.29" height="2.24"/><rect class="cls-9" x="1095.35" y="790.28" width="51.29" height="2.24"/><rect class="cls-9" x="1095.35" y="826.81" width="51.29" height="2.24"/><path class="cls-8" d="M758.42,727.88c-.17-16.89-11.49-30.51-25.43-30.51S707.74,711,707.57,727.88Z"/><path class="cls-9" d="M760,729.44H706v-1.58c.18-17.68,12.29-32.06,27-32.06s26.81,14.38,27,32.06Zm-50.82-3.12H756.8c-.82-15.24-11.24-27.39-23.81-27.39S710,711.08,709.18,726.32Z"/><rect class="cls-8" x="707.35" y="726.66" width="51.29" height="132.72"/><path class="cls-9" d="M760,860.5H706v-135h54Zm-51.28-2.24h48.58V727.78H708.7Z"/><rect class="cls-9" x="731.64" y="697.37" width="2.7" height="162.02"/><rect class="cls-9" x="707.35" y="754.62" width="51.29" height="2.24"/><rect class="cls-9" x="707.35" y="792.28" width="51.29" height="2.24"/><rect class="cls-9" x="707.35" y="828.81" width="51.29" height="2.24"/><path class="cls-8" d="M1146.42,476.81c-.17-14.64-11.49-26.45-25.43-26.45s-25.25,11.81-25.42,26.45Z"/><path class="cls-9" d="M1148,478.16h-54v-1.37c.18-15.32,12.29-27.79,27-27.79s26.81,12.47,27,27.79Zm-50.82-2.71h47.62c-.82-13.21-11.24-23.74-23.81-23.74S1098,462.24,1097.18,475.45Z"/><rect class="cls-8" x="1095.35" y="475.75" width="51.29" height="115.04"/><path class="cls-9" d="M1148,591.77h-54v-117h54Zm-51.28-1.94h48.58V476.72H1096.7Z"/><rect class="cls-9" x="1119.64" y="450.36" width="2.7" height="140.44"/><rect class="cls-9" x="1095.35" y="499.99" width="51.29" height="1.94"/><rect class="cls-9" x="1095.35" y="532.63" width="51.29" height="1.94"/><rect class="cls-9" x="1095.35" y="564.3" width="51.29" height="1.94"/><path class="cls-8" d="M758.42,478.54c-.17-14.64-11.49-26.45-25.43-26.45s-25.25,11.81-25.42,26.45Z"/><path class="cls-9" d="M760,479.9H706v-1.37c.18-15.33,12.29-27.8,27-27.8s26.81,12.47,27,27.8Zm-50.82-2.72H756.8C756,464,745.56,453.45,733,453.45S710,464,709.18,477.18Z"/><rect class="cls-8" x="707.35" y="477.49" width="51.29" height="115.04"/><path class="cls-9" d="M760,593.5H706v-117h54Zm-51.28-1.94h48.58V478.46H708.7Z"/><rect class="cls-9" x="731.64" y="452.09" width="2.7" height="140.44"/><rect class="cls-9" x="707.35" y="501.72" width="51.29" height="1.94"/><rect class="cls-9" x="707.35" y="534.36" width="51.29" height="1.94"/><rect class="cls-9" x="707.35" y="566.03" width="51.29" height="1.94"/></g></svg>