<svg xmlns="http://www.w3.org/2000/svg" viewBox="0 0 1920 1080"><defs><style>.cls-1{fill:#353530;}.cls-2{fill:#563b05;}.cls-3{fill:#930516;}.cls-4{fill:#f1f47a;}.cls-5{fill:#b70815;}.cls-6{fill:#d8d8d4;}.cls-7{fill:#f0d2a2;}.cls-8{fill:#977952;}.cls-9{fill:#4f4e4d;}.cls-10{fill:#aaa504;}.cls-11{fill:#535054;}.cls-12{fill:#b69e5b;}.cls-13{fill:#f9efa7;}.cls-14{fill:#b2b2ad;}.cls-15{fill:#82081d;}</style></defs><title>4</title><g id="Layer_1" data-name="Layer 1"><path class="cls-1" d="M1007.46,459.09h-13l1.25,24.3H851.13l1.25-24.3h-13L823.41,768.56,805.8,990.18l13,1L820,976.26,919.52,916l107.75,65.27.67,8.44,13-1-17.61-221.62Zm8.74,382.78h-1.34l1.18-2.06Zm-5.89-74.08v.08l5.26,66.18-78.82-42.57,72.75-39.29ZM990.83,621.65l-67.47,45.41-67.47-45.41ZM856.05,609,923,558.44,990.6,609ZM996.28,731.53H850.44l72.92-49.08Zm1.28,12.65-74.2,40.07-74.19-40.07Zm5.7,97.69H843.46l79.9-43.15Zm5.84-97.69,0,1-.55-1Zm-1-20.11-73.27-49.32,68.37-46Zm-5.27-102.42,0,.8-.57-.8Zm-6.12-118.87,5.08,98.6-68.14-51ZM984.38,496,923,542.44,860.89,496Zm-134.31,7.88,62.26,46.56-67.27,50.81ZM844,621.65h.45l-.48.68Zm-.37,7.14,68.29,46L838.74,724ZM837.7,744.18h.43l-.47.81Zm-1.3,25.26v-.08l.88-17.12L910,791.48,831.27,834ZM830.79,840l1.08,1.87h-1.22Zm-9.58,120.6,7.9-99.39,78.11,47.3Zm21.47-106.08H996.36l-76.84,46.54Zm89.14,54,85.56-51.82L1026,965.57Z"/><rect class="cls-2" x="813.44" y="446.44" width="219.85" height="12.65"/><polygon class="cls-3" points="937.47 341.12 932.86 356.21 931.13 386.41 939.2 412.13 948.98 432.81 961.07 450.15 973.16 450.15 980.07 450.15 989.86 450.15 1003.1 449.03 988.99 442.04 975.75 437.57 968.27 423.59 961.36 398.43 955.6 377.74 958.48 364.32 957.9 350.34 949.27 339.72 937.47 341.12"/><polygon class="cls-3" points="914.44 340.28 919.04 355.38 920.77 385.57 912.71 411.29 902.93 431.98 890.84 449.31 878.75 449.31 871.84 449.31 862.05 449.31 848.81 448.19 862.92 441.2 876.16 436.73 883.64 422.75 890.55 397.59 896.31 376.9 893.43 363.48 894 349.5 902.64 338.88 914.44 340.28"/><polygon class="cls-4" points="910.12 332.45 899.18 336.92 890.55 349.78 896.88 351.46 897.46 354.26 902.06 354.26 910.12 349.22 915.38 343.35 914.73 340.28 913.58 334.13 910.12 332.45"/><polygon class="cls-4" points="942.43 332.17 953.37 336.64 962.01 349.5 955.68 351.18 955.1 353.98 950.5 353.98 942.43 348.94 937.18 343.07 937.83 340 938.98 333.85 942.43 332.17"/><polygon class="cls-5" points="956.47 352.86 955.31 368.51 953.59 385.29 949.56 399.83 946.1 412.13 935.16 407.65 927.11 407.1 930.56 394.79 936.32 386.41 939.77 369.07 942.07 357.33 943.22 350.62 949.56 355.1 953.59 354.54 955.89 353.98 956.47 352.86"/><polygon class="cls-5" points="896 353.15 897.48 368.79 899.56 385.52 903.89 399.98 907.6 412.21 918.44 407.52 926.49 406.8 922.78 394.57 916.85 386.3 913.03 369.04 910.48 357.34 909.19 350.66 902.95 355.25 898.91 354.77 896.6 354.26 896 353.15"/><polygon class="cls-6" points="929.41 394.79 923.08 394.79 920.2 389.76 921.35 385.85 920.2 366.28 919.62 355.65 916.17 345.94 921.92 349.5 927.68 351.74 934.59 347.83 932.29 355.65 930.56 385.85 932.29 391.44 930.56 394.24 930.56 394.79 929.41 394.79"/><polygon class="cls-7" points="923.08 408.77 924.23 414.92 925.38 421.07 923.08 424.99 920.77 427.22 917.32 427.78 910.41 426.67 910.99 424.43 913.86 422.19 912.71 418.84 912.23 414.08 913.48 410.82 917.89 408.77 923.08 408.77"/><polygon class="cls-7" points="928.26 408.21 927.11 414.36 925.95 420.51 928.26 424.43 930.56 426.67 934.01 427.22 940.92 426.11 940.35 423.87 937.47 421.63 938.62 418.28 939.1 413.52 937.85 410.26 933.44 408.21 928.26 408.21"/><polygon class="cls-8" points="893.14 447.91 904.08 433.37 910.41 417.72 912.71 421.63 910.41 423.31 909.26 426.67 909.83 427.78 915.59 428.9 916.74 436.73 917.32 443.44 913.29 446.79 902.93 448.47 896.59 447.91 893.14 447.91"/><polygon class="cls-8" points="958.19 448.47 953.59 448.47 951.28 449.59 946.68 446.24 937.47 446.24 934.59 436.73 934.59 428.34 940.92 427.22 941.5 424.43 939.77 422.19 939.77 416.04 946.68 431.7 950.71 436.73 958.19 448.47"/><polygon class="cls-9" points="934.59 442.88 931.13 444 926.53 442.32 926.53 431.7 927.11 424.99 929.41 427.22 933.44 428.34 933.44 436.73 934.59 442.88"/><polygon class="cls-9" points="924.8 424.43 923.65 426.11 921.92 427.78 916.74 428.9 918.47 442.88 920.77 444 924.23 441.76 924.8 432.26 924.8 424.43"/><polygon class="cls-10" points="906.22 401.12 905.38 399.65 915.94 393.95 920.77 393.95 920.77 395.63 916.39 395.63 906.22 401.12"/><polygon class="cls-10" points="947.12 400.84 938.11 395.91 932.57 395.91 932.57 394.24 938.56 394.24 947.97 399.38 947.12 400.84"/><polygon class="cls-10" points="908.78 411.48 908.01 409.98 916.19 406 924.39 404.87 924.64 406.53 916.72 407.63 908.78 411.48"/><polygon class="cls-10" points="944.83 411.47 936.92 407.35 929.03 406.53 929.21 404.86 937.44 405.72 945.65 409.99 944.83 411.47"/><rect class="cls-10" x="916.45" y="376.34" width="2.88" height="1.68"/><rect class="cls-10" x="916.74" y="369.63" width="2.88" height="1.68"/><polygon class="cls-10" points="907.31 416.68 901.76 413.79 902.58 412.31 908.13 415.21 907.31 416.68"/><polygon class="cls-10" points="901.71 425.46 895.96 422.95 896.66 421.42 902.42 423.93 901.71 425.46"/><polygon class="cls-10" points="898.25 431.75 891.95 431.34 892.07 429.67 898.36 430.08 898.25 431.75"/><polygon class="cls-10" points="894.4 439.78 888.44 437.76 889.01 436.18 894.97 438.19 894.4 439.78"/><polygon class="cls-10" points="865.79 449.03 865.79 447.35 875.58 447.35 884.08 446.8 890.57 445.23 893.81 439.98 897.33 432.06 901.36 426.46 905.9 419.28 908.83 413.06 909.98 411.38 911.42 412.31 910.3 413.93 907.4 420.12 902.8 427.38 898.79 432.95 895.32 440.8 891.68 446.69 884.27 448.47 875.64 449.03 865.79 449.03"/><polygon class="cls-10" points="933.64 366.13 932.65 364.75 937.57 361.41 934.83 358.75 941.27 351.94 937.04 345.78 938.47 344.85 943.46 352.1 937.22 358.7 940.25 361.64 933.64 366.13"/><polygon class="cls-10" points="919.06 365.33 911.98 363.01 916.66 358.46 910.23 355.86 913.32 345.63 914.98 346.11 912.32 354.89 919.7 357.88 915.17 362.28 919.61 363.74 919.06 365.33"/><polygon class="cls-10" points="985.52 450.96 977.43 449.05 969.4 450.16 962.67 448.97 957.75 444.16 947.32 427.82 940.99 412.72 942.59 412.09 948.89 427.12 959.16 443.19 963.51 447.41 969.43 448.46 977.52 447.34 985.93 449.33 985.52 450.96"/><path class="cls-10" d="M951.86,424.81a1.5,1.5,0,0,0,0-3,1.5,1.5,0,0,0,0,3Z"/><path class="cls-10" d="M955.41,431.33a1.5,1.5,0,0,0,0-3,1.5,1.5,0,0,0,0,3Z"/><polygon class="cls-11" points="927.11 329.93 929.41 339.44 931.13 337.2 931.71 339.44 932.86 339.44 934.01 344.47 935.74 340.56 938.04 342.79 940.35 339.44 940.35 337.2 943.8 339.44 941.5 334.97 943.8 335.53 941.5 333.29 945.53 331.05 940.92 328.26 944.38 328.82 941.5 326.58 937.47 323.78 936.32 323.23 939.77 320.99 935.74 320.99 934.01 319.31 931.13 319.31 934.01 315.96 931.13 316.51 928.26 318.75 925.95 317.07 922.5 315.4 924.8 317.63 924.8 318.75 920.77 318.19 917.89 320.43 916.17 323.23 913.29 327.7 911.56 330.49 907.89 333.36 906.96 337.2 909.83 335.53 910.31 339.72 912.14 337.76 912.33 340 913.86 338.88 914.44 342.79 915.38 342.05 916.17 346.15 917.32 344.47 919.04 348.94 919.62 345.03 920.2 345.59 920.77 341.68 921.35 338.88 922.5 338.88 923.65 336.08 925.38 334.41 927.11 329.93"/><polygon class="cls-7" points="927.11 332.17 928.83 340 929.98 340 930.56 338.32 932.29 341.12 933.44 345.03 934.01 345.03 935.74 341.68 936.89 342.24 935.16 346.71 932.29 350.06 929.41 351.74 926.53 352.3 922.5 350.62 919.62 348.94 920.2 345.59 921.35 346.15 920.77 344.47 921.54 339.39 923.08 339.44 923.65 336.64 925.95 334.97 927.11 332.17"/><polygon class="cls-11" points="936.36 350.36 932.24 348.75 930.07 346.01 927.98 346.02 927.97 344.9 930.63 344.89 932.96 347.83 936.38 349.16 937.65 348.71 937.3 347.2 935.58 347.25 935.55 346.13 938.21 346.06 939 349.43 936.36 350.36"/><polygon class="cls-11" points="918.72 350.49 916.08 349.56 916.87 346.19 919.53 346.26 919.5 347.38 917.78 347.33 917.43 348.84 918.69 349.29 922.12 347.95 924.45 345.02 927.11 345.03 927.1 346.15 925.01 346.14 922.84 348.88 918.72 350.49"/><polygon class="cls-12" points="999.07 287.08 999.07 283.17 1007.13 279.81 1018.64 280.93 1020.37 297.7 1014.61 313.36 1008.85 323.42 1008.28 328.45 993.88 327.34 982.95 330.13 980.64 325.66 983.52 313.36 990.43 299.94 995.04 291.55 999.07 287.08"/><polygon class="cls-12" points="984.1 331.25 984.1 344.11 981.8 360.88 993.88 360.88 1008.28 362.56 1016.91 361.44 1013.46 339.64 1007.7 331.25 995.04 330.13 984.1 331.25"/><polygon class="cls-12" points="985.83 362.56 991.01 383.25 993.31 392.76 993.31 396.67 996.19 399.47 1010 399.47 1014.03 392.76 1009.43 384.93 1010.58 372.63 1008.85 363.68 993.88 361.44 985.83 362 985.83 362.56"/><polygon class="cls-1" points="996.19 401.7 999.64 411.21 999.64 415.12 1002.52 420.15 1005.4 435.25 997.34 438.61 991.01 441.96 988.13 446.99 1002.52 446.99 1019.22 446.99 1016.91 437.49 1014.03 417.36 1014.03 413.44 1012.31 408.41 1011.16 400.58 1003.1 400.58 996.19 400.58 996.19 401.7"/><polygon class="cls-13" points="1016.34 279.81 1012.88 271.98 1014.61 268.63 996.19 261.92 993.88 266.39 993.31 269.19 995.04 269.75 996.19 273.66 996.19 275.34 999.64 276.46 1001.37 275.9 1001.95 280.93 1007.7 278.69 1016.34 279.81"/><polygon class="cls-12" points="992.73 258.41 995.83 261.42 1016.25 268.63 1017.49 265.02 1016.87 259.61 1013.77 255.4 1007.59 253 1002.02 253 998.3 255.4 996.45 257.21 994.59 258.41 992.73 258.41"/><polygon class="cls-14" points="1004.82 309.44 1008.85 299.94 1011.16 291.55 1007.7 287.64 1001.37 286.52 996.19 288.76 991.01 297.14 988.13 301.06 993.88 301.62 999.64 305.53 1002.52 308.89 1003.67 309.44 1004.82 309.44"/><polygon class="cls-13" points="964.52 341.32 967.4 341.32 969.13 339.64 972.59 339.64 974.31 335.72 976.61 333.49 976.04 329.57 984.1 322.31 986.4 321.75 986.98 319.51 993.88 314.48 1000.22 309.44 997.91 305.53 993.88 302.74 989.86 302.74 985.83 310.56 980.64 314.48 976.61 316.71 971.43 322.86 967.98 326.78 959.92 331.25 958.77 334.05 958.77 335.17 962.22 334.05 963.95 334.05 966.83 337.4 963.95 340.2 964.52 341.32"/><polygon class="cls-15" points="962.8 334.61 965.68 337.4 963.37 339.64 965.1 342.99 966.83 346.91 965.1 348.02 960.5 342.43 954.74 336.84 953.59 334.05 955.31 332.93 957.04 333.49 958.19 335.17 958.77 335.72 960.5 335.17 962.8 334.61"/><polygon class="cls-14" points="927.68 363.68 931.13 366.48 959.34 342.99 957.04 340.76 927.68 363.68"/><polygon class="cls-15" points="1008.85 304.41 1048 272.54 1044.55 269.19 1010.58 297.7 1009.43 301.06 1008.85 304.41"/><polygon class="cls-14" points="822.9 448.67 842.48 438.61 924.8 370.39 922.5 368.15 822.9 448.67"/><polygon class="cls-12" points="853.99 287.08 853.99 283.17 845.93 279.81 834.42 280.93 832.69 297.7 838.45 313.36 844.21 323.42 844.78 328.45 859.17 327.34 870.11 330.13 872.41 325.66 869.54 313.36 862.63 299.94 858.02 291.55 853.99 287.08"/><polygon class="cls-12" points="868.96 331.25 868.96 344.11 871.26 360.88 859.17 360.88 844.78 362.56 836.15 361.44 839.6 339.64 845.36 331.25 858.02 330.13 868.96 331.25"/><polygon class="cls-12" points="867.23 362.56 862.05 383.25 859.75 392.76 859.75 396.67 856.87 399.47 843.05 399.47 839.02 392.76 843.63 384.93 842.48 372.63 844.21 363.68 859.17 361.44 867.23 362 867.23 362.56"/><polygon class="cls-1" points="856.87 401.7 853.42 411.21 853.42 415.12 850.54 420.15 847.66 435.25 855.72 438.61 862.05 441.96 864.93 446.99 850.54 446.99 833.84 446.99 836.15 437.49 839.02 417.36 839.02 413.44 840.75 408.41 841.9 400.58 849.96 400.58 856.87 400.58 856.87 401.7"/><polygon class="cls-13" points="836.72 279.81 840.18 271.98 838.45 268.63 856.87 261.92 859.17 266.39 859.75 269.19 858.02 269.75 856.87 273.66 856.87 275.34 853.42 276.46 851.69 275.9 851.11 280.93 845.36 278.69 836.72 279.81"/><polygon class="cls-12" points="860.33 258.41 857.23 261.42 836.81 268.63 835.57 265.02 836.19 259.61 839.28 255.4 845.47 253 851.04 253 854.75 255.4 856.61 257.21 858.47 258.41 860.33 258.41"/><polygon class="cls-14" points="848.24 309.44 844.21 299.94 841.9 291.55 845.36 287.64 851.69 286.52 856.87 288.76 862.05 297.14 864.93 301.06 859.17 301.62 853.42 305.53 850.54 308.89 849.39 309.44 848.24 309.44"/><polygon class="cls-13" points="888.53 341.32 885.65 341.32 883.93 339.64 880.47 339.64 878.75 335.72 876.44 333.49 877.02 329.57 868.96 322.31 866.66 321.75 866.08 319.51 859.17 314.48 852.84 309.44 855.14 305.53 859.17 302.74 863.2 302.74 867.23 310.56 872.41 314.48 876.44 316.71 881.63 322.86 885.08 326.78 893.14 331.25 894.29 334.05 894.29 335.17 890.84 334.05 889.11 334.05 886.23 337.4 889.11 340.2 888.53 341.32"/><polygon class="cls-15" points="890.26 334.61 887.38 337.4 889.68 339.64 887.96 342.99 886.23 346.91 887.96 348.02 892.56 342.43 898.32 336.84 899.47 334.05 897.75 332.93 896.02 333.49 894.87 335.17 894.29 335.72 892.56 335.17 890.26 334.61"/><polygon class="cls-15" points="844.21 304.41 805.06 272.54 808.51 269.19 842.48 297.7 843.63 301.06 844.21 304.41"/><polygon class="cls-14" points="1010.58 438.61 1030.15 448.67 932.44 369.67 930.56 368.15 930.51 368.21 924.32 362.56 924.14 362.71 896.02 340.76 893.72 342.99 920.74 365.49 920.74 365.49 920.74 365.49 921.92 366.48 922.03 366.39 930.66 372.39 1010.58 438.61"/></g></svg>