<svg xmlns="http://www.w3.org/2000/svg" xmlns:xlink="http://www.w3.org/1999/xlink" viewBox="0 0 1920 1080"><defs><style>.cls-1{fill:url(#linear-gradient);}</style><linearGradient id="linear-gradient" x1="1088.71" y1="1045.8" x2="1088.71" y2="727.47" gradientUnits="userSpaceOnUse"><stop offset="0" stop-color="#2b2b2b"/><stop offset="1"/></linearGradient></defs><title>6</title><g id="Layer_1" data-name="Layer 1"><path class="cls-1" d="M2326,868.45c0-7-2.79-10.6-7.78-14.14-2.72-1.93-4.81-4.74-7.19-7.15-2.63-1.26-5.91-2.47-6.9-4.69-3-6.76-4.58-14.17-7.8-20.8-1.85-3.8-5.83-6.56-8.86-9.8l-1.83,1.64a14.81,14.81,0,0,1,1.49,2.33c1,2.34,1.84,4.73,2.75,7.09-2.33-.82-4.82-1.36-7-2.54a71.77,71.77,0,0,1-7.14-5.08c-.51.53-1,1.05-1.52,1.58,3.07,3.56,6.15,7.12,10.37,12l-14.9-2.12-.93,2.21c4.77,2.52,9.61,4.9,14.25,7.63,1.54.9,3.5,2.62,3.64,4.11.8,8.36,1.06,16.43-7.94,21.66-3.74,2.17-6.22,6.5-9.38,10-9-13.81-18.12-27.72-27-41.83a22.26,22.26,0,0,1-2.67-8.86c-1.24-9.73-2.4-19.48-3.08-29.26-.41-5.75-5.31-4.81-8.36-6.66-1.25,3.21-6.89,4.46-3.92,9.67,1.12,2,.95,4.66,1.37,7l-1.29.29c-1.6-1.75-3.21-3.49-5.3-5.76,3.14,11.21,6,21.47,8.89,31.73a4,4,0,0,0,.34.64c9.23,18.61,18.56,37.18,27.62,55.88,2.68,5.52-1.69,12.1-9,13.14.49-11.93-3-22.2-15-26.7-12.19-4.55-21.88.93-30.55,9.81.23-4.42.73-8.29.56-12.13-.19-4.09-.17-8.52-1.76-12.14-3.06-7-1.86-12.8,1.89-19.09s-1.53-17.49-7.79-18.55c-4.26-6,4-14.31-4.31-19.51-10.52,4.62-7.08,13.27-6.2,21.45-7.57-9.71-16.19-18.49-17-31.91a55.08,55.08,0,0,0-4.45-17.44c-1.63-3.89-5.21-7-7.91-10.41l-2.16,1.73,5.05,9.92-12.81-7.82-2.31,1.09c1.05,5.62,1.18,11.62,3.34,16.77,4.28,10.24,10,19.84,14.51,30,5,11.29,8.85,23.05,13.79,34.36,3.31,7.58,4,14-1.13,21.47-4.19,6-6.07,13.66-9.22,20.46-1.53,3.32-3.61,6.38-5.54,9.71-4.27-3.09-5.61-5.25-2.24-9.39,1.85-2.26,2-6.4,1.88-9.66-.15-5.23-1.56-10.42-1.66-15.64-.38-19.05-10.18-28.48-29.06-27.61-.37,0-.77-.47-1.5-1,.85-2.37,1.71-4.84,2.62-7.29,3.25-8.79,8.22-17.07,2.86-27.19-2.08-3.92-2.88-6.14-6.59-3.22-7-8.31,3.22-19.94-6.81-27.52-6.09,3.64-7.09,9.64-6.07,15.52,1.47,8.48,4.36,16.7,6.15,25.14.6,2.79.64,6.46-.71,8.77-7.05,12.13-14.61,24-22.05,35.86a38.73,38.73,0,0,1-3.56,4.07c2.44-29.43-18-46.21-32.71-66l7.19-8.93-7.51,2.83c3.41-11.76,3.41-11.76-.31-15.08l-5.38,6.77c1.29-13.8,2-26.12-2.55-38.15-2,3.61-2.54,7.29-3.34,10.91-1,4.65-2.15,13.23-3.38,13.26-7.82.16-5.89,6.67-8.15,10.3-2.47,4-2.62,7.39.85,11.12,1.62,1.74,1.91,4.71,2.8,7.12l-1.88.61-5.85-5.49c-3,5.9,5.4,12.17-1.73,16.24l-6.77-5.62c.71,5.8.85,9.89,1.77,13.79,1.57,6.66-1.64,11.48-7,13.39-7.81,2.82-12.44,8.16-17.56,14.18-3.2,3.76-2.17,8.16-4.34,10.9-3.5,4.42-1.8,7.14.24,11a73.44,73.44,0,0,1,5.8,14.39c.37,1.28-2.06,3.37-3.21,5.08-1.74-1.18-4.64-2.06-5-3.59-2.52-9.56-4.71-19.23-6.49-28.95a18.35,18.35,0,0,1,1.1-9.18c8-21.27,16.2-42.44,24.24-63.69.66-1.74,1.32-4.18.61-5.63-4.12-8.42.4-13.56,6.28-18.45a23.24,23.24,0,0,0,2.94-3.69l-1-1.38-14,9.17-2-1.89q5.6-7.89,11.17-15.79l-1.38-1.33-13.9,10.93c-5.52-6,2.54-11.47.6-19.16l-8.11,12.36-2-8.84c-3.6,6.89-2.34,13.06.18,19.6,3.58,9.34,9,19.31,3.54,29.22-9.25,16.84-19.67,33-30.54,51.09-1.8-6.22-4.17-11.71-4.84-17.4-.8-6.83,0-13.83-.19-20.74a30.24,30.24,0,0,0-1.36-8.75c-.27-.83-3.31-1.66-4.37-1.12-3,1.55-3.84,1.61-4.2-1.48-.53-4.5-.74-9-1.12-13.9l-5.07,6.25c.41-4.27.69-7.08.93-9.9,0-.14-.31-.31-.52-.51l-7.08,1.72c1.53,29-10.63,54.13-23.22,77.84-3.51-7.53-6.6-15.66-10.92-23.06-6.59-11.27-14.23-21.93-21-33.12-1.37-2.28-1.53-5.93-.9-8.63,1.72-7.38,4.66-14.48,6.18-21.89,1.64-8.06-2-12.1-10-12.92-5,4.86-4.25,9.9-1.65,15.62,1.16,2.55.19,6.07.19,10.32l-6.67-4.13c-5.37,11.67-5.36,11.66-1.39,21.93q7.95,20.52,15.87,41.07c-6.65-5.17-13.25-9.66-21-7.54-6.91,1.9-13.09,6.41-20.36,10.16-1.12-4.12-2.51-9.65-4.12-15.13-2.59-8.8-4.61-18-14.35-22.28a5,5,0,0,1-2.33-3.87c.23-7.49-.8-15.58,1.69-22.31,3.82-10.31.87-20.48,2.2-30.59a52,52,0,0,0,.07-8.15l-8.84-3.7c-6.23,6.66-7.94,16.11-6.51,25.23,1.57,10,1,18.92-2.85,28.27a72.83,72.83,0,0,0-5.61,22.38c-1.11,16.6-.85,33.29-1.37,49.94-.08,2.66-.51,6.1-2.18,7.8-7.77,7.87-16,15.25-24.45,23.12-3.88-14.5-10.37-27.39-25.55-34.17,2.31-4,3.89-7.29,5.9-10.23,7.11-10.4,7.18-12.53-.89-24.44-1.55,2.8-3.2,4.77-3.73,7-.66,2.78-.4,5.78-.53,8.68l-1.71.29-5.63-7.83c.41,4.93.68,8.05,1,12.45-6.4-4.93-12.08-6.88-16.11-1.84l-7.17-9.14c-8.44,2.37-7.41,8-6.53,13.56,1,6.37,2.22,12.74,2.68,19.16.17,2.29-1.58,4.72-2.46,7.09l-2.89.26L1690,824.86l-1.47,5.84-2-.47c.48-3.12,1-6.23,1.53-9.78-1-.34-3-.45-4-1.5-4-4.16-10.27-4.78-12.62-.13s-4.46,10.14-3.93,15c1.07,9.65-.75,17.63-7.42,24.71-5,5.25-10.23,10.41-14.13,16.41-5,7.61-8.64,16-13,24.32-6.64-2.12-10.23-7.38-10-15.86.17-6.26-.9-12.55-1.19-18.84-1.1-24.33-10-45.45-25-64.53-4.31-5.5-7-12.54-9.36-19.24-2.47-7-3.39-14.54-5.54-21.68-1-3.19-3.28-6-5-8.92L1575,751c.45,2.28.89,4.57,1.4,7.19l-7.71-3.61c-1.1,4.95-3.7,9.57-2.56,12.91,3.21,9.42,7.93,18.33,12.1,27.42,1.31,2.84,3,5.5,4.11,8.42,5.48,15,11.08,30,16,45.15a14.76,14.76,0,0,1-1.37,11.21c-4.17,6.29-8.93,13-7.83,20.1,1.24,8-3.86,10.25-6.91,14.59.81-5.48,3.32-10.61,3.34-15.74a118,118,0,0,0-2.67-24.25c-2.31-11.24-10.2-18.53-20.56-18-6.72.35-13.3,3.5-19.63,5.3,5.22-12.78,10.49-27,19.4-40,4-5.87,4.5-14.2,6.59-21.42l-2.79-1.19-6.47,7.26-2.31-.71c1.15-5.6,1.33-11.65,3.69-16.68,2.57-5.5,2.28-9.11-4.23-13.88-3,6.56-6.92,12.38-8.3,18.75-1.5,6.95-.57,14.4-.9,21.63-.11,2.57,0,5.72-1.36,7.59-9.23,12.6-18.83,24.93-28.5,37.61-2.55-4.36-5.31-8.07-7-12.21-4.33-10.5-8.87-20.79-2.32-32.58,3.31-5.95,4.23-13.32,5.72-20.16.5-2.31-.56-5-.9-7.46l-3.08-.28c-2,6.5-4.06,13-6.29,20.1-2.22-3.77-4.23-4.87-5.4.25-1.53,6.68-3.17,13.33-5.17,21.73-10.49-9.64-20.21-17.87-29.06-27-5.24-5.4-4.75-12.42-.18-16.21l-7.13-2.33.18-.91h7.49L1465,762c-3.1-1.21-6.13-2.64-9.31-3.59-5.07-1.51-4.88-4-1.57-7.14a70.73,70.73,0,0,1,5.91-4.5l-1-2-12.87,5.1c-1.1-3.5-2.18-6.92-3.75-11.88l-7,17.34c.43,3,1.61,6.06,1.16,8.9a59.87,59.87,0,0,1-11.87,27.68c-10.82,14.14-21,28.78-31.42,43.17-9.62-7.54-11.09-15.21-4.82-23.55-1.39-4.29-3.46-7.59-3.27-10.76.34-5.44,2.2-10.77,3.19-16.2a60,60,0,0,0,.49-7.5l-1.73-.19-55.25,91.38c-5.21-6.54-10.31-13.29-15.79-19.74-5.1-6-7.93-12.71-7.73-20.57.12-5.07.82-10.12.8-15.18,0-5.55-.55-11.1-.86-16.65l-2.39.26c-.4,2.11-.8,4.21-1.26,6.68l-8.2-9.62-1.1,1.09q3,7.94,6,15.87l-2.85,1.82c-3.43-4.44-6.87-8.87-10.36-13.37-3.34,7.19-5.94,12.78-8.53,18.33-3.52-3.36-3.3-22.68.41-25.57.19-.15.46-.18.66-.31,2.71-1.88,5.65-3.52,8-5.74a7.65,7.65,0,0,0,2.35-5.22c0-.9-2.78-2.24-4.39-2.41-3.48-.37-7-.11-12.27-.11,2.45-2.73,3.53-3.88,4.55-5.09s2-2.46,3.24-4.07c-6.44.18-13.38,4.71-15.52,9-6.48,13-12.82,26.08-24.85,35.24a50.68,50.68,0,0,0-9.2,9.25c-12,15.49-23.1,31.39-18.89,52.74.25,1.27-.14,2.65-.38,6.11-8.95-10.59-19.15-17.54-18.73-32,.23-8-1-16.75-9.58-24.46-.25,5-.55,8.31-.55,11.65,0,3.8,1.65,8.35.1,11.25-4.23,7.89-3.15,14.7.93,20.82l-21,2.42c5.06-19.2-.66-35-12.19-49.59-8.47,5.32-6.17,11.83-3.57,17.24,9.26,19.25,4.89,37.47-2.85,56.22-5.48-3.92-10.71-7.41-15.63-11.28-3-2.37-5.33-5.69-8.43-8-4.33-3.16-5.33-7-4.48-12,.82-4.82,1.18-9.73,1.68-14l8.76-2.76-.36-2-10.2-4.67,7.86-7.08c-16.14,2.57-20.11,6.64-23.17,20.8-1.64,7.59-3.94,15.09-11.65,18.26,0-1.11,0-2.22,0-3.33,0-7-2.79-10.6-7.78-14.14-2.72-1.93-4.81-4.74-7.19-7.15-2.63-1.26-5.91-2.47-6.9-4.69-3-6.76-4.58-14.17-7.8-20.8-1.85-3.8-5.83-6.56-8.86-9.8l-1.83,1.64a14.81,14.81,0,0,1,1.49,2.33c1,2.34,1.84,4.73,2.75,7.09-2.33-.82-4.82-1.36-7-2.54a71.77,71.77,0,0,1-7.14-5.08c-.51.53-1,1.05-1.52,1.58,3.07,3.56,6.15,7.12,10.37,12l-14.9-2.12-.93,2.21c4.77,2.52,9.61,4.9,14.25,7.63,1.54.9,3.5,2.62,3.64,4.11.8,8.36,1.06,16.43-7.94,21.66-3.74,2.17-6.22,6.5-9.38,10-9-13.81-18.12-27.72-27-41.83a22.26,22.26,0,0,1-2.67-8.86c-1.24-9.73-2.4-19.48-3.08-29.26-.41-5.75-5.31-4.81-8.36-6.66-1.25,3.21-6.89,4.46-3.92,9.67,1.12,2,.95,4.66,1.37,7l-1.29.29c-1.6-1.75-3.21-3.49-5.3-5.76,3.14,11.21,6,21.47,8.89,31.73a4,4,0,0,0,.34.64c9.23,18.61,18.56,37.18,27.62,55.88,2.68,5.52-1.69,12.1-9,13.14.49-11.93-3-22.2-15-26.7s-21.87.93-30.54,9.81c.23-4.42.73-8.29.56-12.13-.19-4.09-.18-8.52-1.76-12.14-3.06-7-1.86-12.8,1.89-19.09s-1.53-17.49-7.79-18.55c-4.26-6,4-14.31-4.31-19.51-10.52,4.62-7.08,13.27-6.2,21.45-7.57-9.71-16.19-18.49-17-31.91a55.08,55.08,0,0,0-4.45-17.44c-1.63-3.89-5.21-7-7.91-10.41l-2.16,1.73,5,9.92-12.81-7.82-2.31,1.09c1.05,5.62,1.18,11.62,3.34,16.77,4.28,10.24,10,19.84,14.51,30,5,11.29,8.85,23.05,13.79,34.36,3.31,7.58,4,14-1.13,21.47-4.19,6-6.08,13.66-9.22,20.46-1.53,3.32-3.62,6.38-5.54,9.71-4.27-3.09-5.62-5.25-2.24-9.39,1.85-2.26,2-6.4,1.88-9.66-.15-5.23-1.56-10.42-1.66-15.64-.38-19.05-10.18-28.48-29.06-27.61-.37,0-.77-.47-1.5-1,.85-2.37,1.71-4.84,2.62-7.29,3.24-8.79,8.22-17.07,2.86-27.19-2.08-3.92-2.88-6.14-6.59-3.22-7-8.31,3.22-19.94-6.81-27.52-6.09,3.64-7.09,9.64-6.07,15.52,1.46,8.48,4.36,16.7,6.15,25.14.6,2.79.63,6.46-.71,8.77-7,12.13-14.61,24-22,35.86a38.73,38.73,0,0,1-3.56,4.07c2.44-29.43-18-46.21-32.71-66l7.19-8.93-7.51,2.83c3.41-11.76,3.41-11.76-.31-15.08l-5.38,6.77c1.29-13.8,2-26.12-2.55-38.15-2,3.61-2.54,7.29-3.34,10.91-1,4.65-2.15,13.23-3.38,13.26-7.82.16-5.89,6.67-8.15,10.3-2.47,4-2.62,7.39.85,11.12,1.62,1.74,1.91,4.71,2.8,7.12l-1.88.61-5.85-5.49c-3,5.9,5.4,12.17-1.73,16.24l-6.77-5.62c.71,5.8.85,9.89,1.77,13.79,1.57,6.66-1.64,11.48-7,13.39-7.81,2.82-12.44,8.16-17.56,14.18-3.2,3.76-2.17,8.16-4.34,10.9-3.5,4.42-1.8,7.14.24,11a73.44,73.44,0,0,1,5.8,14.39c.37,1.28-2.06,3.37-3.21,5.08-1.74-1.18-4.64-2.06-5.05-3.59-2.52-9.56-4.71-19.23-6.49-28.95a18.35,18.35,0,0,1,1.1-9.18c8-21.27,16.2-42.44,24.24-63.69.66-1.74,1.32-4.18.61-5.63-4.12-8.42.4-13.56,6.28-18.45a23.24,23.24,0,0,0,2.94-3.69l-1-1.38-14,9.17-2-1.89q5.59-7.89,11.17-15.79L779,738.48l-13.9,10.93c-5.52-6,2.54-11.47.6-19.16l-8.11,12.36-2-8.84c-3.6,6.89-2.34,13.06.18,19.6,3.58,9.34,9,19.31,3.54,29.22-9.25,16.84-19.67,33-30.55,51.09-1.79-6.22-4.16-11.71-4.83-17.4-.8-6.83,0-13.83-.19-20.74a30.24,30.24,0,0,0-1.36-8.75c-.27-.83-3.31-1.66-4.37-1.12-3,1.55-3.84,1.61-4.2-1.48-.53-4.5-.74-9-1.12-13.9l-5.07,6.25c.41-4.27.69-7.08.93-9.9,0-.14-.31-.31-.52-.51l-7.08,1.72c1.53,29-10.63,54.13-23.22,77.84-3.51-7.53-6.6-15.66-10.93-23.06-6.58-11.27-14.22-21.93-21-33.12-1.37-2.28-1.53-5.93-.9-8.63,1.72-7.38,4.66-14.48,6.18-21.89,1.64-8.06-2-12.1-10-12.92-5,4.86-4.25,9.9-1.65,15.62,1.16,2.55.19,6.07.19,10.32l-6.67-4.13c-5.37,11.67-5.36,11.66-1.39,21.93q8,20.52,15.87,41.07c-6.65-5.17-13.25-9.66-21-7.54-6.91,1.9-13.09,6.41-20.36,10.16-1.12-4.12-2.51-9.65-4.12-15.13-2.59-8.8-4.61-18-14.35-22.28a5,5,0,0,1-2.33-3.87c.23-7.49-.8-15.58,1.69-22.31,3.82-10.31.87-20.48,2.2-30.59a52,52,0,0,0,.07-8.15l-8.84-3.7c-6.23,6.66-7.94,16.11-6.51,25.23,1.57,10,1,18.92-2.85,28.27a72.83,72.83,0,0,0-5.61,22.38c-1.11,16.6-.85,33.29-1.37,49.94-.08,2.66-.51,6.1-2.18,7.8-7.77,7.87-16,15.25-24.45,23.12-3.89-14.5-10.37-27.39-25.55-34.17,2.31-4,3.89-7.29,5.9-10.23,7.11-10.4,7.18-12.53-.89-24.44-1.55,2.8-3.2,4.77-3.73,7-.66,2.78-.4,5.78-.53,8.68l-1.71.29-5.63-7.83c.41,4.93.68,8.05,1,12.45-6.41-4.93-12.08-6.88-16.11-1.84L483,825c-8.44,2.37-7.41,8-6.53,13.56,1,6.37,2.22,12.74,2.68,19.16.17,2.29-1.58,4.72-2.46,7.09l-2.89.26-19.54-40.2-1.47,5.84-2-.47,1.54-9.78c-1-.34-3-.45-4-1.5-4-4.16-10.27-4.78-12.62-.13s-4.46,10.14-3.93,15c1.06,9.65-.75,17.63-7.42,24.71-5,5.25-10.23,10.41-14.13,16.41-4.95,7.61-8.64,16-13,24.32-6.64-2.12-10.23-7.38-10-15.86.17-6.26-.9-12.55-1.19-18.84-1.11-24.33-10-45.45-25-64.53-4.31-5.5-7-12.54-9.36-19.24-2.47-7-3.39-14.54-5.54-21.68-1-3.19-3.28-6-5-8.92l-1.86.84c.45,2.28.89,4.57,1.4,7.19L333,754.58c-1.1,4.95-3.7,9.57-2.56,12.91,3.21,9.42,7.93,18.33,12.1,27.42,1.31,2.84,3.05,5.5,4.11,8.42,5.48,15,11.08,30,15.95,45.15a14.76,14.76,0,0,1-1.37,11.21c-4.17,6.29-8.93,13-7.83,20.1,1.23,8-3.86,10.25-6.91,14.59.81-5.48,3.32-10.61,3.34-15.74a118,118,0,0,0-2.67-24.25c-2.31-11.24-10.2-18.53-20.56-18-6.72.35-13.3,3.5-19.63,5.3,5.22-12.78,10.48-27,19.39-40,4.05-5.87,4.51-14.2,6.6-21.42l-2.79-1.19-6.47,7.26-2.31-.71c1.14-5.6,1.33-11.65,3.69-16.68,2.57-5.5,2.28-9.11-4.23-13.88-3,6.56-6.93,12.38-8.3,18.75-1.5,6.95-.57,14.4-.9,21.63-.11,2.57,0,5.72-1.36,7.59-9.23,12.6-18.83,24.93-28.5,37.61-2.55-4.36-5.32-8.07-7-12.21-4.33-10.5-8.87-20.79-2.32-32.58,3.31-5.95,4.23-13.32,5.72-20.16.5-2.31-.56-5-.9-7.46l-3.08-.28c-2,6.5-4.06,13-6.29,20.1-2.22-3.77-4.23-4.87-5.4.25-1.53,6.68-3.17,13.33-5.17,21.73-10.49-9.64-20.21-17.87-29.06-27-5.24-5.4-4.75-12.42-.18-16.21L221,764.57l.18-.91h7.49l.63-1.67c-3.1-1.21-6.13-2.64-9.31-3.59-5.07-1.51-4.88-4-1.57-7.14a70.73,70.73,0,0,1,5.91-4.5l-1-2-12.87,5.1c-1.1-3.5-2.18-6.92-3.75-11.88l-7,17.34c.43,3,1.61,6.06,1.16,8.9A59.87,59.87,0,0,1,189,791.94c-10.82,14.14-21,28.78-31.42,43.17-9.62-7.54-11.1-15.21-4.82-23.55-1.39-4.29-3.47-7.59-3.27-10.76.34-5.44,2.2-10.77,3.19-16.2a60,60,0,0,0,.49-7.5l-1.73-.19L96.14,868.29c-5.21-6.54-10.31-13.29-15.79-19.74-5.1-6-7.93-12.71-7.73-20.57.12-5.07.82-10.12.8-15.18,0-5.55-.55-11.1-.86-16.65l-2.39.26c-.4,2.11-.8,4.21-1.26,6.68l-8.2-9.62-1.1,1.09q3,7.94,6,15.87l-2.85,1.82c-3.43-4.44-6.87-8.87-10.36-13.37-3.34,7.19-5.94,12.78-8.53,18.33-3.52-3.36-3.3-22.68.41-25.57.19-.15.46-.18.66-.31,2.71-1.88,5.65-3.52,8-5.74a7.59,7.59,0,0,0,2.34-5.22c0-.9-2.77-2.24-4.38-2.41-3.48-.37-7-.11-12.27-.11,2.45-2.73,3.53-3.88,4.55-5.09s2-2.46,3.24-4.07c-6.44.18-13.39,4.71-15.52,9-6.48,13-12.82,26.08-24.85,35.24a50.68,50.68,0,0,0-9.2,9.25c-12,15.49-23.1,31.39-18.89,52.74.25,1.27-.14,2.65-.38,6.11-9-10.59-19.15-17.54-18.73-32,.23-8-1-16.75-9.58-24.46-.25,5-.55,8.31-.55,11.65,0,3.8,1.65,8.35.1,11.25-4.23,7.89-3.15,14.7.93,20.82l-21,2.42c5.06-19.2-.66-35-12.19-49.59-8.47,5.32-6.18,11.83-3.57,17.24,9.26,19.25,4.89,37.47-2.85,56.22-5.48-3.92-10.71-7.41-15.63-11.28-3-2.37-5.33-5.69-8.43-8-4.33-3.16-5.33-7-4.48-12,.82-4.82,1.18-9.73,1.68-14l8.76-2.76-.36-2-10.2-4.67,7.86-7.08c-16.14,2.57-20.11,6.64-23.17,20.8-1.86,8.57-4.53,17-14.88,19.27v173H2325.79C2325.79,986.69,2325.63,927.57,2326,868.45ZM-94.39,919.66c-2,12.23-4.45,14.32-11.64,15.1,1.94-8.54,3.85-16.94,6.15-27C-97.81,912-93.82,916.2-94.39,919.66Zm22.19,16.63V924.08C-68.73,928.2-65.07,932.34-72.2,936.29Zm40.92-4.61c-2.6-.93-5.19-1.91-9.21-3.39,2.52-14.75,8.16-29.52.88-44.81l2.84-.73c1.45,1.89,3,3.69,4.31,5.68,3.92,6.07,8.31,12,11.42,18.42,2.33,4.85,3.36,10.45,4.21,15.84C-16.31,925.93-28,932.86-31.28,931.68Zm65.17-87.15c-8.77,8.92-18.42,17-27.78,25.41-7.92-6.45-7.06-12.13-2.57-19.18,5.82-9.14,10.31-19.12,15.44-28.7,1.24-2.33,2.72-4.53,5.12-8.47,5,7,10.17,12.78,13.22,19.5C38.6,835.91,36.46,841.92,33.89,844.53Zm119.76,28.75c-19.34-9-29,1.92-36,20.29-2.39-9.87-4.14-16.82-.62-24.68,5.89-13.18,10.68-26.86,16.27-41.18C150.48,843,154.94,853,153.65,873.28ZM186,840.53l3.06,6.75c-6.74,3.78-3.35,6.86-.55,12.15,3.4,6.43,3.14,14.79,4.46,22.31l-3.09,1.15c-1.2-1.61-2.78-3.07-3.54-4.87-2.8-6.65-5.67-13.31-7.8-20.18a14.94,14.94,0,0,1,.2-9.49c6.85-16.19,14.11-32.21,21.4-48.22,1.73-3.82,4.08-7.37,6.47-11.63,3.83,2.87,8.33,4.48,9.07,7.13,2.2,7.92,2.93,16.25,4.29,24.83C201.7,816.72,195.42,830.92,186,840.53Zm71.59,5c-1.2,8.7-5.81,17-9.7,25.23-2.41,5.08-6.12,2.6-9.47.31,1.93-9.11,3.86-18,5.66-26.94.25-1.23.39-2.94-.26-3.83-4.45-6.09-9.13-12-13.81-18.11,1.09-2.89,2.27-6,3.81-10.09,2,2.76,4,5.33,5.82,8,2.79,3.93,5.47,7.95,8.31,11.84C251.31,836.55,258.12,841.55,257.57,845.57Zm139.34,89-1.4,16.82-21,3.5,9.81-44.14,8.41,4.2,5.6,10.51Zm54.37-57.84a4.06,4.06,0,0,1-3.45,1.68c-5.9-1.52-11.71-3.4-18.67-5.49L441,850.07l16.8,13.33C456,867.13,453.82,872,451.28,876.7Zm122.24,51c-3-2.64-6.43-4.91-8.82-8A148.73,148.73,0,0,1,554.48,904a4.86,4.86,0,0,1,.54-4.35c3.4-4.32,7.13-8.37,11.48-13.38,3.21,14,6.18,27,9.15,40.05Zm27.29-59-6.79-15,8.46-7.32c1.06,7.64,2,14.24,2.89,20.85ZM710.64,791.2l1.85,0v23C704.39,806.5,711,798.89,710.64,791.2Zm16.09,79.86c-23.05-7-23.55-5.64-36.05,17-4.06-26.36,10.73-47.86,11.88-71.93l3-.66c7,12.79,14.73,25.29,20.79,38.53C728.53,858.73,726.73,865.24,726.73,871.06Zm77.79-52L813.94,840l-1.12.48L798.7,827C799.76,825.55,801.68,822.91,804.52,819Zm15,53.61c-.77,1-4.88,1.07-5.6.13a9.74,9.74,0,0,1-1.63-6.83c.87-5.41,2.48-10.7,4.17-17.57,2.71,5.5,5.94,10.16,7.14,15.29C824.21,866.25,821.54,870,819.53,872.63Zm151.23,58.15c-8.29-3.56-10.68-9.25-8-18.11,1.57-5.13,1-10.92,1.36-16.49,3.13,11.67,6.19,23.1,9.43,35.2A28.18,28.18,0,0,1,970.76,930.78Zm170.52-11.12c-2,12.23-4.45,14.32-11.64,15.1,1.94-8.54,3.85-16.94,6.15-27C1137.86,912,1141.85,916.2,1141.28,919.66Zm22.19,16.63V924.08C1166.94,928.2,1170.6,932.34,1163.47,936.29Zm40.92-4.61c-2.6-.93-5.19-1.91-9.2-3.39,2.51-14.75,8.15-29.52.87-44.81l2.84-.73c1.45,1.89,3,3.69,4.31,5.68,3.93,6.07,8.31,12,11.42,18.42,2.33,4.85,3.36,10.45,4.21,15.84C1219.36,925.93,1207.67,932.86,1204.39,931.68Zm65.18-87.15c-8.78,8.92-18.43,17-27.79,25.41-7.92-6.45-7.06-12.13-2.57-19.18,5.82-9.14,10.31-19.12,15.44-28.7,1.24-2.33,2.72-4.53,5.12-8.47,5,7,10.17,12.78,13.23,19.5C1274.27,835.91,1272.13,841.92,1269.57,844.53Zm119.75,28.75c-19.34-9-29,1.92-36,20.29-2.39-9.87-4.14-16.82-.62-24.68,5.9-13.18,10.68-26.86,16.27-41.18C1386.15,843,1390.61,853,1389.32,873.28Zm32.33-32.75,3.06,6.75c-6.74,3.78-3.35,6.86-.55,12.15,3.4,6.43,3.14,14.79,4.46,22.31l-3.09,1.15c-1.2-1.61-2.78-3.07-3.54-4.87-2.8-6.65-5.67-13.31-7.8-20.18a14.94,14.94,0,0,1,.2-9.49c6.85-16.19,14.12-32.21,21.4-48.22,1.74-3.82,4.08-7.37,6.47-11.63,3.83,2.87,8.33,4.48,9.07,7.13,2.2,7.92,2.93,16.25,4.29,24.83C1437.37,816.72,1431.09,830.92,1421.65,840.53Zm71.59,5c-1.2,8.7-5.81,17-9.7,25.23-2.41,5.08-6.12,2.6-9.47.31,1.93-9.11,3.86-18,5.66-26.94.25-1.23.39-2.94-.26-3.83-4.45-6.09-9.13-12-13.81-18.11,1.09-2.89,2.27-6,3.81-10.09,2,2.76,4,5.33,5.82,8,2.79,3.93,5.47,7.95,8.31,11.84C1487,836.55,1493.79,841.55,1493.24,845.57Zm139.34,89-1.4,16.82-21,3.5,9.81-44.14,8.41,4.2,5.6,10.51ZM1687,876.7a4.06,4.06,0,0,1-3.45,1.68c-5.9-1.52-11.71-3.4-18.67-5.49,4.26-8.18,8-15.29,11.87-22.82l16.8,13.33C1691.7,867.13,1689.49,872,1687,876.7Zm122.24,51c-3-2.64-6.43-4.91-8.82-8a148.73,148.73,0,0,1-10.22-15.7,4.86,4.86,0,0,1,.54-4.35c3.4-4.32,7.13-8.37,11.48-13.38,3.21,14,6.18,27,9.15,40.05Zm27.29-59-6.79-15,8.46-7.32c1.06,7.64,2,14.24,2.89,20.85Zm109.83-77.56,1.85,0v23C1940.06,806.5,1946.64,798.89,1946.31,791.2Zm16.09,79.86c-23.05-7-23.55-5.64-36.05,17-4.06-26.36,10.73-47.86,11.88-71.93l3-.66c7,12.79,14.73,25.29,20.79,38.53C1964.2,858.73,1962.4,865.24,1962.4,871.06Zm77.79-52,9.42,20.94-1.12.48L2034.37,827C2035.43,825.55,2037.35,822.91,2040.19,819Zm15,53.61c-.77,1-4.88,1.07-5.6.13a9.74,9.74,0,0,1-1.63-6.83c.87-5.41,2.48-10.7,4.17-17.57,2.71,5.5,5.94,10.16,7.14,15.29C2059.88,866.25,2057.21,870,2055.2,872.63Zm151.23,58.15c-8.29-3.56-10.68-9.25-8-18.11,1.57-5.13,1-10.92,1.36-16.49,3.13,11.67,6.19,23.1,9.43,35.2A28.18,28.18,0,0,1,2206.43,930.78Z"/></g></svg>