<svg id="Layer_1" data-name="Layer 1" xmlns="http://www.w3.org/2000/svg" viewBox="0 0 1920 1080"><defs><style>.cls-1{fill:#b3b3b3;}</style></defs><title>1</title><path class="cls-1" d="M122.75,134.5a47.37,47.37,0,0,1-8.64.57c-3.24-.07-6.69-.65-9-.65a16.72,16.72,0,0,0-3.17.15,3.21,3.21,0,0,1-1.08-2.23,93.13,93.13,0,0,0,7.85-7.13c8.5-8.86,11.31-12.89,11.31-16.13,0-2.38-.79-3.31-2.59-3.31-3,0-7.93,3.6-10.23,6.91a5.84,5.84,0,0,1-1.37-3.53c3.1-3.82,9.8-7.42,14-7.42,3.46,0,5.84,1.66,5.84,5.12,0,5.68-7.85,14.11-17,23.18-.14.15.15.72.44.72,3.45.15,6.69.58,8.64.58a37.57,37.57,0,0,0,7.84-.65A6.13,6.13,0,0,1,122.75,134.5Z"/><path class="cls-1" d="M147.88,127.44c-4.82,5.11-9.57,7.49-13.61,7.49s-6.26-1.44-6.26-6.55c0-9.15,10.37-21.82,16.92-25.64a6.17,6.17,0,0,1,2.45,1.3,13.54,13.54,0,0,1,4-.65c1.51.29,4.25,2.3,4.25,6.84C155.66,116.21,152.63,122.47,147.88,127.44Zm-2.52-20.88c-3.45,2.16-12,11.23-12,20.38,0,2.23,1.51,3.74,3.16,3.74,2.45,0,5.41-1.51,7.85-4,3.6-3.6,6.48-9.07,6.48-14.11C150.83,108,147.88,106.56,145.36,106.56Z"/><path class="cls-1" d="M185.18,120.38c-4.68,6.7-8.5,14.33-9,16.2a9.23,9.23,0,0,1-3.1,1.66,7,7,0,0,1-2.74-2.66c2.74-4,6.12-8.86,9.72-13.69-2.95-10.58-5.9-19.22-7.05-21.24a10,10,0,0,1,2.88-2.52,5.59,5.59,0,0,1,3,1.51c1.22,3.89,2.52,9.65,4.9,17.21A172.25,172.25,0,0,1,196.12,102a20.42,20.42,0,0,1,3.17-1.3,3.66,3.66,0,0,1,1.22.43,5.58,5.58,0,0,1,.44.72A115.16,115.16,0,0,0,185.18,120.38Z"/><path class="cls-1" d="M204.54,110.3c3.17,0,5.91.72,6.05,3.31.15,4.11-6,7.85-13.75,7.85a18.57,18.57,0,0,0-1.8,7.35c0,1.65.14,3.24,1.73,3.24,2.88,0,7.2-3.24,9.79-5.47a3.65,3.65,0,0,1,.65,2.59c-3.1,2.66-9.79,6.77-13.32,6.77-2.74,0-4.18-1.44-4.18-4.18,0-6.48,5.55-16,11.59-20.88A13.59,13.59,0,0,1,204.54,110.3ZM197.92,119c3.89,0,8.14-1.29,8.14-4.24,0-1.44-1.3-2-3.39-2A26.29,26.29,0,0,0,197.92,119Z"/><path class="cls-1" d="M229.6,112.61c.72-.44,1.51-.87,2.31-1.3a4.42,4.42,0,0,1,1.87,1c-2.31,5-5.91,13-5.91,17.57,0,1,.36,1.58.87,1.58.72,0,2.45-1,3.74-2.09a5.93,5.93,0,0,1,.58,2c-1.95,1.66-6.63,4.82-8.64,4.82-.58,0-1.37-.72-1.37-2.3a23.91,23.91,0,0,1,1.51-7.49c.07-.22-.36-.5-.65-.14-4.68,5.11-9.86,9.21-13.17,9.21-.8,0-1.66-.86-1.66-2.73,0-5.33,3.53-13,11.66-18.87,1.95-1.37,4.47-2.66,6-2.66A7.3,7.3,0,0,1,229.6,112.61Zm-15,16.34c0,.72.08,1.23.58,1.23,2.3,0,7.92-4.9,12.38-13.83a4.71,4.71,0,0,0-2.44-2.09C222.4,114.26,214.62,122.83,214.62,129Z"/><path class="cls-1" d="M242.63,128.74a50.7,50.7,0,0,0-2.88,5.68,11.8,11.8,0,0,1-2.73,1.37,4.74,4.74,0,0,1-2.38-.93c2.81-6.56,5.33-13.76,5.4-16.42a9.42,9.42,0,0,0-.72-4.11,5.39,5.39,0,0,1,5.11-2.66,7.93,7.93,0,0,1,.36,3,25.73,25.73,0,0,1-1.37,6.84c-.21.43.44.51.58.36,5.9-7.7,10.73-12.24,12.75-12.24a9.66,9.66,0,0,1,3.24,1.73,8.71,8.71,0,0,1-.65,3.24,6.09,6.09,0,0,1-2.81,1.15,4.54,4.54,0,0,1-1.94-1.44C253.07,114.77,248.39,119.37,242.63,128.74Z"/><path class="cls-1" d="M275.9,111.67a6.19,6.19,0,0,1,.21,1.8,6,6,0,0,1-2.95,2.09c-.72-.43-2.66-1.73-3.6-1.73a3,3,0,0,0-1.51.5,6,6,0,0,0-2.52,4.25c0,1.08.43,1.51,3.74,1.8,3.46.36,5.33,1.3,5.33,3.75,0,5.11-7.63,11.66-15,11.66-3.67,0-4.68-.72-4.68-1.87,0-1.66.22-3,2.38-6.77.29,0,.72-.07,1.15-.07a2.83,2.83,0,0,1,1.44.21,11.27,11.27,0,0,0-1,3.89c0,1,.87,1.66,2.67,1.66,4.32,0,7.7-3.38,7.7-6.91,0-1.23-.57-1.66-4-1.88s-4.61-.93-4.61-2.8c0-3.46,6.27-10.8,10.37-10.8A14.1,14.1,0,0,1,275.9,111.67Z"/><path class="cls-1" d="M308.58,90.28a5.6,5.6,0,0,1,1.08,1.59c-2.44,5.33-7.56,16-11.16,25.78-2.45,6.62-2.73,9.43-2.73,12.17a6.71,6.71,0,0,0,.5,2.8,9.92,9.92,0,0,1-.65,1.95,15.39,15.39,0,0,1-4.1,1.65,2.38,2.38,0,0,1-1.08-2.16c0-4.89,1.73-10.94,6.12-21.89,4-10,7.2-17.42,7.42-19.87A6.76,6.76,0,0,1,308.58,90.28Z"/><path class="cls-1" d="M321.9,112.61c.72-.44,1.52-.87,2.31-1.3a4.36,4.36,0,0,1,1.87,1c-2.3,5-5.9,13-5.9,17.57,0,1,.36,1.58.86,1.58.72,0,2.45-1,3.74-2.09a5.93,5.93,0,0,1,.58,2c-1.94,1.66-6.63,4.82-8.64,4.82-.58,0-1.37-.72-1.37-2.3a23.91,23.91,0,0,1,1.51-7.49c.08-.22-.36-.5-.65-.14-4.68,5.11-9.86,9.21-13.17,9.21-.79,0-1.66-.86-1.66-2.73,0-5.33,3.53-13,11.67-18.87,1.94-1.37,4.46-2.66,6-2.66A7.24,7.24,0,0,1,321.9,112.61Zm-15,16.34c0,.72.07,1.23.57,1.23,2.31,0,7.92-4.9,12.39-13.83a4.69,4.69,0,0,0-2.45-2.09C314.7,114.26,306.93,122.83,306.93,129Z"/><path class="cls-1" d="M344.15,97.77a4.4,4.4,0,0,1,1.73,1.73A132.71,132.71,0,0,0,339.62,112c1.94,0,5.68-.07,8.28-.29a4.85,4.85,0,0,1-1.16,2.16,59.18,59.18,0,0,1-8.56,1.37c-3.39,8.21-4.61,12.09-4.61,14.18,0,1.16.21,1.59.72,1.59,1.36-.07,4.1-1.59,7.56-4.25a4.45,4.45,0,0,1,.65,2.45c-4.54,3.24-9.8,6.55-12.1,6.55-1.08,0-1.95-1.22-1.95-3.1,0-2.73,1.88-9,5.4-17.06-1.51,0-3.74.07-5,.07a4.45,4.45,0,0,1,1.08-2.16c1.59-.43,3.32-.65,5.33-1.08,1.88-4.1,4.9-11.45,4.68-12.53A11.28,11.28,0,0,1,344.15,97.77Z"/><path class="cls-1" d="M359.49,110.3c3.17,0,5.9.72,6.05,3.31.14,4.11-6,7.85-13.76,7.85a18.57,18.57,0,0,0-1.8,7.35c0,1.65.15,3.24,1.73,3.24,2.88,0,7.2-3.24,9.79-5.47a3.65,3.65,0,0,1,.65,2.59c-3.1,2.66-9.79,6.77-13.32,6.77-2.74,0-4.18-1.44-4.18-4.18,0-6.48,5.55-16,11.6-20.88A13.5,13.5,0,0,1,359.49,110.3ZM352.86,119c3.89,0,8.14-1.29,8.14-4.24,0-1.44-1.3-2-3.39-2A26.29,26.29,0,0,0,352.86,119Z"/><path class="cls-1" d="M372.59,128.74a49,49,0,0,0-2.88,5.68,11.88,11.88,0,0,1-2.74,1.37,4.7,4.7,0,0,1-2.37-.93c2.8-6.56,5.33-13.76,5.4-16.42a9.42,9.42,0,0,0-.72-4.11,5.39,5.39,0,0,1,5.11-2.66,7.93,7.93,0,0,1,.36,3,25.73,25.73,0,0,1-1.37,6.84c-.21.43.43.51.58.36,5.9-7.7,10.73-12.24,12.74-12.24a9.47,9.47,0,0,1,3.24,1.73,8.52,8.52,0,0,1-.65,3.24,6.06,6.06,0,0,1-2.8,1.15,4.62,4.62,0,0,1-1.95-1.44C383,114.77,378.35,119.37,372.59,128.74Z"/><path class="cls-1" d="M331.43,350.81a.61.61,0,0,0-.28.79c4.17,8.06,7.48,12.67,11.37,14.47a4.35,4.35,0,0,1-3.53,3.6c-1.44.22-2.88-1.08-3.52-1.87-2.67-3-7.35-10.87-10.23-16.92-.07-.22.07-.87.51-.87,2.73-.79,7.48-2.3,10.58-4.6,2.16-1.66,3.74-3.68,3.82-6,0-2.66-4.83-4.9-9.08-5.55a120.2,120.2,0,0,0-7.27,16,87.31,87.31,0,0,0-4,15.05,9.07,9.07,0,0,1-4.1,1.15,3.85,3.85,0,0,1-1.3-2.23A137,137,0,0,1,320,348.07c1.73-4.39,4.69-10.95,6.77-14.83a40.14,40.14,0,0,0-4.53-.51c0-1,2.16-2.88,2.95-3.31a62.92,62.92,0,0,1,11.45,1.73c4.39,1.22,8.93,3.53,8.93,7.49C345.55,343.89,337.7,348.79,331.43,350.81Z"/><path class="cls-1" d="M358.86,344.18c1.3-1.29,3.1-2.3,4-2.3,1.23.43,2.24,1.58,2.24,4.17,0,8.72-9.72,20.74-16.2,20.74-2.6,0-4-2.09-4-5.18,0-7.78,8.07-16.56,11.38-18.65A3.77,3.77,0,0,1,358.86,344.18Zm-9.14,14.76c0,3,1,3.46,2.59,3.46,2.88,0,8.28-8.14,8.28-13.75a3.73,3.73,0,0,0-2.59-3.89C353.46,347.71,349.72,354.33,349.72,358.94Z"/><path class="cls-1" d="M384.35,344.4a9.36,9.36,0,0,1,2.67-1.73,5,5,0,0,1,1.87,1.66c-1.8,2.59-4.83,15.12-8.57,25.92-3.46,9.94-11.45,18-18.22,18.86-2.09-.07-5.4-2.23-7.06-3.45a6.79,6.79,0,0,1,.65-2.16,8.7,8.7,0,0,1,3.24-1.44c.8,1,3.82,3.89,5.55,4,4-1.73,7.27-4.83,11.45-15.84,1.44-4.11,3.74-11.31,4.68-14.26.14-.5-.36-.58-.58-.29-4.1,4.75-9.58,10-13,10-.65,0-1.59-.79-1.59-2.88,0-9.43,10.8-20.52,15.2-20.52A8,8,0,0,1,384.35,344.4Zm-13.68,14c0,.86.29,1.58.79,1.58,1.73,0,9.15-7.34,10.87-12-.5-.87-2.08-2.52-3.09-2.52C377.15,345.48,370.67,352.89,370.67,358.44Z"/><path class="cls-1" d="M403.94,341.3c3.16,0,5.9.72,6,3.31.15,4.11-6,7.85-13.75,7.85a18.57,18.57,0,0,0-1.8,7.35c0,1.65.14,3.24,1.73,3.24,2.88,0,7.2-3.24,9.79-5.47a3.65,3.65,0,0,1,.65,2.59c-3.1,2.66-9.79,6.77-13.32,6.77-2.74,0-4.18-1.44-4.18-4.18,0-6.48,5.55-16,11.6-20.88A13.5,13.5,0,0,1,403.94,341.3ZM397.31,350c3.89,0,8.14-1.29,8.14-4.24,0-1.44-1.3-2-3.39-2A26.29,26.29,0,0,0,397.31,350Z"/><path class="cls-1" d="M417,359.74a49,49,0,0,0-2.88,5.68,11.88,11.88,0,0,1-2.74,1.37,4.78,4.78,0,0,1-2.38-.93c2.81-6.56,5.33-13.76,5.41-16.42a9.57,9.57,0,0,0-.72-4.11,5.39,5.39,0,0,1,5.11-2.66,7.93,7.93,0,0,1,.36,2.95,25.73,25.73,0,0,1-1.37,6.84c-.22.43.43.51.58.36,5.9-7.7,10.72-12.24,12.74-12.24a9.47,9.47,0,0,1,3.24,1.73,8.71,8.71,0,0,1-.65,3.24,6,6,0,0,1-2.81,1.15,4.66,4.66,0,0,1-1.94-1.44C427.48,345.77,422.8,350.37,417,359.74Z"/><path class="cls-1" d="M450.3,342.67a5.92,5.92,0,0,1,.22,1.8,6.05,6.05,0,0,1-2.95,2.09c-.72-.43-2.67-1.73-3.6-1.73a3,3,0,0,0-1.52.5,6,6,0,0,0-2.52,4.25c0,1.08.44,1.51,3.75,1.8s5.33,1.3,5.33,3.75c0,5.11-7.64,11.66-15,11.66-3.67,0-4.68-.72-4.68-1.87,0-1.66.21-3,2.37-6.77.29,0,.73-.07,1.16-.07a2.85,2.85,0,0,1,1.44.21,11,11,0,0,0-1,3.89c0,1,.86,1.66,2.66,1.66,4.32,0,7.71-3.38,7.71-6.91,0-1.23-.58-1.66-4-1.88s-4.61-.93-4.61-2.8c0-3.46,6.26-10.8,10.37-10.8A14,14,0,0,1,450.3,342.67Z"/><path class="cls-1" d="M471.76,342.09a8.16,8.16,0,0,1,1.87,2.31c-.43,2.09-2.16,5.83-3.17,8.42-1.51,3.53-1.87,5-1.87,6.48,0,.65.22,1.08.65,1.08,1.8,0,4.47-2.09,7.34-5.4a57.41,57.41,0,0,0,7.71-11.66,8.69,8.69,0,0,1,2.45-.79,7,7,0,0,1,2,1.22c-1.87,4.32-3.74,9.58-3.74,14.26,0,1.73.29,3,1.3,3,3.81,0,10.65-10.22,10.65-14.18a6.3,6.3,0,0,0-.43-2.52,10.07,10.07,0,0,1,4.9-2,7.58,7.58,0,0,1,.65,3.17c-3.46,10.51-14.19,19.66-18.65,19.66-1.52,0-3.17-.36-3.17-4.47a27.43,27.43,0,0,1,1.15-6.48c.07-.36-.43-.5-.72-.29-4.61,5.48-11.09,11.88-15.19,11.88-1.08,0-1.88-.72-1.88-2.52a24.67,24.67,0,0,1,1.8-8.13c1.66-4.25,2.09-5.91,2.09-6.77a2.57,2.57,0,0,0-1.08-1.87,8.4,8.4,0,0,1,.65-2C468.45,343.53,470.68,342.09,471.76,342.09Z"/><path class="cls-1" d="M515.39,344.18c1.3-1.29,3.1-2.3,4-2.3,1.23.43,2.23,1.58,2.23,4.17,0,8.72-9.72,20.74-16.2,20.74-2.59,0-4-2.09-4-5.18,0-7.78,8.07-16.56,11.38-18.65A3.77,3.77,0,0,1,515.39,344.18Zm-9.14,14.76c0,3,1,3.46,2.59,3.46,2.88,0,8.28-8.14,8.28-13.75a3.73,3.73,0,0,0-2.59-3.89C510,347.71,506.25,354.33,506.25,358.94Z"/><path class="cls-1" d="M529.65,359.74a47.45,47.45,0,0,0-2.88,5.68,12.08,12.08,0,0,1-2.74,1.37,4.74,4.74,0,0,1-2.38-.93c2.81-6.56,5.33-13.76,5.4-16.42a9.42,9.42,0,0,0-.72-4.11,5.41,5.41,0,0,1,5.12-2.66,7.93,7.93,0,0,1,.36,2.95,25.73,25.73,0,0,1-1.37,6.84c-.22.43.43.51.57.36,5.91-7.7,10.73-12.24,12.75-12.24a9.47,9.47,0,0,1,3.24,1.73,8.71,8.71,0,0,1-.65,3.24,6.09,6.09,0,0,1-2.81,1.15,4.66,4.66,0,0,1-1.94-1.44C540.09,345.77,535.41,350.37,529.65,359.74Z"/><path class="cls-1" d="M560.54,353.4c-6.48,7.2-12.89,12.67-16.06,12.67-1.23,0-2.16-.93-2.16-3.09,0-9.44,13-20.53,17.28-20.53,1.3,0,3,1.37,4.32,2.88,2.66-6.33,6.26-15.26,8.35-21.45a4.52,4.52,0,0,0,.22-1.44A10.9,10.9,0,0,1,577,321a5.07,5.07,0,0,1,.79,3c-2.88,4.68-7.92,16.2-11.74,27.07-1.3,3.75-2.45,8-2.23,11.81.07,1.3.43,2.16.93,2.31a6.09,6.09,0,0,1-.21,2c-.94.87-3.24,2.24-4.39,2.24-.87-.65-1.23-2.67-1.23-4.47a39.45,39.45,0,0,1,2.16-11.23C561.26,353.4,560.68,353.25,560.54,353.4Zm-12.61,5.26c0,1.22.29,1.58.87,1.58,2.09,0,9.58-7.42,12.31-12.1-.5-1.29-1.94-2.52-2.88-2.52C555.86,345.62,547.93,353.83,547.93,358.66Z"/><path class="cls-1" d="M589.34,342.67a6.19,6.19,0,0,1,.21,1.8,6,6,0,0,1-2.95,2.09c-.72-.43-2.66-1.73-3.6-1.73a3,3,0,0,0-1.51.5,6,6,0,0,0-2.52,4.25c0,1.08.43,1.51,3.74,1.8s5.33,1.3,5.33,3.75c0,5.11-7.63,11.66-15,11.66-3.67,0-4.68-.72-4.68-1.87,0-1.66.22-3,2.38-6.77.29,0,.72-.07,1.15-.07a2.83,2.83,0,0,1,1.44.21,11.27,11.27,0,0,0-1,3.89c0,1,.87,1.66,2.67,1.66,4.32,0,7.7-3.38,7.7-6.91,0-1.23-.58-1.66-4-1.88s-4.61-.93-4.61-2.8c0-3.46,6.27-10.8,10.37-10.8A14.1,14.1,0,0,1,589.34,342.67Z"/><path class="cls-1" d="M615.4,344.18c1.3-1.29,3.1-2.3,4-2.3,1.23.43,2.23,1.58,2.23,4.17,0,8.72-9.72,20.74-16.2,20.74-2.59,0-4-2.09-4-5.18,0-7.78,8.07-16.56,11.38-18.65A3.77,3.77,0,0,1,615.4,344.18Zm-9.14,14.76c0,3,1,3.46,2.59,3.46,2.88,0,8.28-8.14,8.28-13.75a3.73,3.73,0,0,0-2.59-3.89C610,347.71,606.26,354.33,606.26,358.94Z"/><path class="cls-1" d="M631.6,342a3.49,3.49,0,0,1,1.58,1.3,20.93,20.93,0,0,1-1.43,4.53c-.08.29.5.44.71.29,2.88-2.95,7.06-5.61,8.86-5.61,1.23,0,3,1.94,3,4.82,0,8.71-9.94,19.37-15.05,19.37a8.81,8.81,0,0,1-4.47-1.51c-3.81,8.93-6.33,16.7-5.69,20.16a8.21,8.21,0,0,1-3.81,1.87c-.51-.21-1.73-.72-1.87-1.37.72-3.45,2.16-7.7,7.92-21.31,3.81-8.93,5.54-13.68,6.91-18.79a4.08,4.08,0,0,0,.14-1.88A6.31,6.31,0,0,1,631.6,342Zm-1.51,21.89c2.09,0,9.29-7.13,9.29-14.26,0-1.87-.87-2.37-1.51-2.37-.94-.07-6,3.38-8.57,7.85a25.63,25.63,0,0,0-2.67,6.05C627.78,362.76,629.44,363.91,630.09,363.91Z"/><path class="cls-1" d="M660.33,341.3c3.17,0,5.9.72,6,3.31.14,4.11-6,7.85-13.76,7.85a18.57,18.57,0,0,0-1.8,7.35c0,1.65.15,3.24,1.73,3.24,2.88,0,7.2-3.24,9.79-5.47a3.65,3.65,0,0,1,.65,2.59c-3.09,2.66-9.79,6.77-13.32,6.77-2.73,0-4.17-1.44-4.17-4.18,0-6.48,5.54-16,11.59-20.88A13.5,13.5,0,0,1,660.33,341.3ZM653.7,350c3.89,0,8.14-1.29,8.14-4.24,0-1.44-1.3-2-3.38-2A26.3,26.3,0,0,0,653.7,350Z"/><path class="cls-1" d="M672.78,343.25a23,23,0,0,1,3.24-.15,8.93,8.93,0,0,1,.15,1.37c0,2-.94,6.48-3,11.74-.14.43.44.43.72.21,8.28-9,14.33-13.61,16.64-13.61,1.15,0,1.44,1.23,1.44,2.88,0,3.39-4.11,10.95-4.11,14.41,0,1.22.22,1.8,1.8,2.66a4.48,4.48,0,0,1-.86,2.09,14.06,14.06,0,0,1-4.47,1.37c-1.15.14-1.44-.65-1.44-2.38,0-4,3.68-11.45,3.68-13.61,0-1-.22-1-.51-1-1.29,0-7.63,5.26-12.38,11.38-.72,1-2,3-2.59,3.89a6.15,6.15,0,0,1-3.32,1.15,5.94,5.94,0,0,1-2-.72c2.52-5.83,5-13.18,5-16.13a6,6,0,0,0-.72-3.17A9.35,9.35,0,0,1,672.78,343.25Z"/><path class="cls-1" d="M709.07,341.3c3.17,0,5.91.72,6,3.31.15,4.11-6,7.85-13.75,7.85a18.4,18.4,0,0,0-1.8,7.35c0,1.65.14,3.24,1.73,3.24,2.88,0,7.2-3.24,9.79-5.47a3.65,3.65,0,0,1,.65,2.59c-3.1,2.66-9.8,6.77-13.32,6.77-2.74,0-4.18-1.44-4.18-4.18,0-6.48,5.54-16,11.59-20.88A13.5,13.5,0,0,1,709.07,341.3ZM702.45,350c3.89,0,8.13-1.29,8.13-4.24,0-1.44-1.29-2-3.38-2A26.29,26.29,0,0,0,702.45,350Z"/><path class="cls-1" d="M732.33,353.4c-6.48,7.2-12.89,12.67-16.06,12.67-1.22,0-2.16-.93-2.16-3.09,0-9.44,13-20.53,17.28-20.53,1.3,0,3,1.37,4.32,2.88,2.67-6.33,6.27-15.26,8.36-21.45a4.82,4.82,0,0,0,.21-1.44,10.9,10.9,0,0,1,4.54-1.44,5.07,5.07,0,0,1,.79,3c-2.88,4.68-7.92,16.2-11.74,27.07-1.29,3.75-2.45,8-2.23,11.81.07,1.3.43,2.16.94,2.31a5.83,5.83,0,0,1-.22,2c-.94.87-3.24,2.24-4.39,2.24-.87-.65-1.22-2.67-1.22-4.47a39.45,39.45,0,0,1,2.16-11.23C733.05,353.4,732.47,353.25,732.33,353.4Zm-12.6,5.26c0,1.22.29,1.58.86,1.58,2.09,0,9.58-7.42,12.32-12.1-.51-1.29-1.95-2.52-2.89-2.52C727.65,345.62,719.73,353.83,719.73,358.66Z"/><path class="cls-1" d="M769.34,328.77a4.4,4.4,0,0,1,1.73,1.73A132.71,132.71,0,0,0,764.8,343c2,0,5.69-.07,8.28-.29a4.82,4.82,0,0,1-1.15,2.16,59.1,59.1,0,0,1-8.57,1.37c-3.38,8.21-4.61,12.09-4.61,14.18,0,1.16.22,1.59.73,1.59,1.36-.07,4.1-1.59,7.56-4.25a4.45,4.45,0,0,1,.64,2.45c-4.53,3.24-9.79,6.55-12.09,6.55-1.08,0-2-1.22-2-3.1,0-2.73,1.87-9,5.4-17.06-1.51,0-3.74.07-5,.07a4.36,4.36,0,0,1,1.08-2.16c1.59-.43,3.32-.65,5.33-1.08,1.87-4.1,4.9-11.45,4.68-12.53A11.28,11.28,0,0,1,769.34,328.77Z"/><path class="cls-1" d="M777.83,341.66c3.1-9.07,5.33-15.84,5.26-18.5a9.56,9.56,0,0,1,3.39-2.24,7.14,7.14,0,0,1,2.73.94c-1.94,5.26-3.31,8.71-6,16.06-1.08,2.95-4.32,11.59-5.26,13.89-.07.44.43.65.57.44,5.33-4.9,12.32-10.52,15.56-10.52a1.62,1.62,0,0,1,1.44,1.73c0,4.9-4.9,12.1-4.68,16.56a2.61,2.61,0,0,0,1.22,2,9.85,9.85,0,0,1-.79,2.16,10.84,10.84,0,0,1-4.75,1.66c-.51,0-1.08-.8-1.08-2,0-5.4,4.53-12.1,4.53-15.19,0-.51-.21-1.16-.64-1.16-2.31,0-8.93,5.84-12.68,12-1.37,2.3-1.8,3.31-2.95,5.61a11,11,0,0,1-3.67,1.16c-.29,0-.87-.58-1.23-.8C770.71,361.25,775,350,777.83,341.66Z"/><path class="cls-1" d="M811.82,341.3c3.17,0,5.9.72,6,3.31.14,4.11-6,7.85-13.76,7.85a18.57,18.57,0,0,0-1.8,7.35c0,1.65.15,3.24,1.73,3.24,2.88,0,7.2-3.24,9.79-5.47a3.65,3.65,0,0,1,.65,2.59c-3.09,2.66-9.79,6.77-13.32,6.77-2.73,0-4.17-1.44-4.17-4.18,0-6.48,5.54-16,11.59-20.88A13.5,13.5,0,0,1,811.82,341.3ZM805.19,350c3.89,0,8.14-1.29,8.14-4.24,0-1.44-1.29-2-3.38-2A26.3,26.3,0,0,0,805.19,350Z"/><path class="cls-1" d="M845.38,353.4c-6.48,7.2-12.89,12.67-16.06,12.67-1.23,0-2.16-.93-2.16-3.09,0-9.44,13-20.53,17.28-20.53,1.3,0,3,1.37,4.32,2.88,2.66-6.33,6.26-15.26,8.35-21.45a4.52,4.52,0,0,0,.22-1.44,10.9,10.9,0,0,1,4.54-1.44,5.07,5.07,0,0,1,.79,3c-2.88,4.68-7.92,16.2-11.74,27.07-1.3,3.75-2.45,8-2.23,11.81.07,1.3.43,2.16.93,2.31a6.09,6.09,0,0,1-.21,2c-.94.87-3.24,2.24-4.39,2.24-.87-.65-1.23-2.67-1.23-4.47A39.45,39.45,0,0,1,846,353.76C846.1,353.4,845.52,353.25,845.38,353.4Zm-12.61,5.26c0,1.22.29,1.58.87,1.58,2.09,0,9.58-7.42,12.31-12.1-.5-1.29-1.94-2.52-2.88-2.52C840.7,345.62,832.77,353.83,832.77,358.66Z"/><path class="cls-1" d="M869,344.18c1.3-1.29,3.1-2.3,4-2.3,1.23.43,2.23,1.58,2.23,4.17,0,8.72-9.72,20.74-16.2,20.74-2.59,0-4-2.09-4-5.18,0-7.78,8.06-16.56,11.38-18.65A3.77,3.77,0,0,1,869,344.18Zm-9.14,14.76c0,3,1,3.46,2.59,3.46,2.88,0,8.28-8.14,8.28-13.75a3.73,3.73,0,0,0-2.59-3.89C863.59,347.71,859.85,354.33,859.85,358.94Z"/><path class="cls-1" d="M889.94,344.18c1.3-1.29,3.1-2.3,4-2.3,1.23.43,2.23,1.58,2.23,4.17,0,8.72-9.72,20.74-16.2,20.74-2.59,0-4-2.09-4-5.18,0-7.78,8.07-16.56,11.38-18.65A3.77,3.77,0,0,1,889.94,344.18Zm-9.14,14.76c0,3,1,3.46,2.59,3.46,2.88,0,8.28-8.14,8.28-13.75a3.73,3.73,0,0,0-2.59-3.89C884.54,347.71,880.8,354.33,880.8,358.94Z"/><path class="cls-1" d="M904.2,359.74a47.45,47.45,0,0,0-2.88,5.68,12.08,12.08,0,0,1-2.74,1.37,4.74,4.74,0,0,1-2.38-.93c2.81-6.56,5.33-13.76,5.4-16.42a9.42,9.42,0,0,0-.72-4.11,5.41,5.41,0,0,1,5.12-2.66,7.93,7.93,0,0,1,.36,2.95,26.15,26.15,0,0,1-1.37,6.84c-.22.43.43.51.57.36,5.91-7.7,10.73-12.24,12.75-12.24a9.47,9.47,0,0,1,3.24,1.73,8.71,8.71,0,0,1-.65,3.24,6.09,6.09,0,0,1-2.81,1.15,4.66,4.66,0,0,1-1.94-1.44C914.64,345.77,910,350.37,904.2,359.74Z"/><path class="cls-1" d="M946.1,328.77a4.27,4.27,0,0,1,1.73,1.73A135.18,135.18,0,0,0,941.57,343c1.94,0,5.69-.07,8.28-.29a4.92,4.92,0,0,1-1.15,2.16,59.55,59.55,0,0,1-8.57,1.37c-3.39,8.21-4.61,12.09-4.61,14.18,0,1.16.22,1.59.72,1.59,1.37-.07,4.1-1.59,7.56-4.25a4.45,4.45,0,0,1,.65,2.45c-4.54,3.24-9.79,6.55-12.1,6.55-1.08,0-1.94-1.22-1.94-3.1,0-2.73,1.87-9,5.4-17.06-1.51,0-3.75.07-5,.07a4.36,4.36,0,0,1,1.08-2.16c1.58-.43,3.31-.65,5.33-1.08,1.87-4.1,4.89-11.45,4.68-12.53A11.16,11.16,0,0,1,946.1,328.77Z"/><path class="cls-1" d="M960.86,344.18c1.3-1.29,3.1-2.3,4-2.3,1.23.43,2.24,1.58,2.24,4.17,0,8.72-9.72,20.74-16.2,20.74-2.6,0-4-2.09-4-5.18,0-7.78,8.07-16.56,11.38-18.65A3.77,3.77,0,0,1,960.86,344.18Zm-9.14,14.76c0,3,1,3.46,2.59,3.46,2.88,0,8.28-8.14,8.28-13.75a3.73,3.73,0,0,0-2.59-3.89C955.46,347.71,951.72,354.33,951.72,358.94Z"/><path class="cls-1" d="M997.73,343.61c.72-.44,1.51-.87,2.31-1.3a4.42,4.42,0,0,1,1.87,1c-2.31,5-5.91,13-5.91,17.57,0,1,.36,1.58.87,1.58.72,0,2.45-1,3.74-2.09a5.93,5.93,0,0,1,.58,2c-2,1.66-6.63,4.82-8.64,4.82-.58,0-1.37-.72-1.37-2.3a23.91,23.91,0,0,1,1.51-7.49c.07-.22-.36-.5-.65-.14-4.68,5.11-9.86,9.21-13.17,9.21-.8,0-1.66-.86-1.66-2.73,0-5.33,3.53-13,11.67-18.87,1.94-1.37,4.46-2.66,6-2.66A7.3,7.3,0,0,1,997.73,343.61Zm-15,16.34c0,.72.08,1.23.58,1.23,2.3,0,7.92-4.9,12.38-13.83a4.71,4.71,0,0,0-2.44-2.09C990.53,345.26,982.75,353.83,982.75,360Z"/><path class="cls-1" d="M1021.13,343.25a23,23,0,0,1,3.24-.15,8.93,8.93,0,0,1,.15,1.37c0,2-.94,6.48-3,11.74-.14.43.44.43.72.21,8.28-9,14.33-13.61,16.64-13.61,1.15,0,1.44,1.23,1.44,2.88,0,3.39-4.11,10.95-4.11,14.41,0,1.22.22,1.8,1.8,2.66a4.48,4.48,0,0,1-.86,2.09,14.06,14.06,0,0,1-4.47,1.37c-1.15.14-1.44-.65-1.44-2.38,0-4,3.68-11.45,3.68-13.61,0-1-.22-1-.51-1-1.29,0-7.63,5.26-12.38,11.38-.72,1-2,3-2.59,3.89a6.15,6.15,0,0,1-3.32,1.15,5.94,5.94,0,0,1-2-.72c2.52-5.83,5-13.18,5-16.13a6,6,0,0,0-.72-3.17A9.23,9.23,0,0,1,1021.13,343.25Z"/><path class="cls-1" d="M1057.42,341.3c3.17,0,5.91.72,6,3.31.15,4.11-6,7.85-13.75,7.85a18.4,18.4,0,0,0-1.8,7.35c0,1.65.14,3.24,1.73,3.24,2.88,0,7.2-3.24,9.79-5.47a3.7,3.7,0,0,1,.65,2.59c-3.1,2.66-9.8,6.77-13.32,6.77-2.74,0-4.18-1.44-4.18-4.18,0-6.48,5.54-16,11.59-20.88A13.5,13.5,0,0,1,1057.42,341.3ZM1050.8,350c3.89,0,8.13-1.29,8.13-4.24,0-1.44-1.29-2-3.38-2A26.29,26.29,0,0,0,1050.8,350Z"/><path class="cls-1" d="M1072.69,342.09a8.34,8.34,0,0,1,1.87,2.31c-.44,2.09-2.16,5.83-3.17,8.42-1.51,3.53-1.87,5-1.87,6.48,0,.65.21,1.08.65,1.08,1.79,0,4.46-2.09,7.34-5.4a57,57,0,0,0,7.7-11.66,8.8,8.8,0,0,1,2.45-.79,7.17,7.17,0,0,1,2,1.22c-1.87,4.32-3.75,9.58-3.75,14.26,0,1.73.29,3,1.3,3,3.82,0,10.66-10.22,10.66-14.18a6.48,6.48,0,0,0-.43-2.52,10,10,0,0,1,4.89-2,7.58,7.58,0,0,1,.65,3.17c-3.46,10.51-14.19,19.66-18.65,19.66-1.51,0-3.17-.36-3.17-4.47a27.43,27.43,0,0,1,1.15-6.48c.08-.36-.43-.5-.72-.29-4.6,5.48-11.08,11.88-15.19,11.88-1.08,0-1.87-.72-1.87-2.52a24.42,24.42,0,0,1,1.8-8.13c1.65-4.25,2.09-5.91,2.09-6.77a2.6,2.6,0,0,0-1.08-1.87,8,8,0,0,1,.64-2C1069.37,343.53,1071.61,342.09,1072.69,342.09Z"/><path class="cls-1" d="M1131.15,344.4a9.36,9.36,0,0,1,2.67-1.73,4.92,4.92,0,0,1,1.87,1.66c-1.8,2.59-4.82,15.12-8.57,25.92-3.45,9.94-11.45,18-18.22,18.86-2.08-.07-5.4-2.23-7.05-3.45a6.32,6.32,0,0,1,.65-2.16,8.54,8.54,0,0,1,3.24-1.44c.79,1,3.81,3.89,5.54,4,4-1.73,7.27-4.83,11.45-15.84,1.44-4.11,3.74-11.31,4.68-14.26.14-.5-.36-.58-.58-.29-4.1,4.75-9.57,10-13,10-.65,0-1.58-.79-1.58-2.88,0-9.43,10.8-20.52,15.19-20.52A8,8,0,0,1,1131.15,344.4Zm-13.68,14c0,.86.29,1.58.79,1.58,1.73,0,9.15-7.34,10.88-12-.51-.87-2.09-2.52-3.1-2.52C1124,345.48,1117.47,352.89,1117.47,358.44Z"/><path class="cls-1" d="M1150.74,341.3c3.17,0,5.9.72,6,3.31.14,4.11-6,7.85-13.76,7.85a18.57,18.57,0,0,0-1.8,7.35c0,1.65.15,3.24,1.73,3.24,2.88,0,7.2-3.24,9.79-5.47a3.65,3.65,0,0,1,.65,2.59c-3.1,2.66-9.79,6.77-13.32,6.77-2.74,0-4.18-1.44-4.18-4.18,0-6.48,5.55-16,11.6-20.88A13.5,13.5,0,0,1,1150.74,341.3Zm-6.63,8.71c3.89,0,8.14-1.29,8.14-4.24,0-1.44-1.3-2-3.38-2A26,26,0,0,0,1144.11,350Z"/><path class="cls-1" d="M1163.19,343.25a22.93,22.93,0,0,1,3.24-.15,10.39,10.39,0,0,1,.15,1.37c0,2-.94,6.48-3,11.74-.14.43.43.43.72.21,8.28-9,14.33-13.61,16.64-13.61,1.15,0,1.44,1.23,1.44,2.88,0,3.39-4.11,10.95-4.11,14.41,0,1.22.22,1.8,1.8,2.66a4.48,4.48,0,0,1-.86,2.09,14.06,14.06,0,0,1-4.47,1.37c-1.15.14-1.44-.65-1.44-2.38,0-4,3.68-11.45,3.68-13.61,0-1-.22-1-.51-1-1.3,0-7.63,5.26-12.38,11.38-.72,1-2,3-2.6,3.89a6.09,6.09,0,0,1-3.31,1.15,5.94,5.94,0,0,1-2-.72c2.52-5.83,5-13.18,5-16.13a6,6,0,0,0-.72-3.17A9.23,9.23,0,0,1,1163.19,343.25Z"/><path class="cls-1" d="M1199.48,341.3c3.17,0,5.9.72,6,3.31.14,4.11-6,7.85-13.75,7.85a18.4,18.4,0,0,0-1.8,7.35c0,1.65.14,3.24,1.72,3.24,2.88,0,7.2-3.24,9.8-5.47a3.7,3.7,0,0,1,.64,2.59c-3.09,2.66-9.79,6.77-13.32,6.77-2.73,0-4.17-1.44-4.17-4.18,0-6.48,5.54-16,11.59-20.88A13.5,13.5,0,0,1,1199.48,341.3Zm-6.62,8.71c3.88,0,8.13-1.29,8.13-4.24,0-1.44-1.29-2-3.38-2A26.29,26.29,0,0,0,1192.86,350Z"/><path class="cls-1" d="M1212.58,359.74a50.7,50.7,0,0,0-2.88,5.68,11.8,11.8,0,0,1-2.73,1.37,4.74,4.74,0,0,1-2.38-.93c2.81-6.56,5.33-13.76,5.4-16.42a9.42,9.42,0,0,0-.72-4.11,5.39,5.39,0,0,1,5.11-2.66,7.93,7.93,0,0,1,.36,2.95,26,26,0,0,1-1.36,6.84c-.22.43.43.51.57.36,5.91-7.7,10.73-12.24,12.75-12.24a9.66,9.66,0,0,1,3.24,1.73,8.71,8.71,0,0,1-.65,3.24,6.09,6.09,0,0,1-2.81,1.15,4.54,4.54,0,0,1-1.94-1.44C1223,345.77,1218.34,350.37,1212.58,359.74Z"/><path class="cls-1" d="M1246.14,343.61c.72-.44,1.51-.87,2.3-1.3a4.31,4.31,0,0,1,1.87,1c-2.3,5-5.9,13-5.9,17.57,0,1,.36,1.58.86,1.58.72,0,2.45-1,3.75-2.09a6.16,6.16,0,0,1,.57,2c-1.94,1.66-6.62,4.82-8.64,4.82-.57,0-1.37-.72-1.37-2.3a24,24,0,0,1,1.52-7.49c.07-.22-.36-.5-.65-.14-4.68,5.11-9.87,9.21-13.18,9.21-.79,0-1.66-.86-1.66-2.73,0-5.33,3.53-13,11.67-18.87,1.94-1.37,4.46-2.66,6-2.66A7.3,7.3,0,0,1,1246.14,343.61Zm-15,16.34c0,.72.07,1.23.57,1.23,2.31,0,7.93-4.9,12.39-13.83a4.69,4.69,0,0,0-2.45-2.09C1238.94,345.26,1231.16,353.83,1231.16,360Z"/><path class="cls-1" d="M1268.38,328.77a4.27,4.27,0,0,1,1.73,1.73,135.18,135.18,0,0,0-6.26,12.46c1.94,0,5.69-.07,8.28-.29a4.92,4.92,0,0,1-1.15,2.16,59.55,59.55,0,0,1-8.57,1.37c-3.39,8.21-4.61,12.09-4.61,14.18,0,1.16.22,1.59.72,1.59,1.37-.07,4.1-1.59,7.56-4.25a4.45,4.45,0,0,1,.65,2.45c-4.54,3.24-9.79,6.55-12.1,6.55-1.08,0-1.94-1.22-1.94-3.1,0-2.73,1.87-9,5.4-17.06-1.51,0-3.75.07-5,.07a4.36,4.36,0,0,1,1.08-2.16c1.58-.43,3.31-.65,5.33-1.08,1.87-4.1,4.89-11.45,4.68-12.53A11.16,11.16,0,0,1,1268.38,328.77Z"/><path class="cls-1" d="M1269.82,363.26c0-3.09,1.8-8.28,4.61-15.55a5.5,5.5,0,0,0,.15-2.52,9.84,9.84,0,0,1,3.81-1.87,3.34,3.34,0,0,1,1.73,1.94c-4.46,8.5-5.54,12.46-5.54,14.76,0,1.23.36,1.88.93,1.88.79,0,2.88-1.16,4.47-2.52a5.53,5.53,0,0,1,.64,2.08c-4.53,3.46-7.77,4.83-9,4.83C1270.54,366.29,1269.82,365.64,1269.82,363.26Zm16.85-33a6.08,6.08,0,0,1-3.89,4.54,3.86,3.86,0,0,1-2.37-2.81c-.07-.43,1.73-4,4.39-4.17A5,5,0,0,1,1286.67,330.28Z"/><path class="cls-1" d="M1297,344.18c1.29-1.29,3.09-2.3,4-2.3,1.22.43,2.23,1.58,2.23,4.17,0,8.72-9.72,20.74-16.2,20.74-2.59,0-4-2.09-4-5.18,0-7.78,8.06-16.56,11.38-18.65A3.79,3.79,0,0,1,1297,344.18Zm-9.15,14.76c0,3,1,3.46,2.6,3.46,2.88,0,8.28-8.14,8.28-13.75a3.73,3.73,0,0,0-2.6-3.89C1291.64,347.71,1287.89,354.33,1287.89,358.94Z"/><path class="cls-1" d="M1311,343.25a22.86,22.86,0,0,1,3.24-.15,10.27,10.27,0,0,1,.14,1.37c0,2-.94,6.48-3,11.74-.15.43.43.43.72.21,8.28-9,14.33-13.61,16.63-13.61,1.15,0,1.44,1.23,1.44,2.88,0,3.39-4.11,10.95-4.11,14.41,0,1.22.22,1.8,1.8,2.66a4.48,4.48,0,0,1-.86,2.09,14.08,14.08,0,0,1-4.46,1.37c-1.16.14-1.44-.65-1.44-2.38,0-4,3.67-11.45,3.67-13.61,0-1-.22-1-.51-1-1.29,0-7.63,5.26-12.38,11.38-.72,1-2,3-2.59,3.89a6.15,6.15,0,0,1-3.32,1.15,6,6,0,0,1-2-.72c2.52-5.83,5-13.18,5-16.13a6,6,0,0,0-.72-3.17A9.26,9.26,0,0,1,1311,343.25Z"/><path class="cls-1" d="M1357.38,344.18c1.29-1.29,3.09-2.3,4-2.3,1.22.43,2.23,1.58,2.23,4.17,0,8.72-9.72,20.74-16.2,20.74-2.59,0-4-2.09-4-5.18,0-7.78,8.06-16.56,11.37-18.65A3.79,3.79,0,0,1,1357.38,344.18Zm-9.15,14.76c0,3,1,3.46,2.6,3.46,2.88,0,8.28-8.14,8.28-13.75a3.73,3.73,0,0,0-2.6-3.89C1352,347.71,1348.23,354.33,1348.23,358.94Z"/><path class="cls-1" d="M1384.81,322.08a14.65,14.65,0,0,1,4.53-.94,33.46,33.46,0,0,1,2.6,10.51,5.33,5.33,0,0,1-2.74,1.59,7,7,0,0,1-1.66-.94,26.27,26.27,0,0,0-.64-6.26c-.07-.36-.65-.22-.87.07a62,62,0,0,0-5,8.93c-1.08,2.3-2.66,5.9-4.1,9.57,2.81-.07,5.83-.21,8.14-.43a4.46,4.46,0,0,1-.8,2.16c-1.36.36-5.4.94-8.64,1.37-7.12,18.22-11.52,32.26-11.52,37.3a10.38,10.38,0,0,0,.07,2.16,9,9,0,0,1-2.73,1.73,4.6,4.6,0,0,1-3.24-1.87,366,366,0,0,1,13-39c-2,.14-3.67.36-4.75.5a6.54,6.54,0,0,1-.22-1.51,9.82,9.82,0,0,1,1.66-2c1.37-.08,2.81-.15,4.68-.29C1377.75,333.24,1381.06,326.9,1384.81,322.08Z"/><path class="cls-1" d="M1399.79,342a3.49,3.49,0,0,1,1.58,1.3,20.51,20.51,0,0,1-1.44,4.53c-.07.29.51.44.72.29,2.88-2.95,7.06-5.61,8.86-5.61,1.22,0,3,1.94,3,4.82,0,8.71-9.93,19.37-15,19.37a8.81,8.81,0,0,1-4.46-1.51c-3.82,8.93-6.34,16.7-5.69,20.16a8.25,8.25,0,0,1-3.82,1.87c-.5-.21-1.72-.72-1.87-1.37.72-3.45,2.16-7.7,7.92-21.31,3.82-8.93,5.55-13.68,6.91-18.79a4.08,4.08,0,0,0,.15-1.88A6.31,6.31,0,0,1,1399.79,342Zm-1.51,21.89c2.08,0,9.28-7.13,9.28-14.26,0-1.87-.86-2.37-1.51-2.37-.93-.07-6,3.38-8.57,7.85a25.8,25.8,0,0,0-2.66,6.05C1396,362.76,1397.63,363.91,1398.28,363.91Z"/><path class="cls-1" d="M1414.62,363.26c0-3.09,1.8-8.28,4.61-15.55a5.52,5.52,0,0,0,.14-2.52,10,10,0,0,1,3.82-1.87,3.37,3.37,0,0,1,1.73,1.94c-4.47,8.5-5.55,12.46-5.55,14.76,0,1.23.36,1.88.94,1.88.79,0,2.88-1.16,4.46-2.52a5.37,5.37,0,0,1,.65,2.08c-4.54,3.46-7.78,4.83-9,4.83S1414.62,365.64,1414.62,363.26Zm16.85-33a6.08,6.08,0,0,1-3.89,4.54,3.88,3.88,0,0,1-2.38-2.81c-.07-.43,1.73-4,4.4-4.17A5,5,0,0,1,1431.47,330.28Z"/><path class="cls-1" d="M1434.56,359.74a50.7,50.7,0,0,0-2.88,5.68,11.8,11.8,0,0,1-2.73,1.37,4.74,4.74,0,0,1-2.38-.93c2.81-6.56,5.33-13.76,5.4-16.42a9.42,9.42,0,0,0-.72-4.11,5.39,5.39,0,0,1,5.11-2.66,7.93,7.93,0,0,1,.36,2.95,26,26,0,0,1-1.36,6.84c-.22.43.43.51.57.36,5.91-7.7,10.73-12.24,12.75-12.24a9.66,9.66,0,0,1,3.24,1.73,8.71,8.71,0,0,1-.65,3.24,6.09,6.09,0,0,1-2.81,1.15,4.54,4.54,0,0,1-1.94-1.44C1445,345.77,1440.32,350.37,1434.56,359.74Z"/><path class="cls-1" d="M1468.12,343.61c.71-.44,1.51-.87,2.3-1.3a4.31,4.31,0,0,1,1.87,1c-2.3,5-5.9,13-5.9,17.57,0,1,.36,1.58.86,1.58.72,0,2.45-1,3.75-2.09a6.16,6.16,0,0,1,.57,2c-1.94,1.66-6.62,4.82-8.64,4.82-.58,0-1.37-.72-1.37-2.3a24,24,0,0,1,1.52-7.49c.07-.22-.37-.5-.65-.14-4.68,5.11-9.87,9.21-13.18,9.21-.79,0-1.66-.86-1.66-2.73,0-5.33,3.53-13,11.67-18.87,1.94-1.37,4.46-2.66,6-2.66A7.3,7.3,0,0,1,1468.12,343.61Zm-15,16.34c0,.72.07,1.23.57,1.23,2.31,0,7.92-4.9,12.39-13.83a4.69,4.69,0,0,0-2.45-2.09C1460.92,345.26,1453.14,353.83,1453.14,360Z"/><path class="cls-1" d="M1490.36,328.77a4.34,4.34,0,0,1,1.73,1.73,135.18,135.18,0,0,0-6.26,12.46c1.94,0,5.69-.07,8.28-.29a4.92,4.92,0,0,1-1.15,2.16,59.55,59.55,0,0,1-8.57,1.37c-3.39,8.21-4.61,12.09-4.61,14.18,0,1.16.22,1.59.72,1.59,1.37-.07,4.1-1.59,7.56-4.25a4.45,4.45,0,0,1,.65,2.45c-4.54,3.24-9.79,6.55-12.1,6.55-1.08,0-1.94-1.22-1.94-3.1,0-2.73,1.87-9,5.4-17.06-1.51,0-3.75.07-5,.07a4.36,4.36,0,0,1,1.08-2.16c1.58-.43,3.31-.65,5.33-1.08,1.87-4.1,4.89-11.45,4.68-12.53A11.16,11.16,0,0,1,1490.36,328.77Z"/><path class="cls-1" d="M1505.7,341.3c3.17,0,5.9.72,6,3.31.14,4.11-6,7.85-13.75,7.85a18.4,18.4,0,0,0-1.8,7.35c0,1.65.14,3.24,1.72,3.24,2.88,0,7.2-3.24,9.8-5.47a3.7,3.7,0,0,1,.64,2.59c-3.09,2.66-9.79,6.77-13.32,6.77-2.73,0-4.17-1.44-4.17-4.18,0-6.48,5.54-16,11.59-20.88A13.5,13.5,0,0,1,1505.7,341.3Zm-6.62,8.71c3.88,0,8.13-1.29,8.13-4.24,0-1.44-1.29-2-3.38-2A26.29,26.29,0,0,0,1499.08,350Z"/><path class="cls-1" d="M1530.32,342.67a2.7,2.7,0,0,1-2.73,3.89c-.72-.43-2.67-1.73-3.6-1.73a3,3,0,0,0-1.51.5,6,6,0,0,0-2.52,4.25c0,1.08.43,1.51,3.74,1.8,3.46.36,5.33,1.3,5.33,3.75,0,5.11-7.63,11.66-15,11.66-3.67,0-4.68-.72-4.68-1.87,0-1.66.22-3,2.38-6.77.28,0,.72-.07,1.15-.07a2.85,2.85,0,0,1,1.44.21,11,11,0,0,0-1,3.89c0,1,.86,1.66,2.66,1.66,4.33,0,7.71-3.38,7.71-6.91,0-1.23-.58-1.66-4-1.88s-4.61-.93-4.61-2.8c0-3.46,6.27-10.8,10.37-10.8A14,14,0,0,1,1530.32,342.67Z"/><path class="cls-1" d="M1533.56,360a4.21,4.21,0,0,1,2.88,2.16,11.78,11.78,0,0,1-.79,2.74,47.54,47.54,0,0,1-7.63,10.73,3.87,3.87,0,0,1-2.45-.79,27.9,27.9,0,0,0,6-13.32A6.91,6.91,0,0,1,1533.56,360Z"/><path class="cls-1" d="M1572.81,343.61c.72-.44,1.51-.87,2.3-1.3a4.31,4.31,0,0,1,1.87,1c-2.3,5-5.9,13-5.9,17.57,0,1,.36,1.58.86,1.58.72,0,2.45-1,3.75-2.09a5.92,5.92,0,0,1,.57,2c-1.94,1.66-6.62,4.82-8.64,4.82-.57,0-1.37-.72-1.37-2.3a24,24,0,0,1,1.52-7.49c.07-.22-.36-.5-.65-.14-4.68,5.11-9.87,9.21-13.18,9.21-.79,0-1.65-.86-1.65-2.73,0-5.33,3.52-13,11.66-18.87,2-1.37,4.47-2.66,6-2.66A7.3,7.3,0,0,1,1572.81,343.61Zm-15,16.34c0,.72.07,1.23.58,1.23,2.3,0,7.92-4.9,12.38-13.83a4.69,4.69,0,0,0-2.45-2.09C1565.61,345.26,1557.83,353.83,1557.83,360Z"/><path class="cls-1" d="M1585.91,343.25a22.93,22.93,0,0,1,3.24-.15,10.27,10.27,0,0,1,.14,1.37c0,2-.93,6.48-3,11.74-.14.43.43.43.72.21,8.28-9,14.33-13.61,16.63-13.61,1.16,0,1.44,1.23,1.44,2.88,0,3.39-4.1,10.95-4.1,14.41,0,1.22.22,1.8,1.8,2.66a4.48,4.48,0,0,1-.86,2.09,14.13,14.13,0,0,1-4.47,1.37c-1.15.14-1.44-.65-1.44-2.38,0-4,3.67-11.45,3.67-13.61,0-1-.21-1-.5-1-1.3,0-7.63,5.26-12.39,11.38-.72,1-2,3-2.59,3.89a4.27,4.27,0,0,1-5.33.43c2.52-5.83,5-13.18,5-16.13a5.87,5.87,0,0,0-.72-3.17A9.39,9.39,0,0,1,1585.91,343.25Z"/><path class="cls-1" d="M328.55,427.7c3.17,0,5.91.72,6.05,3.31.15,4.11-6,7.85-13.75,7.85a18.4,18.4,0,0,0-1.8,7.35c0,1.65.14,3.24,1.73,3.24,2.88,0,7.2-3.24,9.79-5.47a3.65,3.65,0,0,1,.65,2.59c-3.1,2.66-9.8,6.77-13.32,6.77-2.74,0-4.18-1.44-4.18-4.18,0-6.48,5.54-16,11.59-20.88A13.59,13.59,0,0,1,328.55,427.7Zm-6.62,8.71c3.89,0,8.14-1.29,8.14-4.24,0-1.44-1.3-2-3.39-2A26.29,26.29,0,0,0,321.93,436.41Z"/><path class="cls-1" d="M341.66,446.14a46.68,46.68,0,0,0-2.88,5.68,12.08,12.08,0,0,1-2.74,1.37,4.74,4.74,0,0,1-2.38-.93c2.81-6.56,5.33-13.76,5.4-16.42a9.42,9.42,0,0,0-.72-4.11,5.41,5.41,0,0,1,5.12-2.66,7.93,7.93,0,0,1,.36,2.95,26.15,26.15,0,0,1-1.37,6.84c-.22.43.43.51.57.36,5.91-7.7,10.73-12.24,12.75-12.24a9.47,9.47,0,0,1,3.24,1.73,8.71,8.71,0,0,1-.65,3.24,6.09,6.09,0,0,1-2.81,1.15,4.66,4.66,0,0,1-1.94-1.44C352.1,432.17,347.42,436.77,341.66,446.14Z"/><path class="cls-1" d="M375.21,430c.72-.44,1.51-.87,2.3-1.3a4.31,4.31,0,0,1,1.87,1c-2.3,5-5.9,13-5.9,17.57,0,1,.36,1.58.86,1.58.72,0,2.45-1,3.75-2.09a5.92,5.92,0,0,1,.57,2c-1.94,1.66-6.62,4.82-8.64,4.82-.57,0-1.36-.72-1.36-2.3a23.62,23.62,0,0,1,1.51-7.49c.07-.22-.36-.5-.65-.14-4.68,5.11-9.87,9.21-13.18,9.21-.79,0-1.65-.86-1.65-2.73,0-5.33,3.52-13,11.66-18.87,1.95-1.37,4.47-2.66,6-2.66A7.3,7.3,0,0,1,375.21,430Zm-15,16.34c0,.72.07,1.23.58,1.23,2.3,0,7.92-4.9,12.38-13.83a4.69,4.69,0,0,0-2.45-2.09C368,431.66,360.23,440.23,360.23,446.35Z"/><path class="cls-1" d="M405.78,430.58c1.3-1.29,3.1-2.3,4-2.3,1.22.43,2.23,1.58,2.23,4.17,0,8.72-9.72,20.74-16.2,20.74-2.59,0-4-2.09-4-5.18,0-7.78,8.06-16.56,11.38-18.65A3.77,3.77,0,0,1,405.78,430.58Zm-9.15,14.76c0,3,1,3.46,2.6,3.46,2.88,0,8.28-8.14,8.28-13.75a3.73,3.73,0,0,0-2.59-3.89C400.38,434.11,396.63,440.73,396.63,445.34Z"/><path class="cls-1" d="M433.21,408.48a14.71,14.71,0,0,1,4.54-.94,33.74,33.74,0,0,1,2.59,10.51,5.33,5.33,0,0,1-2.74,1.59,6.68,6.68,0,0,1-1.65-.94,26.23,26.23,0,0,0-.65-6.26c-.07-.36-.65-.22-.87.07a62.06,62.06,0,0,0-5,8.93c-1.08,2.3-2.67,5.9-4.11,9.57,2.81-.07,5.83-.21,8.14-.43a4.46,4.46,0,0,1-.79,2.16c-1.37.36-5.4.94-8.64,1.37-7.13,18.22-11.53,32.26-11.53,37.3a9.66,9.66,0,0,0,.08,2.16,9,9,0,0,1-2.74,1.73,4.62,4.62,0,0,1-3.24-1.87,368.32,368.32,0,0,1,13-39c-2,.14-3.67.36-4.75.5a6.47,6.47,0,0,1-.21-1.51,9.49,9.49,0,0,1,1.65-2c1.37-.08,2.81-.15,4.68-.29C426.15,419.64,429.47,413.3,433.21,408.48Z"/><path class="cls-1" d="M456.94,439.8c-6.48,7.2-12.89,12.67-16.06,12.67-1.22,0-2.16-.93-2.16-3.09,0-9.44,13-20.53,17.28-20.53,1.3,0,3,1.37,4.33,2.88,2.66-6.33,6.26-15.26,8.35-21.45a4.82,4.82,0,0,0,.21-1.44,10.94,10.94,0,0,1,4.54-1.44,5,5,0,0,1,.79,3c-2.88,4.68-7.92,16.2-11.73,27.07-1.3,3.75-2.45,8-2.24,11.81.08,1.3.44,2.16.94,2.31a5.83,5.83,0,0,1-.22,2c-.93.87-3.24,2.24-4.39,2.24-.86-.65-1.22-2.67-1.22-4.47a39.45,39.45,0,0,1,2.16-11.23C457.66,439.8,457.08,439.65,456.94,439.8Zm-12.6,5.26c0,1.22.29,1.58.86,1.58,2.09,0,9.58-7.42,12.32-12.1-.51-1.29-1.95-2.52-2.88-2.52C452.26,432,444.34,440.23,444.34,445.06Z"/><path class="cls-1" d="M473.5,446.14a48.19,48.19,0,0,0-2.88,5.68,11.88,11.88,0,0,1-2.74,1.37,4.7,4.7,0,0,1-2.37-.93c2.81-6.56,5.33-13.76,5.4-16.42a9.42,9.42,0,0,0-.72-4.11,5.39,5.39,0,0,1,5.11-2.66,7.93,7.93,0,0,1,.36,2.95,25.73,25.73,0,0,1-1.37,6.84c-.21.43.43.51.58.36,5.9-7.7,10.73-12.24,12.74-12.24a9.47,9.47,0,0,1,3.24,1.73,8.69,8.69,0,0,1-.64,3.24,6.13,6.13,0,0,1-2.81,1.15,4.62,4.62,0,0,1-1.95-1.44C483.94,432.17,479.26,436.77,473.5,446.14Z"/><path class="cls-1" d="M502.59,427.7c3.17,0,5.9.72,6.05,3.31.14,4.11-6,7.85-13.76,7.85a18.57,18.57,0,0,0-1.8,7.35c0,1.65.15,3.24,1.73,3.24,2.88,0,7.2-3.24,9.79-5.47a3.65,3.65,0,0,1,.65,2.59c-3.09,2.66-9.79,6.77-13.32,6.77-2.73,0-4.18-1.44-4.18-4.18,0-6.48,5.55-16,11.6-20.88A13.5,13.5,0,0,1,502.59,427.7ZM496,436.41c3.89,0,8.14-1.29,8.14-4.24,0-1.44-1.3-2-3.38-2A26.3,26.3,0,0,0,496,436.41Z"/><path class="cls-1" d="M527.64,430c.72-.44,1.52-.87,2.31-1.3a4.31,4.31,0,0,1,1.87,1c-2.3,5-5.9,13-5.9,17.57,0,1,.36,1.58.86,1.58.72,0,2.45-1,3.74-2.09a5.93,5.93,0,0,1,.58,2c-1.94,1.66-6.62,4.82-8.64,4.82-.58,0-1.37-.72-1.37-2.3a24.2,24.2,0,0,1,1.51-7.49c.08-.22-.36-.5-.64-.14-4.68,5.11-9.87,9.21-13.18,9.21-.79,0-1.66-.86-1.66-2.73,0-5.33,3.53-13,11.67-18.87,1.94-1.37,4.46-2.66,6-2.66A7.24,7.24,0,0,1,527.64,430Zm-15,16.34c0,.72.07,1.23.57,1.23,2.31,0,7.92-4.9,12.39-13.83a4.69,4.69,0,0,0-2.45-2.09C520.44,431.66,512.67,440.23,512.67,446.35Z"/><path class="cls-1" d="M554.57,443.54c7.92-10,13.32-14.54,15.77-14.54.72,0,1.15.5,1.15,1.65,0,3.6-3.67,11.16-3.67,15.56a2.47,2.47,0,0,0,1.8,2.09,6,6,0,0,1-.36,1.87,9.8,9.8,0,0,1-5.11,2c-.65,0-1.15-.72-1.15-2.44,0-3.6,3-11.45,3-12.53,0-.51-.07-.87-.36-.87-1.22,0-3.6,2-9.29,9.15a61.43,61.43,0,0,0-3.74,5.61,10,10,0,0,1-3.46,1.52,3.42,3.42,0,0,1-2-1.44c2.44-6.12,4.75-12.25,4.68-14.26,0-.58-.36-.58-.8-.58-1.29,0-5.61,4.25-9.5,9.08a26.51,26.51,0,0,0-3,4.89,8.7,8.7,0,0,1-3.39,1.87,4.15,4.15,0,0,1-1.94-1.22c2.59-6,5.25-13,5.25-16.85a4.76,4.76,0,0,0-.43-1.94c.43-1,2.09-1.95,3-2.45a11.25,11.25,0,0,1,3,.29c0,2.95-1,5.76-2.52,10.8-.07.43.5.64.65.36C548,434.69,552.77,430,555.8,430c.79,0,1.44.43,1.44,1.65,0,1.8-.94,4.83-3.39,11.74C553.71,443.76,554.36,443.83,554.57,443.54Z"/><path class="cls-1" d="M589.2,427.7c3.17,0,5.91.72,6,3.31.15,4.11-6,7.85-13.75,7.85a18.4,18.4,0,0,0-1.8,7.35c0,1.65.14,3.24,1.73,3.24,2.88,0,7.2-3.24,9.79-5.47a3.7,3.7,0,0,1,.65,2.59c-3.1,2.66-9.8,6.77-13.32,6.77-2.74,0-4.18-1.44-4.18-4.18,0-6.48,5.54-16,11.59-20.88A13.5,13.5,0,0,1,589.2,427.7Zm-6.62,8.71c3.89,0,8.13-1.29,8.13-4.24,0-1.44-1.29-2-3.38-2A26.29,26.29,0,0,0,582.58,436.41Z"/><path class="cls-1" d="M602.3,446.14a49.81,49.81,0,0,0-2.88,5.68,11.8,11.8,0,0,1-2.73,1.37,4.74,4.74,0,0,1-2.38-.93c2.81-6.56,5.33-13.76,5.4-16.42a9.42,9.42,0,0,0-.72-4.11,5.39,5.39,0,0,1,5.12-2.66,8.14,8.14,0,0,1,.35,2.95,26,26,0,0,1-1.36,6.84c-.22.43.43.51.57.36,5.91-7.7,10.73-12.24,12.75-12.24a9.66,9.66,0,0,1,3.24,1.73A8.71,8.71,0,0,1,619,432a6.09,6.09,0,0,1-2.81,1.15,4.66,4.66,0,0,1-1.94-1.44C612.75,432.17,608.07,436.77,602.3,446.14Z"/><path class="cls-1" d="M635.57,429.07a5.92,5.92,0,0,1,.22,1.8,6,6,0,0,1-3,2.09c-.72-.43-2.66-1.73-3.6-1.73a3,3,0,0,0-1.51.5A6,6,0,0,0,625.2,436c0,1.08.43,1.51,3.75,1.8s5.32,1.3,5.32,3.75c0,5.11-7.63,11.66-15,11.66-3.68,0-4.68-.72-4.68-1.87,0-1.66.21-3,2.37-6.77.29,0,.72-.07,1.15-.07a2.81,2.81,0,0,1,1.44.21,11.25,11.25,0,0,0-1,3.89c0,1,.86,1.66,2.66,1.66,4.32,0,7.71-3.39,7.71-6.91,0-1.23-.58-1.66-4-1.88s-4.61-.93-4.61-2.8c0-3.46,6.26-10.8,10.37-10.8A14.1,14.1,0,0,1,635.57,429.07Z"/><path class="cls-1" d="M638.81,446.42a4.21,4.21,0,0,1,2.88,2.16,11.78,11.78,0,0,1-.79,2.74,47.7,47.7,0,0,1-7.64,10.73,3.87,3.87,0,0,1-2.45-.79,27.82,27.82,0,0,0,6-13.32A6.62,6.62,0,0,1,638.81,446.42Z"/><path class="cls-1" d="M678.52,408.48a14.77,14.77,0,0,1,4.54-.94,33.46,33.46,0,0,1,2.59,10.51,5.33,5.33,0,0,1-2.73,1.59,6.77,6.77,0,0,1-1.66-.94,25.72,25.72,0,0,0-.65-6.26c-.07-.36-.65-.22-.86.07a62,62,0,0,0-5,8.93c-1.08,2.3-2.66,5.9-4.1,9.57,2.8-.07,5.83-.21,8.13-.43a4.46,4.46,0,0,1-.79,2.16c-1.37.36-5.4.94-8.64,1.37-7.13,18.22-11.52,32.26-11.52,37.3a10.38,10.38,0,0,0,.07,2.16,9,9,0,0,1-2.74,1.73,4.62,4.62,0,0,1-3.24-1.87,366.39,366.39,0,0,1,13-39c-2,.14-3.68.36-4.76.5a6.47,6.47,0,0,1-.21-1.51,9.49,9.49,0,0,1,1.65-2c1.37-.08,2.81-.15,4.69-.29C671.47,419.64,674.78,413.3,678.52,408.48Z"/><path class="cls-1" d="M681.26,446.14a48.19,48.19,0,0,0-2.88,5.68,11.88,11.88,0,0,1-2.74,1.37,4.7,4.7,0,0,1-2.37-.93c2.81-6.56,5.32-13.76,5.4-16.42a9.42,9.42,0,0,0-.72-4.11,5.39,5.39,0,0,1,5.11-2.66,7.93,7.93,0,0,1,.36,2.95,25.73,25.73,0,0,1-1.37,6.84c-.22.43.43.51.58.36,5.9-7.7,10.73-12.24,12.74-12.24a9.47,9.47,0,0,1,3.24,1.73A8.52,8.52,0,0,1,698,432a6.06,6.06,0,0,1-2.8,1.15,4.62,4.62,0,0,1-1.95-1.44C691.7,432.17,687,436.77,681.26,446.14Z"/><path class="cls-1" d="M710.35,427.7c3.17,0,5.9.72,6,3.31.14,4.11-6,7.85-13.76,7.85a18.57,18.57,0,0,0-1.8,7.35c0,1.65.15,3.24,1.73,3.24,2.88,0,7.2-3.24,9.79-5.47a3.65,3.65,0,0,1,.65,2.59c-3.09,2.66-9.79,6.77-13.32,6.77-2.74,0-4.18-1.44-4.18-4.18,0-6.48,5.55-16,11.6-20.88A13.5,13.5,0,0,1,710.35,427.7Zm-6.63,8.71c3.89,0,8.14-1.29,8.14-4.24,0-1.44-1.3-2-3.38-2A26.3,26.3,0,0,0,703.72,436.41Z"/><path class="cls-1" d="M730.36,427.7c3.17,0,5.91.72,6,3.31.15,4.11-6,7.85-13.75,7.85a18.4,18.4,0,0,0-1.8,7.35c0,1.65.14,3.24,1.73,3.24,2.88,0,7.2-3.24,9.79-5.47a3.65,3.65,0,0,1,.65,2.59c-3.1,2.66-9.8,6.77-13.32,6.77-2.74,0-4.18-1.44-4.18-4.18,0-6.48,5.54-16,11.59-20.88A13.59,13.59,0,0,1,730.36,427.7Zm-6.62,8.71c3.89,0,8.14-1.29,8.14-4.24,0-1.44-1.3-2-3.39-2A26.29,26.29,0,0,0,723.74,436.41Z"/><path class="cls-1" d="M753.62,439.8c-6.48,7.2-12.89,12.67-16.06,12.67-1.22,0-2.16-.93-2.16-3.09,0-9.44,13-20.53,17.28-20.53,1.3,0,3,1.37,4.32,2.88,2.67-6.33,6.27-15.26,8.36-21.45a4.82,4.82,0,0,0,.21-1.44,10.9,10.9,0,0,1,4.54-1.44,5.07,5.07,0,0,1,.79,3c-2.88,4.68-7.92,16.2-11.74,27.07-1.29,3.75-2.45,8-2.23,11.81.07,1.3.43,2.16.94,2.31a5.83,5.83,0,0,1-.22,2c-.94.87-3.24,2.24-4.39,2.24-.87-.65-1.22-2.67-1.22-4.47a39.45,39.45,0,0,1,2.16-11.23C754.34,439.8,753.76,439.65,753.62,439.8ZM741,445.06c0,1.22.29,1.58.86,1.58,2.09,0,9.58-7.42,12.32-12.1-.51-1.29-2-2.52-2.89-2.52C748.94,432,741,440.23,741,445.06Z"/><path class="cls-1" d="M777.23,430.58c1.3-1.29,3.1-2.3,4-2.3,1.23.43,2.24,1.58,2.24,4.17,0,8.72-9.72,20.74-16.2,20.74-2.6,0-4-2.09-4-5.18,0-7.78,8.07-16.56,11.38-18.65A3.77,3.77,0,0,1,777.23,430.58Zm-9.14,14.76c0,3,1,3.46,2.59,3.46,2.88,0,8.28-8.14,8.28-13.75a3.73,3.73,0,0,0-2.59-3.89C771.83,434.11,768.09,440.73,768.09,445.34Z"/><path class="cls-1" d="M805.6,443.54c7.92-10,13.32-14.54,15.77-14.54.72,0,1.15.5,1.15,1.65,0,3.6-3.67,11.16-3.67,15.56a2.47,2.47,0,0,0,1.8,2.09,6,6,0,0,1-.36,1.87,9.84,9.84,0,0,1-5.11,2c-.65,0-1.15-.72-1.15-2.44,0-3.6,3-11.45,3-12.53,0-.51-.07-.87-.36-.87-1.22,0-3.6,2-9.29,9.15a61.43,61.43,0,0,0-3.74,5.61,10,10,0,0,1-3.46,1.52,3.42,3.42,0,0,1-2-1.44c2.44-6.12,4.75-12.25,4.68-14.26,0-.58-.36-.58-.8-.58-1.29,0-5.61,4.25-9.5,9.08a27.12,27.12,0,0,0-3,4.89,8.65,8.65,0,0,1-3.38,1.87,4.15,4.15,0,0,1-1.94-1.22c2.59-6,5.25-13,5.25-16.85a4.76,4.76,0,0,0-.43-1.94c.43-1,2.09-1.95,3-2.45a11.25,11.25,0,0,1,3,.29c0,2.95-1,5.76-2.52,10.8-.08.43.5.64.64.36C799,434.69,803.8,430,806.83,430c.79,0,1.44.43,1.44,1.65,0,1.8-.94,4.83-3.39,11.74C804.74,443.76,805.39,443.83,805.6,443.54Z"/><path class="cls-1" d="M850.14,430.58c1.3-1.29,3.1-2.3,4-2.3,1.22.43,2.23,1.58,2.23,4.17,0,8.72-9.72,20.74-16.2,20.74-2.59,0-4-2.09-4-5.18,0-7.78,8.06-16.56,11.38-18.65A3.77,3.77,0,0,1,850.14,430.58ZM841,445.34c0,3,1,3.46,2.6,3.46,2.88,0,8.28-8.14,8.28-13.75a3.73,3.73,0,0,0-2.59-3.89C844.74,434.11,841,440.73,841,445.34Z"/><path class="cls-1" d="M864.11,429.65a22.86,22.86,0,0,1,3.24-.15,10.27,10.27,0,0,1,.14,1.37c0,2-.94,6.48-3,11.74-.15.43.43.43.72.21,8.28-9,14.33-13.61,16.63-13.61,1.15,0,1.44,1.23,1.44,2.88,0,3.39-4.1,11-4.1,14.41,0,1.22.21,1.8,1.8,2.66a4.6,4.6,0,0,1-.87,2.09,14.08,14.08,0,0,1-4.46,1.37c-1.16.14-1.44-.65-1.44-2.38,0-4,3.67-11.45,3.67-13.61,0-1-.22-1-.5-1-1.3,0-7.64,5.26-12.39,11.38-.72,1-2,3-2.59,3.89a6.12,6.12,0,0,1-3.31,1.15,6,6,0,0,1-2-.72c2.52-5.83,5-13.18,5-16.13a5.87,5.87,0,0,0-.72-3.17A9.26,9.26,0,0,1,864.11,429.65Z"/><path class="cls-1" d="M893.48,438.5a17.46,17.46,0,0,0-2.81,8.14,2.51,2.51,0,0,0,2.45,2.59c2.09,0,5-2.16,9.51-7.2a3,3,0,0,1,.86,2.16c-4.82,5.47-9.65,9.43-13.68,9.43-2.16,0-4.1-1.22-4.1-4.89,0-6.7,7.84-17.14,15.26-21.1a16.09,16.09,0,0,1,2.66.36,6.36,6.36,0,0,1,1.45,2.16,5.73,5.73,0,0,1-.58,1.94,8.89,8.89,0,0,1-3.1,1.23c-.79-.43-1-1.8-2.16-1.8A33.49,33.49,0,0,0,893.48,438.5Z"/><path class="cls-1" d="M919.83,427.7c3.17,0,5.91.72,6,3.31.15,4.11-6,7.85-13.75,7.85a18.57,18.57,0,0,0-1.8,7.35c0,1.65.14,3.24,1.73,3.24,2.88,0,7.2-3.24,9.79-5.47a3.65,3.65,0,0,1,.65,2.59c-3.1,2.66-9.79,6.77-13.32,6.77-2.74,0-4.18-1.44-4.18-4.18,0-6.48,5.55-16,11.59-20.88A13.59,13.59,0,0,1,919.83,427.7Zm-6.62,8.71c3.89,0,8.14-1.29,8.14-4.24,0-1.44-1.3-2-3.39-2A26.29,26.29,0,0,0,913.21,436.41Z"/><path class="cls-1" d="M955.37,430c.72-.44,1.52-.87,2.31-1.3a4.36,4.36,0,0,1,1.87,1c-2.3,5-5.9,13-5.9,17.57,0,1,.36,1.58.86,1.58.72,0,2.45-1,3.74-2.09a5.93,5.93,0,0,1,.58,2c-1.94,1.66-6.62,4.82-8.64,4.82-.58,0-1.37-.72-1.37-2.3a24.2,24.2,0,0,1,1.51-7.49c.08-.22-.36-.5-.64-.14-4.69,5.11-9.87,9.21-13.18,9.21-.79,0-1.66-.86-1.66-2.73,0-5.33,3.53-13,11.67-18.87,1.94-1.37,4.46-2.66,6-2.66A7.24,7.24,0,0,1,955.37,430Zm-15,16.34c0,.72.07,1.23.57,1.23,2.31,0,7.92-4.9,12.39-13.83a4.69,4.69,0,0,0-2.45-2.09C948.17,431.66,940.4,440.23,940.4,446.35Z"/><path class="cls-1" d="M979.57,430.8a9.31,9.31,0,0,1,2.66-1.73,4.85,4.85,0,0,1,1.87,1.66c-1.8,2.59-4.82,15.12-8.57,25.92-3.45,9.93-11.45,18-18.21,18.86-2.09-.07-5.4-2.23-7.06-3.45a6.55,6.55,0,0,1,.65-2.16,8.54,8.54,0,0,1,3.24-1.44c.79,1,3.81,3.89,5.54,4,4-1.73,7.27-4.83,11.45-15.84,1.44-4.11,3.74-11.31,4.68-14.26.14-.51-.36-.58-.57-.29-4.11,4.75-9.58,10-13,10-.65,0-1.58-.79-1.58-2.88,0-9.43,10.8-20.52,15.19-20.52C976.69,428.64,978.77,429.93,979.57,430.8Zm-13.69,14c0,.86.29,1.58.8,1.58,1.72,0,9.14-7.34,10.87-12-.51-.87-2.09-2.52-3.1-2.52C972.37,431.88,965.88,439.29,965.88,444.84Z"/><path class="cls-1" d="M1004.19,430c.72-.44,1.51-.87,2.3-1.3a4.39,4.39,0,0,1,1.88,1c-2.31,5-5.91,13-5.91,17.57,0,1,.36,1.58.87,1.58.72,0,2.44-1,3.74-2.09a6.16,6.16,0,0,1,.58,2c-1.95,1.66-6.63,4.82-8.65,4.82-.57,0-1.36-.72-1.36-2.3a23.62,23.62,0,0,1,1.51-7.49c.07-.22-.36-.5-.65-.14-4.68,5.11-9.86,9.21-13.18,9.21-.79,0-1.65-.86-1.65-2.73,0-5.33,3.53-13,11.66-18.87,1.95-1.37,4.47-2.66,6-2.66A7.3,7.3,0,0,1,1004.19,430Zm-15,16.34c0,.72.07,1.23.58,1.23,2.3,0,7.92-4.9,12.38-13.83a4.69,4.69,0,0,0-2.45-2.09C997,431.66,989.21,440.23,989.21,446.35Z"/><path class="cls-1" d="M1010.38,449.66c0-3.09,1.8-8.28,4.61-15.55a5.52,5.52,0,0,0,.14-2.52,10,10,0,0,1,3.82-1.87,3.34,3.34,0,0,1,1.73,1.94c-4.47,8.5-5.55,12.46-5.55,14.76,0,1.23.36,1.88.94,1.88.79,0,2.88-1.16,4.46-2.53a5.47,5.47,0,0,1,.65,2.09c-4.53,3.46-7.77,4.83-9,4.83C1011.1,452.69,1010.38,452,1010.38,449.66Zm16.85-33a6.08,6.08,0,0,1-3.89,4.54,3.86,3.86,0,0,1-2.37-2.81c-.08-.43,1.72-4,4.39-4.17A5,5,0,0,1,1027.23,416.68Z"/><path class="cls-1" d="M1030,429.65a22.86,22.86,0,0,1,3.24-.15,10.27,10.27,0,0,1,.14,1.37c0,2-.94,6.48-3,11.74-.15.43.43.43.72.21,8.28-9,14.33-13.61,16.63-13.61,1.15,0,1.44,1.23,1.44,2.88,0,3.39-4.1,11-4.1,14.41,0,1.22.21,1.8,1.8,2.66a4.6,4.6,0,0,1-.87,2.09,14.08,14.08,0,0,1-4.46,1.37c-1.15.14-1.44-.65-1.44-2.38,0-4,3.67-11.45,3.67-13.61,0-1-.22-1-.5-1-1.3,0-7.64,5.26-12.39,11.38-.72,1-2,3-2.59,3.89a4.27,4.27,0,0,1-5.33.43c2.52-5.83,5-13.18,5-16.13a5.87,5.87,0,0,0-.72-3.17A9.26,9.26,0,0,1,1030,429.65Z"/><path class="cls-1" d="M1082.21,430c.72-.44,1.51-.87,2.3-1.3a4.31,4.31,0,0,1,1.87,1c-2.3,5-5.9,13-5.9,17.57,0,1,.36,1.58.86,1.58.72,0,2.45-1,3.75-2.09a5.92,5.92,0,0,1,.57,2c-1.94,1.66-6.62,4.82-8.64,4.82-.57,0-1.37-.72-1.37-2.3a24,24,0,0,1,1.52-7.49c.07-.22-.36-.5-.65-.14-4.68,5.11-9.87,9.21-13.18,9.21-.79,0-1.65-.86-1.65-2.73,0-5.33,3.52-13,11.66-18.87,1.94-1.37,4.46-2.66,6-2.66A7.3,7.3,0,0,1,1082.21,430Zm-15,16.34c0,.72.07,1.23.58,1.23,2.3,0,7.92-4.9,12.38-13.83a4.69,4.69,0,0,0-2.45-2.09C1075,431.66,1067.23,440.23,1067.23,446.35Z"/><path class="cls-1" d="M1097.11,428.49a8.16,8.16,0,0,1,1.87,2.31c-.43,2.09-2.16,5.83-3.17,8.42-1.51,3.53-1.87,5-1.87,6.48,0,.65.22,1.08.65,1.08,1.8,0,4.46-2.09,7.34-5.4a57.41,57.41,0,0,0,7.71-11.66,8.69,8.69,0,0,1,2.45-.79,7,7,0,0,1,2,1.22c-1.87,4.32-3.74,9.58-3.74,14.26,0,1.73.29,3,1.3,3,3.81,0,10.65-10.22,10.65-14.18a6.3,6.3,0,0,0-.43-2.52,10,10,0,0,1,4.9-2,7.42,7.42,0,0,1,.64,3.17c-3.45,10.51-14.18,19.66-18.64,19.66-1.52,0-3.17-.36-3.17-4.47a27.35,27.35,0,0,1,1.15-6.48c.07-.36-.43-.5-.72-.29-4.61,5.47-11.09,11.88-15.19,11.88-1.08,0-1.88-.72-1.88-2.52a24.67,24.67,0,0,1,1.8-8.13c1.66-4.25,2.09-5.91,2.09-6.77a2.57,2.57,0,0,0-1.08-1.87,8.4,8.4,0,0,1,.65-2C1093.8,429.93,1096,428.49,1097.11,428.49Z"/><path class="cls-1" d="M1140.74,430.58c1.3-1.29,3.1-2.3,4-2.3,1.23.43,2.23,1.58,2.23,4.17,0,8.72-9.72,20.74-16.2,20.74-2.59,0-4-2.09-4-5.18,0-7.78,8.07-16.56,11.38-18.65A3.77,3.77,0,0,1,1140.74,430.58Zm-9.14,14.76c0,3,1,3.46,2.59,3.46,2.88,0,8.28-8.14,8.28-13.75a3.73,3.73,0,0,0-2.59-3.89C1135.34,434.11,1131.6,440.73,1131.6,445.34Z"/><path class="cls-1" d="M1156.08,438.86c5-2.37,9.93-6.41,12.09-9.93a6,6,0,0,1,2.16.36,5.09,5.09,0,0,1,.58,2.44c-1.37,1.73-8.78,6.84-11.59,8.36a.45.45,0,0,0-.15.64c2.09,3.32,5.69,7.78,8.72,9a4.38,4.38,0,0,1-.44,1.8,9.48,9.48,0,0,1-4.32,1.36c-2.73-1.8-6.84-8-8.85-11.3a75.12,75.12,0,0,0-3.17,10,7.61,7.61,0,0,1-3.75,1.73,3.73,3.73,0,0,1-1.87-1.59c1.15-1.87,4.11-8.21,8.86-21.17,3.89-10.66,6.84-20,6.26-21.53a11.28,11.28,0,0,1,4.18-1.73,5.78,5.78,0,0,1,1.58,2.24c-3,7.2-7.12,18.57-11,28.94C1155.29,438.79,1155.65,439,1156.08,438.86Z"/><path class="cls-1" d="M1185.89,427.7c3.16,0,5.9.72,6,3.31.15,4.11-6,7.85-13.75,7.85a18.57,18.57,0,0,0-1.8,7.35c0,1.65.14,3.24,1.73,3.24,2.88,0,7.2-3.24,9.79-5.47a3.65,3.65,0,0,1,.65,2.59c-3.1,2.66-9.79,6.77-13.32,6.77-2.74,0-4.18-1.44-4.18-4.18,0-6.48,5.55-16,11.6-20.88A13.5,13.5,0,0,1,1185.89,427.7Zm-6.63,8.71c3.89,0,8.14-1.29,8.14-4.24,0-1.44-1.3-2-3.39-2A26.29,26.29,0,0,0,1179.26,436.41Z"/><path class="cls-1" d="M1202.49,449.66c0-3.09,1.8-8.28,4.61-15.55a5.52,5.52,0,0,0,.14-2.52,9.88,9.88,0,0,1,3.82-1.87,3.33,3.33,0,0,1,1.72,1.94c-4.46,8.5-5.54,12.46-5.54,14.76,0,1.23.36,1.88.94,1.88.79,0,2.88-1.16,4.46-2.53a5.47,5.47,0,0,1,.65,2.09c-4.54,3.46-7.78,4.83-9,4.83S1202.49,452,1202.49,449.66Zm16.85-33a6.08,6.08,0,0,1-3.89,4.54,3.88,3.88,0,0,1-2.38-2.81c-.07-.43,1.73-4,4.39-4.17A5,5,0,0,1,1219.34,416.68Z"/><path class="cls-1" d="M1222.14,429.65a22.93,22.93,0,0,1,3.24-.15,8.93,8.93,0,0,1,.15,1.37c0,2-.94,6.48-3,11.74-.14.43.44.43.72.21,8.28-9,14.33-13.61,16.64-13.61,1.15,0,1.44,1.23,1.44,2.88,0,3.39-4.11,11-4.11,14.41,0,1.22.22,1.8,1.8,2.66a4.48,4.48,0,0,1-.86,2.09,14.06,14.06,0,0,1-4.47,1.37c-1.15.14-1.44-.65-1.44-2.38,0-4,3.68-11.45,3.68-13.61,0-1-.22-1-.51-1-1.29,0-7.63,5.26-12.38,11.38-.72,1-2,3-2.59,3.89a6.15,6.15,0,0,1-3.32,1.15,5.94,5.94,0,0,1-2-.72c2.52-5.83,5-13.18,5-16.13a6,6,0,0,0-.72-3.17A9.23,9.23,0,0,1,1222.14,429.65Z"/><path class="cls-1" d="M1271.79,415.17a4.34,4.34,0,0,1,1.73,1.73,135.18,135.18,0,0,0-6.26,12.46c1.94,0,5.69-.07,8.28-.29a4.92,4.92,0,0,1-1.15,2.16,59.55,59.55,0,0,1-8.57,1.37c-3.39,8.21-4.61,12.09-4.61,14.18,0,1.16.22,1.59.72,1.59,1.37-.07,4.1-1.59,7.56-4.25a4.45,4.45,0,0,1,.65,2.45c-4.54,3.24-9.79,6.55-12.1,6.55-1.08,0-1.94-1.22-1.94-3.1,0-2.73,1.87-9,5.4-17.06-1.51,0-3.75.07-5,.07a4.36,4.36,0,0,1,1.08-2.16c1.58-.43,3.31-.65,5.33-1.08,1.87-4.1,4.89-11.45,4.68-12.53A11.16,11.16,0,0,1,1271.79,415.17Z"/><path class="cls-1" d="M1280.29,428.06c3.09-9.07,5.33-15.84,5.25-18.5a9.56,9.56,0,0,1,3.39-2.24,7.2,7.2,0,0,1,2.74.94c-2,5.26-3.32,8.71-6,16.06-1.08,2.95-4.32,11.59-5.26,13.89-.07.44.44.65.58.44,5.33-4.9,12.31-10.52,15.55-10.52a1.61,1.61,0,0,1,1.44,1.73c0,4.9-4.89,12.1-4.68,16.56a2.59,2.59,0,0,0,1.23,2,10.46,10.46,0,0,1-.8,2.16,10.84,10.84,0,0,1-4.75,1.66c-.5,0-1.08-.8-1.08-2,0-5.4,4.54-12.1,4.54-15.19,0-.51-.22-1.16-.65-1.16-2.3,0-8.93,5.84-12.67,12-1.37,2.3-1.8,3.31-3,5.61a10.88,10.88,0,0,1-3.67,1.16c-.29,0-.86-.58-1.22-.8C1273.16,447.65,1277.41,436.41,1280.29,428.06Z"/><path class="cls-1" d="M1314.27,427.7c3.17,0,5.91.72,6,3.31.15,4.11-6,7.85-13.75,7.85a18.4,18.4,0,0,0-1.8,7.35c0,1.65.14,3.24,1.73,3.24,2.88,0,7.2-3.24,9.79-5.47a3.65,3.65,0,0,1,.65,2.59c-3.1,2.66-9.8,6.77-13.32,6.77-2.74,0-4.18-1.44-4.18-4.18,0-6.48,5.54-16,11.59-20.88A13.59,13.59,0,0,1,1314.27,427.7Zm-6.62,8.71c3.89,0,8.14-1.29,8.14-4.24,0-1.44-1.3-2-3.39-2A26.29,26.29,0,0,0,1307.65,436.41Z"/><path class="cls-1" d="M1337.93,428.06c3.1-9.07,5.33-15.84,5.26-18.5a9.44,9.44,0,0,1,3.38-2.24,7.2,7.2,0,0,1,2.74.94c-2,5.26-3.31,8.71-6,16.06-1.08,2.95-4.32,11.59-5.25,13.89-.08.44.43.65.57.44,5.33-4.9,12.31-10.52,15.56-10.52a1.62,1.62,0,0,1,1.44,1.73c0,4.9-4.9,12.1-4.69,16.56a2.59,2.59,0,0,0,1.23,2,10.4,10.4,0,0,1-.79,2.16,10.88,10.88,0,0,1-4.76,1.66c-.5,0-1.08-.8-1.08-2,0-5.4,4.54-12.1,4.54-15.19,0-.51-.22-1.16-.65-1.16-2.3,0-8.93,5.84-12.67,12-1.37,2.3-1.8,3.31-3,5.61a11,11,0,0,1-3.67,1.16c-.29,0-.87-.58-1.23-.8C1330.8,447.65,1335.05,436.41,1337.93,428.06Z"/><path class="cls-1" d="M1371.92,427.7c3.16,0,5.9.72,6,3.31.15,4.11-6,7.85-13.75,7.85a18.57,18.57,0,0,0-1.8,7.35c0,1.65.14,3.24,1.73,3.24,2.88,0,7.2-3.24,9.79-5.47a3.65,3.65,0,0,1,.65,2.59c-3.1,2.66-9.79,6.77-13.32,6.77-2.74,0-4.18-1.44-4.18-4.18,0-6.48,5.55-16,11.6-20.88A13.5,13.5,0,0,1,1371.92,427.7Zm-6.63,8.71c3.89,0,8.14-1.29,8.14-4.24,0-1.44-1.3-2-3.39-2A26.29,26.29,0,0,0,1365.29,436.41Z"/><path class="cls-1" d="M1397,430c.72-.44,1.51-.87,2.31-1.3a4.42,4.42,0,0,1,1.87,1c-2.31,5-5.91,13-5.91,17.57,0,1,.36,1.58.87,1.58.72,0,2.45-1,3.74-2.09a5.93,5.93,0,0,1,.58,2c-2,1.66-6.63,4.82-8.64,4.82-.58,0-1.37-.72-1.37-2.3a23.91,23.91,0,0,1,1.51-7.49c.07-.22-.36-.5-.65-.14-4.68,5.11-9.86,9.21-13.17,9.21-.8,0-1.66-.86-1.66-2.73,0-5.33,3.53-13,11.67-18.87,1.94-1.37,4.46-2.66,6-2.66A7.3,7.3,0,0,1,1397,430Zm-15,16.34c0,.72.08,1.23.58,1.23,2.31,0,7.92-4.9,12.39-13.83a4.77,4.77,0,0,0-2.45-2.09C1389.77,431.66,1382,440.23,1382,446.35Z"/><path class="cls-1" d="M1410,446.14a49.81,49.81,0,0,0-2.88,5.68,11.8,11.8,0,0,1-2.73,1.37,4.74,4.74,0,0,1-2.38-.93c2.81-6.56,5.33-13.76,5.4-16.42a9.42,9.42,0,0,0-.72-4.11,5.39,5.39,0,0,1,5.11-2.66,7.93,7.93,0,0,1,.36,2.95,25.73,25.73,0,0,1-1.37,6.84c-.21.43.44.51.58.36,5.91-7.7,10.73-12.24,12.75-12.24a9.66,9.66,0,0,1,3.24,1.73,8.71,8.71,0,0,1-.65,3.24,6.09,6.09,0,0,1-2.81,1.15,4.54,4.54,0,0,1-1.94-1.44C1420.44,432.17,1415.76,436.77,1410,446.14Z"/><path class="cls-1" d="M1442.33,415.17a4.4,4.4,0,0,1,1.73,1.73,132.71,132.71,0,0,0-6.27,12.46c2,0,5.69-.07,8.29-.29a4.85,4.85,0,0,1-1.16,2.16,59.1,59.1,0,0,1-8.57,1.37c-3.38,8.21-4.6,12.09-4.6,14.18,0,1.16.21,1.59.72,1.59,1.36-.07,4.1-1.59,7.56-4.25a4.45,4.45,0,0,1,.64,2.45c-4.53,3.24-9.79,6.55-12.09,6.55-1.08,0-1.95-1.22-1.95-3.1,0-2.73,1.87-9,5.4-17.06-1.51,0-3.74.07-5,.07a4.45,4.45,0,0,1,1.08-2.16c1.59-.43,3.32-.65,5.33-1.08,1.87-4.1,4.9-11.45,4.68-12.53A11.28,11.28,0,0,1,1442.33,415.17Z"/><path class="cls-1" d="M1467.57,430.58c1.3-1.29,3.1-2.3,4-2.3,1.23.43,2.23,1.58,2.23,4.17,0,8.72-9.72,20.74-16.2,20.74-2.59,0-4-2.09-4-5.18,0-7.78,8.07-16.56,11.38-18.65A3.77,3.77,0,0,1,1467.57,430.58Zm-9.14,14.76c0,3,1,3.46,2.59,3.46,2.88,0,8.28-8.14,8.28-13.75a3.73,3.73,0,0,0-2.59-3.89C1462.17,434.11,1458.43,440.73,1458.43,445.34Z"/><path class="cls-1" d="M1495,408.48a14.77,14.77,0,0,1,4.54-.94,33.46,33.46,0,0,1,2.59,10.51,5.33,5.33,0,0,1-2.73,1.59,6.77,6.77,0,0,1-1.66-.94,25.72,25.72,0,0,0-.65-6.26c-.07-.36-.65-.22-.86.07a62,62,0,0,0-5,8.93c-1.08,2.3-2.66,5.9-4.1,9.57,2.8-.07,5.83-.21,8.13-.43a4.46,4.46,0,0,1-.79,2.16c-1.37.36-5.4.94-8.64,1.37-7.13,18.22-11.52,32.26-11.52,37.3a10.38,10.38,0,0,0,.07,2.16,9,9,0,0,1-2.74,1.73,4.62,4.62,0,0,1-3.24-1.87,366.39,366.39,0,0,1,13-39c-2,.14-3.68.36-4.76.5a6.47,6.47,0,0,1-.21-1.51,9.49,9.49,0,0,1,1.65-2c1.37-.08,2.81-.15,4.68-.29C1488,419.64,1491.26,413.3,1495,408.48Z"/><path class="cls-1" d="M1522.33,443.54c7.92-10,13.33-14.54,15.77-14.54.72,0,1.16.5,1.16,1.65,0,3.6-3.68,11.16-3.68,15.56a2.47,2.47,0,0,0,1.8,2.09,6,6,0,0,1-.36,1.87,9.77,9.77,0,0,1-5.11,2c-.65,0-1.15-.72-1.15-2.44,0-3.6,3-11.45,3-12.53,0-.51-.07-.87-.36-.87-1.22,0-3.6,2-9.29,9.15a63.57,63.57,0,0,0-3.74,5.61,10,10,0,0,1-3.46,1.52,3.42,3.42,0,0,1-2-1.44c2.45-6.12,4.75-12.25,4.68-14.26,0-.58-.36-.58-.79-.58-1.3,0-5.62,4.25-9.51,9.08a26.51,26.51,0,0,0-3,4.89,8.7,8.7,0,0,1-3.39,1.87A4.15,4.15,0,0,1,1501,451c2.59-6,5.26-13,5.26-16.85a4.75,4.75,0,0,0-.44-1.94c.44-1,2.09-1.95,3-2.45a11.21,11.21,0,0,1,3,.29c0,2.95-1,5.76-2.52,10.8-.07.43.5.64.65.36,5.83-6.48,10.65-11.16,13.68-11.16.79,0,1.44.43,1.44,1.65,0,1.8-.94,4.83-3.39,11.74C1521.47,443.76,1522.12,443.83,1522.33,443.54Z"/><path class="cls-1" d="M1562,430c.72-.44,1.52-.87,2.31-1.3a4.31,4.31,0,0,1,1.87,1c-2.3,5-5.9,13-5.9,17.57,0,1,.36,1.58.86,1.58.72,0,2.45-1,3.74-2.09a5.93,5.93,0,0,1,.58,2c-1.94,1.66-6.62,4.82-8.64,4.82-.58,0-1.37-.72-1.37-2.3a24.2,24.2,0,0,1,1.51-7.49c.08-.22-.36-.5-.64-.14-4.68,5.11-9.87,9.21-13.18,9.21-.79,0-1.66-.86-1.66-2.73,0-5.33,3.53-13,11.67-18.87,1.94-1.37,4.46-2.66,6-2.66A7.24,7.24,0,0,1,1562,430Zm-15,16.34c0,.72.07,1.23.57,1.23,2.31,0,7.92-4.9,12.39-13.83a4.69,4.69,0,0,0-2.45-2.09C1554.8,431.66,1547,440.23,1547,446.35Z"/><path class="cls-1" d="M1575.11,429.65a22.86,22.86,0,0,1,3.24-.15,10.27,10.27,0,0,1,.14,1.37c0,2-.94,6.48-3,11.74-.15.43.43.43.72.21,8.28-9,14.33-13.61,16.63-13.61,1.15,0,1.44,1.23,1.44,2.88,0,3.39-4.1,11-4.1,14.41,0,1.22.21,1.8,1.8,2.66a4.6,4.6,0,0,1-.87,2.09,14.08,14.08,0,0,1-4.46,1.37c-1.15.14-1.44-.65-1.44-2.38,0-4,3.67-11.45,3.67-13.61,0-1-.22-1-.5-1-1.3,0-7.64,5.26-12.39,11.38-.72,1-2,3-2.59,3.89a4.27,4.27,0,0,1-5.33.43c2.52-5.83,5-13.18,5-16.13a5.87,5.87,0,0,0-.72-3.17A9.26,9.26,0,0,1,1575.11,429.65Z"/><path class="cls-1" d="M1598.65,446.42a4.21,4.21,0,0,1,2.88,2.16,11.78,11.78,0,0,1-.79,2.74,47.89,47.89,0,0,1-7.63,10.73,3.87,3.87,0,0,1-2.45-.79,27.9,27.9,0,0,0,6-13.32A6.62,6.62,0,0,1,1598.65,446.42Z"/><path class="cls-1" d="M333.59,516.41c.72-.44,1.52-.87,2.31-1.3a4.36,4.36,0,0,1,1.87,1c-2.3,5-5.9,13-5.9,17.57,0,1,.36,1.58.86,1.58.72,0,2.45-1,3.74-2.09a5.93,5.93,0,0,1,.58,2c-1.94,1.66-6.62,4.82-8.64,4.82-.58,0-1.37-.72-1.37-2.3a23.91,23.91,0,0,1,1.51-7.49c.07-.22-.36-.5-.64-.14-4.69,5.11-9.87,9.21-13.18,9.21-.79,0-1.66-.86-1.66-2.73,0-5.33,3.53-13,11.67-18.87,1.94-1.37,4.46-2.66,6-2.66A7.24,7.24,0,0,1,333.59,516.41Zm-15,16.34c0,.72.07,1.23.57,1.23,2.31,0,7.92-4.9,12.39-13.83a4.69,4.69,0,0,0-2.45-2.09C326.39,518.06,318.62,526.63,318.62,532.75Z"/><path class="cls-1" d="M346.7,516.05a22.86,22.86,0,0,1,3.24-.15,10.27,10.27,0,0,1,.14,1.37c0,2-.94,6.48-3,11.74-.15.43.43.43.72.21,8.28-9,14.33-13.61,16.63-13.61,1.15,0,1.44,1.23,1.44,2.88,0,3.39-4.1,11-4.1,14.41,0,1.22.21,1.8,1.79,2.66a4.48,4.48,0,0,1-.86,2.09,14.08,14.08,0,0,1-4.46,1.37c-1.16.14-1.44-.65-1.44-2.38,0-4,3.67-11.45,3.67-13.61,0-1-.22-1-.5-1-1.3,0-7.64,5.26-12.39,11.38-.72,1-2,3-2.59,3.89a6.12,6.12,0,0,1-3.31,1.15,6,6,0,0,1-2-.72c2.52-5.83,5-13.18,5-16.13a5.87,5.87,0,0,0-.72-3.17A9.26,9.26,0,0,1,346.7,516.05Z"/><path class="cls-1" d="M386.58,526.2c-6.48,7.2-12.88,12.67-16.05,12.67-1.23,0-2.16-.93-2.16-3.09,0-9.44,13-20.53,17.28-20.53,1.29,0,3,1.37,4.32,2.88,2.66-6.33,6.26-15.26,8.35-21.45a4.52,4.52,0,0,0,.22-1.44,10.9,10.9,0,0,1,4.53-1.44,5,5,0,0,1,.8,3C401,501.5,396,513,392.13,523.89c-1.3,3.75-2.45,8-2.23,11.81.07,1.3.43,2.16.93,2.31a6.09,6.09,0,0,1-.21,2c-.94.87-3.24,2.24-4.4,2.24-.86-.65-1.22-2.67-1.22-4.47a39.45,39.45,0,0,1,2.16-11.23C387.3,526.2,386.73,526.05,386.58,526.2ZM374,531.46c0,1.22.29,1.58.87,1.58,2.09,0,9.57-7.42,12.31-12.1-.5-1.29-1.94-2.52-2.88-2.52C381.9,518.42,374,526.63,374,531.46Z"/><path class="cls-1" d="M416.85,514.46c3.09-9.07,5.32-15.84,5.25-18.5a9.56,9.56,0,0,1,3.39-2.24,7.14,7.14,0,0,1,2.73.94c-1.94,5.26-3.31,8.71-6,16.06-1.08,2.95-4.32,11.59-5.26,13.89-.07.44.43.65.58.44,5.33-4.9,12.31-10.52,15.55-10.52a1.62,1.62,0,0,1,1.44,1.73c0,4.9-4.9,12.1-4.68,16.56a2.61,2.61,0,0,0,1.22,2,9.85,9.85,0,0,1-.79,2.16,10.84,10.84,0,0,1-4.75,1.66c-.5,0-1.08-.8-1.08-2,0-5.4,4.54-12.1,4.54-15.19,0-.51-.22-1.16-.65-1.16-2.31,0-8.93,5.84-12.68,12-1.36,2.3-1.8,3.31-2.95,5.61a10.88,10.88,0,0,1-3.67,1.16c-.29,0-.86-.58-1.22-.8C409.72,534.05,414,522.81,416.85,514.46Z"/><path class="cls-1" d="M436.57,536.06c0-3.09,1.8-8.28,4.61-15.55a5.5,5.5,0,0,0,.15-2.52,9.84,9.84,0,0,1,3.81-1.87,3.34,3.34,0,0,1,1.73,1.94c-4.46,8.5-5.54,12.46-5.54,14.76,0,1.23.36,1.88.93,1.88.79,0,2.88-1.16,4.47-2.53a5.65,5.65,0,0,1,.65,2.09c-4.54,3.46-7.78,4.83-9,4.83C437.29,539.09,436.57,538.44,436.57,536.06Zm16.85-33a6.06,6.06,0,0,1-3.88,4.54,3.86,3.86,0,0,1-2.38-2.81c-.07-.43,1.73-4,4.39-4.17A5,5,0,0,1,453.42,503.08Z"/><path class="cls-1" d="M469,515.47a6.19,6.19,0,0,1,.21,1.8,6,6,0,0,1-2.95,2.09c-.72-.43-2.66-1.73-3.6-1.73a3,3,0,0,0-1.51.5,6,6,0,0,0-2.52,4.25c0,1.08.43,1.51,3.74,1.8s5.33,1.3,5.33,3.75c0,5.11-7.63,11.66-15,11.66-3.67,0-4.68-.72-4.68-1.87,0-1.66.22-3,2.38-6.77.29,0,.72-.07,1.15-.07a2.83,2.83,0,0,1,1.44.21,11.27,11.27,0,0,0-1,3.89c0,1,.87,1.66,2.67,1.66,4.32,0,7.7-3.39,7.7-6.91,0-1.23-.58-1.66-4-1.88s-4.61-.93-4.61-2.8c0-3.46,6.27-10.8,10.37-10.8A14.1,14.1,0,0,1,469,515.47Z"/><path class="cls-1" d="M493.76,516.77a5.5,5.5,0,0,1,1.23,1.36c-3.75,6.48-5.11,10.52-5.11,13.33,0,.64.14,1.36.64,1.36,1.59,0,7.2-5,13.69-15.12a8.86,8.86,0,0,1,3.88-1.58,4.1,4.1,0,0,1,1.59,1.37c-2.95,5.54-5,12.67-5,14.9,0,.79.22,1.3.65,1.3,1.08,0,2.73-.94,4.89-2.6a3.93,3.93,0,0,1,.51,2.09c-2.23,2.16-7,5.26-9.15,5.26-.86,0-1.72-.72-1.72-2.74a30.79,30.79,0,0,1,2.08-9.21c.15-.44-.5-.36-.64-.29-7.13,8.35-12.25,12.17-14.77,12.17-1.22,0-2.08-.94-2.08-2.74,0-4.32,3.24-12.17,6-17.64A11.15,11.15,0,0,1,493.76,516.77Z"/><path class="cls-1" d="M519.33,516.05a22.86,22.86,0,0,1,3.24-.15,10.27,10.27,0,0,1,.14,1.37c0,2-.94,6.48-3,11.74-.14.43.44.43.73.21,8.28-9,14.32-13.61,16.63-13.61,1.15,0,1.44,1.23,1.44,2.88,0,3.39-4.11,11-4.11,14.41,0,1.22.22,1.8,1.8,2.66a4.48,4.48,0,0,1-.86,2.09,14.08,14.08,0,0,1-4.46,1.37c-1.16.14-1.44-.65-1.44-2.38,0-4,3.67-11.45,3.67-13.61,0-1-.22-1-.51-1-1.29,0-7.63,5.26-12.38,11.38-.72,1-2,3-2.59,3.89a6.15,6.15,0,0,1-3.32,1.15,5.94,5.94,0,0,1-2-.72c2.52-5.83,5-13.18,5-16.13a6,6,0,0,0-.72-3.17A9.26,9.26,0,0,1,519.33,516.05Z"/><path class="cls-1" d="M550.5,522.17c-.22.43.43.43.58.21,4.53-4.25,10.65-8.35,12.31-8.35,1.44,0,2.66,2.38,2.66,4.39,0,4.47-3.38,12.67-7.34,16.49s-8.43,5-9.87,5c-1.15,0-3.38-1.15-4.32-1.73a5.32,5.32,0,0,1-2.23.72,3.37,3.37,0,0,1-2-1.94c2.44-4.68,5.61-12.46,9.5-24.2,2.38-6.84,4.82-14.25,5.18-17.35a12.3,12.3,0,0,1,4.18-1.94,5.24,5.24,0,0,1,1.3,2.08c-1.16,2.74-3.24,7.92-5.12,13.11C553.74,512.88,552.37,517.05,550.5,522.17Zm7.78,7.56a18.33,18.33,0,0,0,2.37-8.21c0-1.73-.43-1.95-.93-1.95-1.73,0-9.87,5.26-13.61,14.84,1,1.29,3.09,2.66,4.1,2.66C552.23,537.07,555.76,534.7,558.28,529.73Z"/><path class="cls-1" d="M567.27,536.06c0-3.09,1.8-8.28,4.61-15.55A5.5,5.5,0,0,0,572,518a9.84,9.84,0,0,1,3.81-1.87,3.34,3.34,0,0,1,1.73,1.94c-4.46,8.5-5.54,12.46-5.54,14.76,0,1.23.36,1.88.93,1.88.79,0,2.88-1.16,4.47-2.53a5.65,5.65,0,0,1,.65,2.09c-4.54,3.46-7.78,4.83-9,4.83S567.27,538.44,567.27,536.06Zm16.85-33a6.06,6.06,0,0,1-3.88,4.54,3.86,3.86,0,0,1-2.38-2.81c-.07-.43,1.73-4,4.39-4.17A5,5,0,0,1,584.12,503.08Z"/><path class="cls-1" d="M586.93,516.05a22.93,22.93,0,0,1,3.24-.15,10.27,10.27,0,0,1,.14,1.37c0,2-.93,6.48-3,11.74-.14.43.43.43.72.21,8.28-9,14.33-13.61,16.63-13.61,1.16,0,1.44,1.23,1.44,2.88,0,3.39-4.1,11-4.1,14.41,0,1.22.22,1.8,1.8,2.66a4.48,4.48,0,0,1-.86,2.09,14.13,14.13,0,0,1-4.47,1.37c-1.15.14-1.44-.65-1.44-2.38,0-4,3.67-11.45,3.67-13.61,0-1-.21-1-.5-1-1.3,0-7.63,5.26-12.39,11.38-.72,1-2,3-2.59,3.89a4.27,4.27,0,0,1-5.33.43c2.52-5.83,5-13.18,5-16.13a5.87,5.87,0,0,0-.72-3.17A9.39,9.39,0,0,1,586.93,516.05Z"/><path class="cls-1" d="M626.82,526.2c-6.48,7.2-12.89,12.67-16.06,12.67-1.22,0-2.16-.93-2.16-3.09,0-9.44,13-20.53,17.28-20.53,1.3,0,3,1.37,4.32,2.88,2.67-6.33,6.27-15.26,8.35-21.45a4.52,4.52,0,0,0,.22-1.44,10.9,10.9,0,0,1,4.54-1.44,5.07,5.07,0,0,1,.79,3c-2.88,4.68-7.92,16.2-11.74,27.07-1.29,3.75-2.45,8-2.23,11.81.07,1.3.43,2.16.94,2.31a5.83,5.83,0,0,1-.22,2c-.94.87-3.24,2.24-4.39,2.24-.87-.65-1.23-2.67-1.23-4.47a39.8,39.8,0,0,1,2.16-11.23C627.54,526.2,627,526.05,626.82,526.2Zm-12.6,5.26c0,1.22.28,1.58.86,1.58,2.09,0,9.58-7.42,12.31-12.1-.5-1.29-1.94-2.52-2.88-2.52C622.14,518.42,614.22,526.63,614.22,531.46Z"/><path class="cls-1" d="M636.68,536.06c0-3.09,1.8-8.28,4.61-15.55a5.52,5.52,0,0,0,.14-2.52,10,10,0,0,1,3.82-1.87,3.34,3.34,0,0,1,1.73,1.94c-4.47,8.5-5.55,12.46-5.55,14.76,0,1.23.36,1.88.94,1.88.79,0,2.88-1.16,4.46-2.53a5.47,5.47,0,0,1,.65,2.09c-4.53,3.46-7.77,4.83-9,4.83S636.68,538.44,636.68,536.06Zm16.85-33a6.08,6.08,0,0,1-3.89,4.54,3.86,3.86,0,0,1-2.37-2.81c-.08-.43,1.72-4,4.39-4.17A5,5,0,0,1,653.53,503.08Z"/><path class="cls-1" d="M656.34,516.05a22.86,22.86,0,0,1,3.24-.15,10.27,10.27,0,0,1,.14,1.37c0,2-.94,6.48-3,11.74-.15.43.43.43.72.21,8.28-9,14.33-13.61,16.63-13.61,1.15,0,1.44,1.23,1.44,2.88,0,3.39-4.1,11-4.1,14.41,0,1.22.21,1.8,1.8,2.66a4.6,4.6,0,0,1-.87,2.09,14.08,14.08,0,0,1-4.46,1.37c-1.15.14-1.44-.65-1.44-2.38,0-4,3.67-11.45,3.67-13.61,0-1-.22-1-.5-1-1.3,0-7.64,5.26-12.39,11.38-.72,1-2,3-2.59,3.89a4.27,4.27,0,0,1-5.33.43c2.52-5.83,5-13.18,5-16.13a5.87,5.87,0,0,0-.72-3.17A9.26,9.26,0,0,1,656.34,516.05Z"/><path class="cls-1" d="M697,517.2a9.31,9.31,0,0,1,2.66-1.73,4.85,4.85,0,0,1,1.87,1.66c-1.8,2.59-4.82,15.12-8.57,25.92-3.45,9.93-11.45,18-18.21,18.86-2.09-.07-5.41-2.23-7.06-3.45a6.55,6.55,0,0,1,.65-2.16,8.54,8.54,0,0,1,3.24-1.44c.79,1,3.81,3.89,5.54,4,4-1.73,7.27-4.83,11.45-15.84,1.44-4.11,3.74-11.31,4.68-14.26.14-.51-.36-.58-.58-.29-4.1,4.75-9.57,10-13,10-.65,0-1.58-.79-1.58-2.88,0-9.43,10.8-20.52,15.19-20.52C694.07,515,696.15,516.33,697,517.2Zm-13.69,14c0,.86.29,1.58.8,1.58,1.72,0,9.14-7.34,10.87-12-.51-.87-2.09-2.52-3.1-2.52C689.75,518.28,683.26,525.69,683.26,531.24Z"/><path class="cls-1" d="M724.25,514.89a8.37,8.37,0,0,1,1.88,2.31c-.44,2.09-2.16,5.83-3.17,8.42-1.51,3.53-1.87,5-1.87,6.48,0,.65.21,1.08.64,1.08,1.8,0,4.47-2.09,7.35-5.4a57,57,0,0,0,7.7-11.66,8.8,8.8,0,0,1,2.45-.79,7.17,7.17,0,0,1,2,1.22c-1.87,4.32-3.75,9.58-3.75,14.26,0,1.73.29,3,1.3,3,3.82,0,10.66-10.22,10.66-14.18a6.29,6.29,0,0,0-.44-2.52,10.07,10.07,0,0,1,4.9-2,7.58,7.58,0,0,1,.65,3.17c-3.46,10.51-14.19,19.66-18.65,19.66-1.51,0-3.17-.36-3.17-4.47A27.35,27.35,0,0,1,733.9,527c.08-.36-.43-.5-.72-.29-4.6,5.47-11.09,11.88-15.19,11.88-1.08,0-1.87-.72-1.87-2.52a24.42,24.42,0,0,1,1.8-8.13c1.65-4.25,2.09-5.91,2.09-6.77a2.6,2.6,0,0,0-1.08-1.87,8,8,0,0,1,.64-2C720.94,516.33,723.17,514.89,724.25,514.89Z"/><path class="cls-1" d="M754.57,536.06c0-3.09,1.8-8.28,4.6-15.55a5.5,5.5,0,0,0,.15-2.52,9.84,9.84,0,0,1,3.81-1.87,3.34,3.34,0,0,1,1.73,1.94c-4.46,8.5-5.54,12.46-5.54,14.76,0,1.23.36,1.88.93,1.88.8,0,2.88-1.16,4.47-2.53a5.47,5.47,0,0,1,.65,2.09c-4.54,3.46-7.78,4.83-9,4.83S754.57,538.44,754.57,536.06Zm16.85-33a6.08,6.08,0,0,1-3.89,4.54,3.86,3.86,0,0,1-2.38-2.81c-.07-.43,1.73-4,4.39-4.17A5,5,0,0,1,771.42,503.08Z"/><path class="cls-1" d="M785.89,494.08a5.82,5.82,0,0,1,1.08,1.59c-2.45,5.33-7.56,16-11.16,25.78-2.45,6.62-2.74,9.43-2.74,12.17a6.71,6.71,0,0,0,.5,2.8,10.58,10.58,0,0,1-.64,2,15.46,15.46,0,0,1-4.11,1.65,2.38,2.38,0,0,1-1.08-2.16c0-4.89,1.73-10.94,6.12-21.89,4-10,7.2-17.42,7.42-19.87A6.77,6.77,0,0,1,785.89,494.08Z"/><path class="cls-1" d="M798.27,494.08a5.6,5.6,0,0,1,1.08,1.59c-2.45,5.33-7.56,16-11.16,25.78-2.45,6.62-2.74,9.43-2.74,12.17a6.7,6.7,0,0,0,.51,2.8,10.63,10.63,0,0,1-.65,2,15.39,15.39,0,0,1-4.1,1.65,2.38,2.38,0,0,1-1.09-2.16c0-4.89,1.73-10.94,6.13-21.89,4-10,7.2-17.42,7.41-19.87A6.8,6.8,0,0,1,798.27,494.08Z"/><path class="cls-1" d="M812.19,524.9a17.46,17.46,0,0,0-2.81,8.14,2.51,2.51,0,0,0,2.45,2.59c2.09,0,5-2.16,9.5-7.2a3,3,0,0,1,.87,2.16c-4.83,5.47-9.65,9.43-13.68,9.43-2.16,0-4.11-1.22-4.11-4.89,0-6.7,7.85-17.14,15.27-21.1a16.09,16.09,0,0,1,2.66.36,6.32,6.32,0,0,1,1.44,2.16,5.75,5.75,0,0,1-.57,1.94,8.89,8.89,0,0,1-3.1,1.23c-.79-.43-1-1.8-2.16-1.8A32.88,32.88,0,0,0,812.19,524.9Z"/><path class="cls-1" d="M843.58,516.41c.72-.44,1.51-.87,2.31-1.3a4.42,4.42,0,0,1,1.87,1c-2.31,5-5.91,13-5.91,17.57,0,1,.36,1.58.87,1.58.72,0,2.45-1,3.74-2.09a5.93,5.93,0,0,1,.58,2c-1.95,1.66-6.63,4.82-8.64,4.82-.58,0-1.37-.72-1.37-2.3a23.91,23.91,0,0,1,1.51-7.49c.07-.22-.36-.5-.65-.14-4.68,5.11-9.86,9.21-13.17,9.21-.8,0-1.66-.86-1.66-2.73,0-5.33,3.53-13,11.67-18.87,1.94-1.37,4.46-2.66,6-2.66A7.3,7.3,0,0,1,843.58,516.41Zm-15,16.34c0,.72.08,1.23.58,1.23,2.31,0,7.92-4.9,12.39-13.83a4.77,4.77,0,0,0-2.45-2.09C836.38,518.06,828.6,526.63,828.6,532.75Z"/><path class="cls-1" d="M856.61,532.54a49.81,49.81,0,0,0-2.88,5.68,11.8,11.8,0,0,1-2.73,1.37,4.74,4.74,0,0,1-2.38-.93c2.81-6.56,5.33-13.76,5.4-16.42a9.42,9.42,0,0,0-.72-4.11,5.39,5.39,0,0,1,5.11-2.66,7.93,7.93,0,0,1,.36,2.95,26,26,0,0,1-1.36,6.84c-.22.43.43.51.57.36,5.91-7.7,10.73-12.24,12.75-12.24a9.66,9.66,0,0,1,3.24,1.73,8.71,8.71,0,0,1-.65,3.24,6.09,6.09,0,0,1-2.81,1.15,4.54,4.54,0,0,1-1.94-1.44C867.05,518.57,862.37,523.17,856.61,532.54Z"/><path class="cls-1" d="M878.43,532.54a48.19,48.19,0,0,0-2.88,5.68,11.88,11.88,0,0,1-2.74,1.37,4.7,4.7,0,0,1-2.37-.93c2.8-6.56,5.32-13.76,5.4-16.42a9.42,9.42,0,0,0-.72-4.11,5.39,5.39,0,0,1,5.11-2.66,7.93,7.93,0,0,1,.36,2.95,25.73,25.73,0,0,1-1.37,6.84c-.22.43.43.51.58.36,5.9-7.7,10.73-12.24,12.74-12.24a9.47,9.47,0,0,1,3.24,1.73,8.52,8.52,0,0,1-.65,3.24,6.06,6.06,0,0,1-2.8,1.15,4.62,4.62,0,0,1-2-1.44C888.87,518.57,884.19,523.17,878.43,532.54Z"/><path class="cls-1" d="M893.62,536.06c0-3.09,1.8-8.28,4.61-15.55a5.52,5.52,0,0,0,.14-2.52,10,10,0,0,1,3.82-1.87,3.37,3.37,0,0,1,1.73,1.94c-4.47,8.5-5.55,12.46-5.55,14.76,0,1.23.36,1.88.94,1.88.79,0,2.88-1.16,4.46-2.53a5.47,5.47,0,0,1,.65,2.09c-4.54,3.46-7.78,4.83-9,4.83S893.62,538.44,893.62,536.06Zm16.85-33a6.08,6.08,0,0,1-3.89,4.54,3.88,3.88,0,0,1-2.38-2.81c-.07-.43,1.73-4,4.4-4.17A5,5,0,0,1,910.47,503.08Z"/><path class="cls-1" d="M921.41,514.1c3.17,0,5.91.72,6.05,3.31.14,4.11-6,7.85-13.75,7.85a18.4,18.4,0,0,0-1.8,7.35c0,1.65.14,3.24,1.72,3.24,2.89,0,7.21-3.24,9.8-5.47a3.69,3.69,0,0,1,.65,2.59c-3.1,2.66-9.8,6.77-13.33,6.77-2.73,0-4.17-1.44-4.17-4.18,0-6.48,5.54-16,11.59-20.88A13.5,13.5,0,0,1,921.41,514.1Zm-6.62,8.71c3.89,0,8.13-1.29,8.13-4.24,0-1.44-1.29-2-3.38-2A26.29,26.29,0,0,0,914.79,522.81Z"/><path class="cls-1" d="M944.67,526.2c-6.48,7.2-12.89,12.67-16.06,12.67-1.22,0-2.16-.93-2.16-3.09,0-9.44,13-20.53,17.28-20.53,1.3,0,3,1.37,4.32,2.88,2.67-6.33,6.27-15.26,8.35-21.45a4.52,4.52,0,0,0,.22-1.44,10.9,10.9,0,0,1,4.54-1.44,5.07,5.07,0,0,1,.79,3c-2.88,4.68-7.92,16.2-11.74,27.07-1.29,3.75-2.45,8-2.23,11.81.07,1.3.43,2.16.94,2.31a5.83,5.83,0,0,1-.22,2c-.94.87-3.24,2.24-4.39,2.24-.87-.65-1.23-2.67-1.23-4.47a39.8,39.8,0,0,1,2.16-11.23C945.39,526.2,944.81,526.05,944.67,526.2Zm-12.6,5.26c0,1.22.28,1.58.86,1.58,2.09,0,9.58-7.42,12.31-12.1-.5-1.29-1.94-2.52-2.88-2.52C940,518.42,932.07,526.63,932.07,531.46Z"/><path class="cls-1" d="M981.19,517c1.3-1.29,3.1-2.3,4-2.3,1.23.43,2.24,1.58,2.24,4.17,0,8.72-9.72,20.74-16.2,20.74-2.6,0-4-2.09-4-5.18,0-7.78,8.07-16.56,11.38-18.65A3.77,3.77,0,0,1,981.19,517Zm-9.14,14.76c0,3,1,3.46,2.59,3.46,2.88,0,8.28-8.14,8.28-13.75a3.73,3.73,0,0,0-2.59-3.89C975.79,520.51,972.05,527.13,972.05,531.74Z"/><path class="cls-1" d="M995.16,516.05a22.93,22.93,0,0,1,3.24-.15,10.27,10.27,0,0,1,.14,1.37c0,2-.93,6.48-3,11.74-.14.43.43.43.72.21,8.28-9,14.33-13.61,16.63-13.61,1.16,0,1.44,1.23,1.44,2.88,0,3.39-4.1,11-4.1,14.41,0,1.22.22,1.8,1.8,2.66a4.48,4.48,0,0,1-.86,2.09,14.13,14.13,0,0,1-4.47,1.37c-1.15.14-1.44-.65-1.44-2.38,0-4,3.67-11.45,3.67-13.61,0-1-.21-1-.5-1-1.3,0-7.63,5.26-12.39,11.38-.72,1-2,3-2.59,3.89a4.27,4.27,0,0,1-5.33.43c2.52-5.83,5-13.18,5-16.13a5.87,5.87,0,0,0-.72-3.17A9.39,9.39,0,0,1,995.16,516.05Z"/><path class="cls-1" d="M1047.24,501.57a4.4,4.4,0,0,1,1.73,1.73,132.71,132.71,0,0,0-6.27,12.46c2,0,5.69-.07,8.28-.29a4.92,4.92,0,0,1-1.15,2.16,59.1,59.1,0,0,1-8.57,1.37c-3.38,8.21-4.61,12.09-4.61,14.18,0,1.15.22,1.59.72,1.59,1.37-.07,4.11-1.59,7.56-4.25a4.37,4.37,0,0,1,.65,2.45c-4.53,3.24-9.79,6.55-12.09,6.55-1.08,0-2-1.22-2-3.1,0-2.73,1.87-9,5.4-17.06-1.51,0-3.74.07-5,.07a4.36,4.36,0,0,1,1.08-2.16c1.59-.43,3.31-.65,5.33-1.08,1.87-4.1,4.9-11.45,4.68-12.53A11.28,11.28,0,0,1,1047.24,501.57Z"/><path class="cls-1" d="M1055.73,514.46c3.1-9.07,5.33-15.84,5.26-18.5a9.44,9.44,0,0,1,3.38-2.24,7.2,7.2,0,0,1,2.74.94c-1.94,5.26-3.31,8.71-6,16.06-1.08,2.95-4.32,11.59-5.25,13.89-.07.44.43.65.57.44,5.33-4.9,12.32-10.52,15.56-10.52a1.62,1.62,0,0,1,1.44,1.73c0,4.9-4.9,12.1-4.68,16.56a2.58,2.58,0,0,0,1.22,2,9.85,9.85,0,0,1-.79,2.16,10.84,10.84,0,0,1-4.75,1.66c-.51,0-1.08-.8-1.08-2,0-5.4,4.53-12.1,4.53-15.19,0-.51-.21-1.16-.65-1.16-2.3,0-8.92,5.84-12.67,12-1.37,2.3-1.8,3.31-2.95,5.61A11,11,0,0,1,1048,539c-.29,0-.87-.58-1.23-.8C1048.6,534.05,1052.85,522.81,1055.73,514.46Z"/><path class="cls-1" d="M1082.44,532.54a49.81,49.81,0,0,0-2.88,5.68,11.8,11.8,0,0,1-2.73,1.37,4.74,4.74,0,0,1-2.38-.93c2.81-6.56,5.33-13.76,5.4-16.42a9.42,9.42,0,0,0-.72-4.11,5.39,5.39,0,0,1,5.12-2.66,8.14,8.14,0,0,1,.35,2.95,26,26,0,0,1-1.36,6.84c-.22.43.43.51.57.36,5.91-7.7,10.73-12.24,12.75-12.24a9.66,9.66,0,0,1,3.24,1.73,8.71,8.71,0,0,1-.65,3.24,6.09,6.09,0,0,1-2.81,1.15,4.66,4.66,0,0,1-1.94-1.44C1092.89,518.57,1088.21,523.17,1082.44,532.54Z"/><path class="cls-1" d="M1110.38,517c1.3-1.29,3.1-2.3,4-2.3,1.23.43,2.23,1.58,2.23,4.17,0,8.72-9.72,20.74-16.2,20.74-2.59,0-4-2.09-4-5.18,0-7.78,8.07-16.56,11.38-18.65A3.77,3.77,0,0,1,1110.38,517Zm-9.14,14.76c0,3,1,3.46,2.59,3.46,2.88,0,8.28-8.14,8.28-13.75a3.73,3.73,0,0,0-2.59-3.89C1105,520.51,1101.24,527.13,1101.24,531.74Z"/><path class="cls-1" d="M1127.44,516.77a5.5,5.5,0,0,1,1.23,1.36c-3.75,6.48-5.11,10.52-5.11,13.33,0,.64.14,1.36.64,1.36,1.59,0,7.2-5,13.69-15.12a8.86,8.86,0,0,1,3.88-1.58,4.1,4.1,0,0,1,1.59,1.37c-2.95,5.54-5,12.67-5,14.9,0,.79.22,1.3.65,1.3,1.08,0,2.73-.94,4.89-2.6a3.93,3.93,0,0,1,.51,2.09c-2.23,2.16-7,5.26-9.15,5.26-.86,0-1.72-.72-1.72-2.74a30.79,30.79,0,0,1,2.08-9.21c.15-.44-.5-.36-.65-.29-7.12,8.35-12.24,12.17-14.76,12.17-1.22,0-2.08-.94-2.08-2.74,0-4.32,3.24-12.17,6-17.64A11.15,11.15,0,0,1,1127.44,516.77Z"/><path class="cls-1" d="M1165.1,517.2a9.45,9.45,0,0,1,2.66-1.73,4.94,4.94,0,0,1,1.88,1.66c-1.8,2.59-4.83,15.12-8.57,25.92-3.46,9.93-11.45,18-18.22,18.86-2.09-.07-5.4-2.23-7.06-3.45a6.79,6.79,0,0,1,.65-2.16,8.7,8.7,0,0,1,3.24-1.44c.79,1,3.82,3.89,5.55,4,4-1.73,7.27-4.83,11.45-15.84,1.44-4.11,3.74-11.31,4.68-14.26.14-.51-.36-.58-.58-.29-4.1,4.75-9.58,10-13,10-.65,0-1.59-.79-1.59-2.88,0-9.43,10.8-20.52,15.2-20.52A8,8,0,0,1,1165.1,517.2Zm-13.68,14c0,.86.29,1.58.79,1.58,1.73,0,9.15-7.34,10.87-12-.5-.87-2.08-2.52-3.09-2.52C1157.9,518.28,1151.42,525.69,1151.42,531.24Z"/><path class="cls-1" d="M1177.34,514.46c3.1-9.07,5.33-15.84,5.26-18.5a9.44,9.44,0,0,1,3.38-2.24,7.2,7.2,0,0,1,2.74.94c-2,5.26-3.32,8.71-6,16.06-1.08,2.95-4.32,11.59-5.26,13.89-.07.44.44.65.58.44,5.33-4.9,12.31-10.52,15.55-10.52a1.61,1.61,0,0,1,1.44,1.73c0,4.9-4.89,12.1-4.68,16.56a2.59,2.59,0,0,0,1.23,2,9.92,9.92,0,0,1-.8,2.16,10.84,10.84,0,0,1-4.75,1.66c-.5,0-1.08-.8-1.08-2,0-5.4,4.54-12.1,4.54-15.19,0-.51-.22-1.16-.65-1.16-2.3,0-8.93,5.84-12.67,12-1.37,2.3-1.8,3.31-3,5.61a11,11,0,0,1-3.68,1.16c-.28,0-.86-.58-1.22-.8C1170.21,534.05,1174.46,522.81,1177.34,514.46Z"/><path class="cls-1" d="M1226.75,501.57a4.27,4.27,0,0,1,1.73,1.73,135.18,135.18,0,0,0-6.26,12.46c1.94,0,5.69-.07,8.28-.29a4.92,4.92,0,0,1-1.15,2.16,59.55,59.55,0,0,1-8.57,1.37c-3.39,8.21-4.61,12.09-4.61,14.18,0,1.15.22,1.59.72,1.59,1.37-.07,4.11-1.59,7.56-4.25a4.45,4.45,0,0,1,.65,2.45c-4.54,3.24-9.79,6.55-12.1,6.55-1.08,0-1.94-1.22-1.94-3.1,0-2.73,1.87-9,5.4-17.06-1.51,0-3.75.07-5,.07a4.36,4.36,0,0,1,1.08-2.16c1.58-.43,3.31-.65,5.33-1.08,1.87-4.1,4.89-11.45,4.68-12.53A11.16,11.16,0,0,1,1226.75,501.57Z"/><path class="cls-1" d="M1235.25,514.46c3.09-9.07,5.33-15.84,5.25-18.5a9.56,9.56,0,0,1,3.39-2.24,7.2,7.2,0,0,1,2.74.94c-2,5.26-3.32,8.71-6,16.06-1.08,2.95-4.32,11.59-5.26,13.89-.07.44.44.65.58.44,5.33-4.9,12.31-10.52,15.55-10.52a1.61,1.61,0,0,1,1.44,1.73c0,4.9-4.89,12.1-4.68,16.56a2.59,2.59,0,0,0,1.23,2,10.46,10.46,0,0,1-.8,2.16,10.84,10.84,0,0,1-4.75,1.66c-.5,0-1.08-.8-1.08-2,0-5.4,4.54-12.1,4.54-15.19,0-.51-.22-1.16-.65-1.16-2.3,0-8.93,5.84-12.67,12-1.37,2.3-1.8,3.31-3,5.61a10.88,10.88,0,0,1-3.67,1.16c-.29,0-.86-.58-1.22-.8C1228.12,534.05,1232.37,522.81,1235.25,514.46Z"/><path class="cls-1" d="M1269.23,514.1c3.17,0,5.91.72,6,3.31.15,4.11-6,7.85-13.75,7.85a18.4,18.4,0,0,0-1.8,7.35c0,1.65.14,3.24,1.73,3.24,2.88,0,7.2-3.24,9.79-5.47a3.64,3.64,0,0,1,.65,2.59c-3.1,2.66-9.8,6.77-13.32,6.77-2.74,0-4.18-1.44-4.18-4.18,0-6.48,5.54-16,11.59-20.88A13.59,13.59,0,0,1,1269.23,514.1Zm-6.62,8.71c3.89,0,8.14-1.29,8.14-4.24,0-1.44-1.3-2-3.39-2A26.29,26.29,0,0,0,1262.61,522.81Z"/><path class="cls-1" d="M1308.93,513.6a3.17,3.17,0,0,1,1.58.86,170,170,0,0,1-13.61,24.48c-7.2,10.73-14.69,18.58-19.51,22.18a7.59,7.59,0,0,1-3.74-.86,4.91,4.91,0,0,1-.51-2c6.19-3.81,15.48-11.45,20.74-20.52-.72-5.69-2.67-17.28-5.11-19.15a4.58,4.58,0,0,1,1-2.16,11.09,11.09,0,0,1,3.82-.65c1,1.94,2.59,10.3,3.82,17.21a104.42,104.42,0,0,0,8.35-17.64A14.12,14.12,0,0,1,1308.93,513.6Z"/><path class="cls-1" d="M1322.9,514.1c3.16,0,5.9.72,6,3.31.15,4.11-6,7.85-13.75,7.85a18.57,18.57,0,0,0-1.8,7.35c0,1.65.14,3.24,1.73,3.24,2.88,0,7.2-3.24,9.79-5.47a3.64,3.64,0,0,1,.65,2.59c-3.1,2.66-9.79,6.77-13.32,6.77-2.74,0-4.18-1.44-4.18-4.18,0-6.48,5.55-16,11.6-20.88A13.5,13.5,0,0,1,1322.9,514.1Zm-6.63,8.71c3.89,0,8.14-1.29,8.14-4.24,0-1.44-1.3-2-3.39-2A26.29,26.29,0,0,0,1316.27,522.81Z"/><path class="cls-1" d="M1348,516.41c.72-.44,1.51-.87,2.31-1.3a4.42,4.42,0,0,1,1.87,1c-2.31,5-5.91,13-5.91,17.57,0,1,.36,1.58.87,1.58.72,0,2.45-1,3.74-2.09a5.93,5.93,0,0,1,.58,2c-2,1.66-6.63,4.82-8.64,4.82-.58,0-1.37-.72-1.37-2.3a23.91,23.91,0,0,1,1.51-7.49c.07-.22-.36-.5-.65-.14-4.68,5.11-9.86,9.21-13.17,9.21-.8,0-1.66-.86-1.66-2.73,0-5.33,3.53-13,11.66-18.87,2-1.37,4.47-2.66,6-2.66A7.3,7.3,0,0,1,1348,516.41Zm-15,16.34c0,.72.08,1.23.58,1.23,2.3,0,7.92-4.9,12.38-13.83a4.71,4.71,0,0,0-2.44-2.09C1340.75,518.06,1333,526.63,1333,532.75Z"/><path class="cls-1" d="M1361,532.54a49.81,49.81,0,0,0-2.88,5.68,11.8,11.8,0,0,1-2.73,1.37,4.74,4.74,0,0,1-2.38-.93c2.81-6.56,5.33-13.76,5.4-16.42a9.42,9.42,0,0,0-.72-4.11,5.39,5.39,0,0,1,5.11-2.66,7.93,7.93,0,0,1,.36,2.95,26,26,0,0,1-1.36,6.84c-.22.43.43.51.57.36,5.91-7.7,10.73-12.24,12.75-12.24a9.66,9.66,0,0,1,3.24,1.73,8.71,8.71,0,0,1-.65,3.24,6.09,6.09,0,0,1-2.81,1.15,4.54,4.54,0,0,1-1.94-1.44C1371.42,518.57,1366.74,523.17,1361,532.54Z"/><path class="cls-1" d="M1394.25,515.47a6.19,6.19,0,0,1,.21,1.8,6,6,0,0,1-3,2.09c-.72-.43-2.66-1.73-3.6-1.73a3,3,0,0,0-1.51.5,6,6,0,0,0-2.52,4.25c0,1.08.43,1.51,3.74,1.8,3.46.36,5.33,1.3,5.33,3.75,0,5.11-7.63,11.66-15,11.66-3.67,0-4.68-.72-4.68-1.87,0-1.66.22-3,2.38-6.77.29,0,.72-.07,1.15-.07a2.83,2.83,0,0,1,1.44.21,11.27,11.27,0,0,0-1,3.89c0,1,.87,1.66,2.67,1.66,4.32,0,7.7-3.39,7.7-6.91,0-1.23-.57-1.66-4-1.88s-4.61-.93-4.61-2.8c0-3.46,6.27-10.8,10.37-10.8A14.1,14.1,0,0,1,1394.25,515.47Z"/><path class="cls-1" d="M1397.48,532.82a4.21,4.21,0,0,1,2.88,2.16,11.78,11.78,0,0,1-.79,2.74,47.54,47.54,0,0,1-7.63,10.73,3.87,3.87,0,0,1-2.45-.79,27.91,27.91,0,0,0,6-13.33A6.71,6.71,0,0,1,1397.48,532.82Z"/><path class="cls-1" d="M1436.82,501.57a4.4,4.4,0,0,1,1.73,1.73,132.71,132.71,0,0,0-6.27,12.46c2,0,5.69-.07,8.29-.29a4.85,4.85,0,0,1-1.16,2.16,59.1,59.1,0,0,1-8.57,1.37c-3.38,8.21-4.6,12.09-4.6,14.18,0,1.15.21,1.59.72,1.59,1.36-.07,4.1-1.59,7.56-4.25a4.45,4.45,0,0,1,.64,2.45c-4.53,3.24-9.79,6.55-12.09,6.55-1.08,0-2-1.22-2-3.1,0-2.73,1.88-9,5.4-17.06-1.51,0-3.74.07-5,.07a4.45,4.45,0,0,1,1.08-2.16c1.59-.43,3.32-.65,5.33-1.08,1.87-4.1,4.9-11.45,4.68-12.53A11.28,11.28,0,0,1,1436.82,501.57Z"/><path class="cls-1" d="M1451.58,517c1.3-1.29,3.1-2.3,4-2.3,1.22.43,2.23,1.58,2.23,4.17,0,8.72-9.72,20.74-16.2,20.74-2.59,0-4-2.09-4-5.18,0-7.78,8.06-16.56,11.38-18.65A3.77,3.77,0,0,1,1451.58,517Zm-9.15,14.76c0,3,1,3.46,2.6,3.46,2.88,0,8.28-8.14,8.28-13.75a3.73,3.73,0,0,0-2.59-3.89C1446.18,520.51,1442.43,527.13,1442.43,531.74Z"/><path class="cls-1" d="M1491.06,516.41c.72-.44,1.51-.87,2.3-1.3a4.39,4.39,0,0,1,1.88,1c-2.31,5-5.91,13-5.91,17.57,0,1,.36,1.58.86,1.58.73,0,2.45-1,3.75-2.09a5.92,5.92,0,0,1,.57,2c-1.94,1.66-6.62,4.82-8.64,4.82-.57,0-1.36-.72-1.36-2.3a23.62,23.62,0,0,1,1.51-7.49c.07-.22-.36-.5-.65-.14-4.68,5.11-9.87,9.21-13.18,9.21-.79,0-1.65-.86-1.65-2.73,0-5.33,3.53-13,11.66-18.87,2-1.37,4.47-2.66,6-2.66A7.3,7.3,0,0,1,1491.06,516.41Zm-15,16.34c0,.72.07,1.23.58,1.23,2.3,0,7.92-4.9,12.38-13.83a4.69,4.69,0,0,0-2.45-2.09C1483.86,518.06,1476.08,526.63,1476.08,532.75Z"/><path class="cls-1" d="M1517.36,524.9a17.46,17.46,0,0,0-2.81,8.14,2.51,2.51,0,0,0,2.45,2.59c2.09,0,5-2.16,9.5-7.2a3,3,0,0,1,.87,2.16c-4.83,5.47-9.65,9.43-13.68,9.43-2.16,0-4.11-1.22-4.11-4.89,0-6.7,7.85-17.14,15.27-21.1a16.09,16.09,0,0,1,2.66.36,6.32,6.32,0,0,1,1.44,2.16,5.53,5.53,0,0,1-.57,1.94,8.89,8.89,0,0,1-3.1,1.23c-.79-.43-1-1.8-2.16-1.8A33.18,33.18,0,0,0,1517.36,524.9Z"/><path class="cls-1" d="M1536.15,514.46c3.1-9.07,5.33-15.84,5.26-18.5a9.44,9.44,0,0,1,3.38-2.24,7.2,7.2,0,0,1,2.74.94c-2,5.26-3.31,8.71-6,16.06-1.08,2.95-4.32,11.59-5.25,13.89-.08.44.43.65.57.44,5.33-4.9,12.32-10.52,15.56-10.52a1.62,1.62,0,0,1,1.44,1.73c0,4.9-4.9,12.1-4.68,16.56a2.58,2.58,0,0,0,1.22,2,9.85,9.85,0,0,1-.79,2.16,10.89,10.89,0,0,1-4.75,1.66c-.51,0-1.08-.8-1.08-2,0-5.4,4.53-12.1,4.53-15.19,0-.51-.21-1.16-.65-1.16-2.3,0-8.93,5.84-12.67,12-1.37,2.3-1.8,3.31-3,5.61a11,11,0,0,1-3.67,1.16c-.29,0-.87-.58-1.23-.8C1529,534.05,1533.27,522.81,1536.15,514.46Z"/><path class="cls-1" d="M1555.88,536.06c0-3.09,1.8-8.28,4.61-15.55a5.52,5.52,0,0,0,.14-2.52,10,10,0,0,1,3.82-1.87,3.34,3.34,0,0,1,1.73,1.94c-4.47,8.5-5.55,12.46-5.55,14.76,0,1.23.36,1.88.94,1.88.79,0,2.88-1.16,4.46-2.53a5.47,5.47,0,0,1,.65,2.09c-4.53,3.46-7.77,4.83-9,4.83S1555.88,538.44,1555.88,536.06Zm16.85-33a6.08,6.08,0,0,1-3.89,4.54,3.86,3.86,0,0,1-2.37-2.81c-.08-.43,1.72-4,4.39-4.17A5,5,0,0,1,1572.73,503.08Z"/><path class="cls-1" d="M1587.2,494.08a5.6,5.6,0,0,1,1.08,1.59c-2.45,5.33-7.56,16-11.16,25.78-2.45,6.62-2.74,9.43-2.74,12.17a6.7,6.7,0,0,0,.51,2.8,10.63,10.63,0,0,1-.65,2,15.39,15.39,0,0,1-4.1,1.65,2.38,2.38,0,0,1-1.08-2.16c0-4.89,1.72-10.94,6.12-21.89,4-10,7.2-17.42,7.41-19.87A6.8,6.8,0,0,1,1587.2,494.08Z"/><path class="cls-1" d="M1598.36,526.2c-6.48,7.2-12.89,12.67-16.06,12.67-1.22,0-2.16-.93-2.16-3.09,0-9.44,13-20.53,17.29-20.53,1.29,0,3,1.37,4.32,2.88,2.66-6.33,6.26-15.26,8.35-21.45a4.82,4.82,0,0,0,.22-1.44,10.86,10.86,0,0,1,4.53-1.44,4.93,4.93,0,0,1,.79,3c-2.88,4.68-7.92,16.2-11.73,27.07-1.3,3.75-2.45,8-2.24,11.81.08,1.3.44,2.16.94,2.31a5.83,5.83,0,0,1-.22,2c-.93.87-3.24,2.24-4.39,2.24-.86-.65-1.22-2.67-1.22-4.47a39.45,39.45,0,0,1,2.16-11.23C1599.08,526.2,1598.51,526.05,1598.36,526.2Zm-12.6,5.26c0,1.22.29,1.58.86,1.58,2.09,0,9.58-7.42,12.32-12.1-.51-1.29-2-2.52-2.88-2.52C1593.68,518.42,1585.76,526.63,1585.76,531.46Z"/><path class="cls-1" d="M331.07,588a4.34,4.34,0,0,1,1.73,1.73,135.18,135.18,0,0,0-6.26,12.46c1.94,0,5.69-.07,8.28-.29a4.92,4.92,0,0,1-1.15,2.16,59.55,59.55,0,0,1-8.57,1.37c-3.39,8.21-4.61,12.09-4.61,14.18,0,1.15.22,1.59.72,1.59,1.37-.07,4.1-1.59,7.56-4.25a4.45,4.45,0,0,1,.65,2.45c-4.54,3.24-9.8,6.55-12.1,6.55-1.08,0-1.94-1.22-1.94-3.1,0-2.73,1.87-9,5.4-17.06-1.52,0-3.75.07-5,.07a4.36,4.36,0,0,1,1.08-2.16c1.58-.43,3.31-.65,5.32-1.08,1.88-4.1,4.9-11.45,4.69-12.53A11.16,11.16,0,0,1,331.07,588Z"/><path class="cls-1" d="M332.51,622.46c0-3.09,1.8-8.28,4.61-15.55a5.52,5.52,0,0,0,.14-2.52,10,10,0,0,1,3.82-1.87,3.34,3.34,0,0,1,1.73,1.94c-4.47,8.5-5.55,12.46-5.55,14.76,0,1.23.36,1.88.94,1.88.79,0,2.88-1.16,4.46-2.53a5.47,5.47,0,0,1,.65,2.09c-4.53,3.46-7.77,4.83-9,4.83C333.23,625.49,332.51,624.84,332.51,622.46Zm16.85-33a6.06,6.06,0,0,1-3.89,4.54,3.86,3.86,0,0,1-2.37-2.81c-.08-.43,1.72-4,4.39-4.17A5,5,0,0,1,349.36,589.48Z"/><path class="cls-1" d="M360.3,600.5c3.17,0,5.91.72,6.05,3.31.15,4.11-6,7.85-13.75,7.85a18.57,18.57,0,0,0-1.8,7.35c0,1.65.14,3.24,1.73,3.24,2.88,0,7.2-3.24,9.79-5.47a3.64,3.64,0,0,1,.65,2.59c-3.1,2.66-9.79,6.77-13.32,6.77-2.74,0-4.18-1.44-4.18-4.18,0-6.48,5.55-16,11.59-20.88A13.59,13.59,0,0,1,360.3,600.5Zm-6.62,8.71c3.89,0,8.14-1.29,8.14-4.24,0-1.44-1.3-2-3.39-2A26.29,26.29,0,0,0,353.68,609.21Z"/><path class="cls-1" d="M383.56,612.6c-6.48,7.2-12.89,12.67-16.06,12.67-1.22,0-2.16-.93-2.16-3.09,0-9.44,13-20.53,17.28-20.53,1.3,0,3,1.37,4.32,2.88,2.67-6.33,6.27-15.26,8.36-21.45a4.82,4.82,0,0,0,.21-1.44,10.94,10.94,0,0,1,4.54-1.44,5,5,0,0,1,.79,3c-2.88,4.68-7.92,16.2-11.74,27.07-1.29,3.75-2.44,8-2.23,11.81.07,1.3.43,2.16.94,2.31a5.83,5.83,0,0,1-.22,2c-.93.87-3.24,2.24-4.39,2.24-.86-.65-1.22-2.67-1.22-4.47A39.45,39.45,0,0,1,384.14,613C384.28,612.6,383.7,612.45,383.56,612.6ZM371,617.86c0,1.22.29,1.58.86,1.58,2.09,0,9.58-7.42,12.32-12.1-.51-1.29-1.95-2.52-2.88-2.52C378.88,604.82,371,613,371,617.86Z"/><path class="cls-1" d="M422.51,588a4.4,4.4,0,0,1,1.73,1.73A132.71,132.71,0,0,0,418,602.16c1.94,0,5.68-.07,8.28-.29A4.85,4.85,0,0,1,425.1,604a59.18,59.18,0,0,1-8.56,1.37c-3.39,8.21-4.61,12.09-4.61,14.18,0,1.15.21,1.59.72,1.59,1.37-.07,4.1-1.59,7.56-4.25a4.45,4.45,0,0,1,.65,2.45c-4.54,3.24-9.8,6.55-12.1,6.55-1.08,0-1.95-1.22-1.95-3.1,0-2.73,1.88-9,5.4-17.06-1.51,0-3.74.07-5,.07a4.45,4.45,0,0,1,1.08-2.16c1.59-.43,3.32-.65,5.33-1.08,1.88-4.1,4.9-11.45,4.68-12.53A11.28,11.28,0,0,1,422.51,588Z"/><path class="cls-1" d="M437.27,603.38c1.3-1.29,3.1-2.3,4-2.3,1.23.43,2.23,1.58,2.23,4.17,0,8.72-9.72,20.74-16.2,20.74-2.59,0-4-2.09-4-5.18,0-7.78,8.06-16.56,11.38-18.65A3.77,3.77,0,0,1,437.27,603.38Zm-9.15,14.76c0,3,1,3.46,2.6,3.46,2.88,0,8.28-8.14,8.28-13.75a3.73,3.73,0,0,0-2.59-3.89C431.87,606.91,428.12,613.54,428.12,618.14Z"/><path class="cls-1" d="M474.28,612.6c-6.48,7.2-12.89,12.67-16.06,12.67-1.22,0-2.16-.93-2.16-3.09,0-9.44,13-20.53,17.28-20.53,1.3,0,3,1.37,4.32,2.88,2.67-6.33,6.27-15.26,8.35-21.45a4.52,4.52,0,0,0,.22-1.44,10.9,10.9,0,0,1,4.54-1.44,5.07,5.07,0,0,1,.79,3c-2.88,4.68-7.92,16.2-11.74,27.07-1.29,3.75-2.45,8-2.23,11.81.07,1.3.43,2.16.94,2.31a5.83,5.83,0,0,1-.22,2c-.94.87-3.24,2.24-4.39,2.24-.87-.65-1.23-2.67-1.23-4.47A39.8,39.8,0,0,1,474.85,613C475,612.6,474.42,612.45,474.28,612.6Zm-12.6,5.26c0,1.22.28,1.58.86,1.58,2.09,0,9.58-7.42,12.31-12.1-.5-1.29-1.94-2.52-2.88-2.52C469.6,604.82,461.68,613,461.68,617.86Z"/><path class="cls-1" d="M498.47,600.5c3.17,0,5.9.72,6,3.31.14,4.11-6,7.85-13.76,7.85A18.57,18.57,0,0,0,489,619c0,1.65.15,3.24,1.73,3.24,2.88,0,7.2-3.24,9.8-5.47a3.69,3.69,0,0,1,.64,2.59c-3.09,2.66-9.79,6.77-13.32,6.77-2.73,0-4.17-1.44-4.17-4.18,0-6.48,5.54-16,11.59-20.88A13.5,13.5,0,0,1,498.47,600.5Zm-6.63,8.71c3.89,0,8.14-1.29,8.14-4.24,0-1.44-1.29-2-3.38-2A26.56,26.56,0,0,0,491.84,609.21Z"/><path class="cls-1" d="M523.09,601.87a2.7,2.7,0,0,1-2.73,3.89c-.72-.43-2.67-1.73-3.6-1.73a3,3,0,0,0-1.51.5,6,6,0,0,0-2.53,4.25c0,1.08.44,1.51,3.75,1.8s5.33,1.3,5.33,3.75c0,5.11-7.63,11.66-15,11.66-3.67,0-4.68-.72-4.68-1.87,0-1.66.22-3,2.38-6.77.28,0,.72-.07,1.15-.07a2.85,2.85,0,0,1,1.44.21,11,11,0,0,0-1,3.89c0,1,.86,1.66,2.66,1.66,4.32,0,7.71-3.39,7.71-6.91,0-1.23-.58-1.66-4-1.88s-4.61-.93-4.61-2.8c0-3.46,6.27-10.8,10.37-10.8A14,14,0,0,1,523.09,601.87Z"/><path class="cls-1" d="M541.52,588a4.27,4.27,0,0,1,1.73,1.73A135.18,135.18,0,0,0,537,602.16c1.94,0,5.69-.07,8.28-.29a4.92,4.92,0,0,1-1.15,2.16,59.55,59.55,0,0,1-8.57,1.37c-3.39,8.21-4.61,12.09-4.61,14.18,0,1.15.22,1.59.72,1.59,1.37-.07,4.1-1.59,7.56-4.25a4.45,4.45,0,0,1,.65,2.45c-4.54,3.24-9.79,6.55-12.1,6.55-1.08,0-1.94-1.22-1.94-3.1,0-2.73,1.87-9,5.4-17.06-1.51,0-3.75.07-5,.07a4.36,4.36,0,0,1,1.08-2.16c1.58-.43,3.31-.65,5.33-1.08,1.87-4.1,4.89-11.45,4.68-12.53A11.16,11.16,0,0,1,541.52,588Z"/><path class="cls-1" d="M543,622.46c0-3.09,1.8-8.28,4.61-15.55a5.52,5.52,0,0,0,.14-2.52,10,10,0,0,1,3.82-1.87,3.34,3.34,0,0,1,1.73,1.94c-4.47,8.5-5.55,12.46-5.55,14.76,0,1.23.37,1.88.94,1.88.79,0,2.88-1.16,4.47-2.53a5.64,5.64,0,0,1,.64,2.09c-4.53,3.46-7.77,4.83-9,4.83S543,624.84,543,622.46Zm16.85-33a6.06,6.06,0,0,1-3.89,4.54,3.86,3.86,0,0,1-2.37-2.81c-.07-.43,1.73-4,4.39-4.17A5,5,0,0,1,559.81,589.48Z"/><path class="cls-1" d="M562.62,602.45a22.86,22.86,0,0,1,3.24-.15,10.27,10.27,0,0,1,.14,1.37c0,2-.93,6.48-3,11.74-.15.43.43.43.72.21C572,606.62,578,602,580.33,602c1.15,0,1.44,1.23,1.44,2.88,0,3.39-4.1,11-4.1,14.4,0,1.23.21,1.81,1.8,2.67a4.39,4.39,0,0,1-.87,2.09,14,14,0,0,1-4.46,1.37c-1.15.14-1.44-.65-1.44-2.38,0-4,3.67-11.45,3.67-13.61,0-1-.21-1-.5-1-1.3,0-7.63,5.26-12.39,11.38-.72,1-2,3-2.59,3.89a4.27,4.27,0,0,1-5.33.43c2.52-5.83,5-13.18,5-16.13a5.87,5.87,0,0,0-.72-3.17A9.26,9.26,0,0,1,562.62,602.45Z"/><path class="cls-1" d="M606,600a3.26,3.26,0,0,1,1.58.86A170,170,0,0,1,594,625.34c-7.2,10.73-14.69,18.58-19.51,22.18a7.61,7.61,0,0,1-3.75-.86,4.76,4.76,0,0,1-.5-1.95c6.19-3.81,15.48-11.45,20.74-20.52-.72-5.69-2.67-17.28-5.12-19.15a4.7,4.7,0,0,1,1-2.16,11.09,11.09,0,0,1,3.82-.65c1,1.94,2.59,10.3,3.81,17.21a104.56,104.56,0,0,0,8.36-17.64A14.12,14.12,0,0,1,606,600Z"/></svg>