<svg xmlns="http://www.w3.org/2000/svg" xmlns:xlink="http://www.w3.org/1999/xlink" viewBox="0 0 1920 1080"><defs><style>.cls-1,.cls-19,.cls-6,.cls-8{fill:none;}.cls-2{opacity:0.02;}.cls-3{clip-path:url(#clip-path);}.cls-4{clip-path:url(#clip-path-2);}.cls-5{clip-path:url(#clip-path-3);}.cls-6,.cls-8{stroke:#333;}.cls-19,.cls-6,.cls-8{stroke-miterlimit:10;}.cls-6{stroke-width:0.5px;}.cls-7{clip-path:url(#clip-path-4);}.cls-8{stroke-width:0.75px;}.cls-9{fill:#333;}.cls-10{fill:#edd791;}.cls-11{fill:#ceba82;opacity:0.26;}.cls-12{fill:#f9e595;}.cls-13{fill:#f9465c;}.cls-14{clip-path:url(#clip-path-5);}.cls-15{clip-path:url(#clip-path-6);}.cls-16{clip-path:url(#clip-path-7);}.cls-17{clip-path:url(#clip-path-8);}.cls-18{opacity:0.09;}.cls-19{stroke:#e01e48;}</style><clipPath id="clip-path"><polygon class="cls-1" points="1136 947 1132 960 1107 974 1055 989 1030 994 985 994 914 994 900 994 860 984 823 974 798 960 794 948 795 944 823 929 868 921 936 920.13 1054.98 920.65 1078 923 1098 926 1113 933 1134 943 1136 947"/></clipPath><clipPath id="clip-path-2"><polygon class="cls-1" points="1310.69 1083.97 1285.75 1085.74 1243.57 1084.71 1198.12 1079.91 1169.91 1063.87 1143.56 1045.68 1122.63 1033.13 1099.9 1023.71 1079.95 1025.12 1064.35 1031.24 1056.21 1057.88 1057.97 1082.82 1065.73 1093.3 1080.97 1110.27 1098.92 1123.03 1101.34 1128.87 1095.13 1140.34 1080.17 1141.4 1022.03 1141.51 985.2 1131.08 956.49 1122.09 919.38 1107.67 877.72 1085.56 846.03 1062.74 809.86 1019.19 780.45 986.18 764.45 944.21 755.36 886.71 747.42 831.13 937.08 819.7 941.49 839.44 950.44 851.09 967.98 859.62 981.91 872.22 992.37 891.5 994.38 906.87 1002.85 927.33 1017.1 930.33 1033.91 927.13 1042.54 921.51 1045.61 908.26 1045.12 901.28 1077.61 892.96 1092.15 885.91 1119.81 865.91 1132.78 850.96 1141.76 850.32 1164.19 869.78 1272.82 1016.48 1309.84 1072 1310.69 1083.97"/></clipPath><clipPath id="clip-path-3"><rect class="cls-1" x="494.48" y="-195.7" width="1468" height="2177" transform="translate(2032.26 -395.68) rotate(85.95)"/></clipPath><clipPath id="clip-path-4"><rect class="cls-1" x="528.47" y="31.78" width="1468" height="1825.5" transform="translate(2115.45 -381.51) rotate(85.95)"/></clipPath><clipPath id="clip-path-5"><polygon class="cls-1" points="1052 912 1052 906 1049 893 1047 881 1042 869 1034 857 1019 846 995 834 940 833 920 841 895 857 883 880 878 901 877.17 913.07 952 931 978 932 1052 912"/></clipPath><clipPath id="clip-path-6"><polygon class="cls-1" points="1190.05 998.24 1165.06 998.76 1122.98 995.63 1077.83 988.57 1050.46 971.13 1025.05 951.66 1004.76 938.08 982.53 927.53 962.54 927.95 946.65 933.28 937.19 959.49 937.71 984.48 944.94 995.33 959.31 1013.04 976.6 1026.68 978.72 1032.64 971.95 1043.78 956.95 1044.09 898.88 1041.3 862.62 1029.05 834.4 1018.63 798.05 1002.39 757.54 978.22 727.03 953.85 693.08 908.55 665.36 874.12 651.47 831.4 645.26 773.51 640.1 717.61 830.1 715.66 833.51 735.59 841.87 747.67 858.97 757.07 872.24 770.35 881.74 790.12 882.98 805.58 890.41 826.43 904.49 830.14 921.45 827.78 930.34 822.6 934.07 809.52 933.93 802.52 966.79 795.83 981.67 789.52 1010.29 770.92 1023.99 756.64 1032.99 756.45 1054.42 777.01 1155.6 928.94 1189.8 986.24 1190.05 998.24"/></clipPath><clipPath id="clip-path-7"><rect class="cls-1" x="383.48" y="-285.3" width="1468" height="2177" transform="translate(1897.28 -330.73) rotate(88.81)"/></clipPath><clipPath id="clip-path-8"><rect class="cls-1" x="414.85" y="-56.19" width="1468" height="1825.5" transform="translate(1981.34 -309.84) rotate(88.81)"/></clipPath></defs><title>3</title><g id="Layer_2" data-name="Layer 2"><g class="cls-2"><g class="cls-3"><g class="cls-4"><g class="cls-5"><line class="cls-6" x1="4451.35" y1="1069.65" x2="-2296" y2="1547.5"/><line class="cls-6" x1="4450.52" y1="1057.9" x2="-2296.83" y2="1535.76"/><line class="cls-6" x1="4449.69" y1="1046.16" x2="-2297.66" y2="1524.01"/><line class="cls-6" x1="4448.85" y1="1034.41" x2="-2298.5" y2="1512.27"/><line class="cls-6" x1="4448.02" y1="1022.67" x2="-2299.33" y2="1500.52"/><line class="cls-6" x1="4447.19" y1="1010.92" x2="-2300.16" y2="1488.78"/><line class="cls-6" x1="4446.36" y1="999.18" x2="-2300.99" y2="1477.03"/><line class="cls-6" x1="4445.53" y1="987.43" x2="-2301.82" y2="1465.29"/><line class="cls-6" x1="4444.69" y1="975.69" x2="-2302.65" y2="1453.54"/><line class="cls-6" x1="4443.86" y1="963.94" x2="-2303.49" y2="1441.8"/><line class="cls-6" x1="4443.03" y1="952.2" x2="-2304.32" y2="1430.05"/><line class="cls-6" x1="4442.2" y1="940.45" x2="-2305.15" y2="1418.31"/><line class="cls-6" x1="4441.37" y1="928.71" x2="-2305.98" y2="1406.56"/><line class="cls-6" x1="4440.54" y1="916.96" x2="-2306.81" y2="1394.82"/><line class="cls-6" x1="4439.7" y1="905.22" x2="-2307.65" y2="1383.07"/><line class="cls-6" x1="4438.87" y1="893.47" x2="-2308.48" y2="1371.33"/><line class="cls-6" x1="4438.04" y1="881.73" x2="-2309.31" y2="1359.58"/><line class="cls-6" x1="4437.21" y1="869.98" x2="-2310.14" y2="1347.84"/><line class="cls-6" x1="4436.38" y1="858.24" x2="-2310.97" y2="1336.09"/><line class="cls-6" x1="4435.55" y1="846.49" x2="-2311.8" y2="1324.35"/><line class="cls-6" x1="4434.71" y1="834.75" x2="-2312.64" y2="1312.6"/><line class="cls-6" x1="4433.88" y1="823" x2="-2313.47" y2="1300.86"/><line class="cls-6" x1="4433.05" y1="811.26" x2="-2314.3" y2="1289.11"/><line class="cls-6" x1="4432.22" y1="799.51" x2="-2315.13" y2="1277.37"/><line class="cls-6" x1="4431.39" y1="787.77" x2="-2315.96" y2="1265.62"/><line class="cls-6" x1="4430.55" y1="776.02" x2="-2316.8" y2="1253.88"/><line class="cls-6" x1="4429.72" y1="764.28" x2="-2317.63" y2="1242.13"/><line class="cls-6" x1="4428.89" y1="752.53" x2="-2318.46" y2="1230.39"/><line class="cls-6" x1="4428.06" y1="740.79" x2="-2319.29" y2="1218.64"/><line class="cls-6" x1="4427.23" y1="729.04" x2="-2320.12" y2="1206.9"/><line class="cls-6" x1="4426.4" y1="717.3" x2="-2320.95" y2="1195.15"/><line class="cls-6" x1="4425.56" y1="705.55" x2="-2321.79" y2="1183.41"/><line class="cls-6" x1="4424.73" y1="693.81" x2="-2322.62" y2="1171.66"/><line class="cls-6" x1="4423.9" y1="682.06" x2="-2323.45" y2="1159.92"/><line class="cls-6" x1="4423.07" y1="670.32" x2="-2324.28" y2="1148.17"/><line class="cls-6" x1="4422.24" y1="658.57" x2="-2325.11" y2="1136.43"/><line class="cls-6" x1="4421.4" y1="646.83" x2="-2325.95" y2="1124.68"/><line class="cls-6" x1="4420.57" y1="635.08" x2="-2326.78" y2="1112.94"/><line class="cls-6" x1="4419.74" y1="623.34" x2="-2327.61" y2="1101.19"/><line class="cls-6" x1="4418.91" y1="611.59" x2="-2328.44" y2="1089.45"/><line class="cls-6" x1="4418.08" y1="599.85" x2="-2329.27" y2="1077.7"/><line class="cls-6" x1="4417.25" y1="588.1" x2="-2330.1" y2="1065.96"/><line class="cls-6" x1="4416.41" y1="576.36" x2="-2330.94" y2="1054.21"/><line class="cls-6" x1="4415.58" y1="564.61" x2="-2331.77" y2="1042.47"/><line class="cls-6" x1="4414.75" y1="552.87" x2="-2332.6" y2="1030.72"/><line class="cls-6" x1="4413.92" y1="541.12" x2="-2333.43" y2="1018.98"/><line class="cls-6" x1="4413.09" y1="529.38" x2="-2334.26" y2="1007.23"/><line class="cls-6" x1="4412.25" y1="517.63" x2="-2335.1" y2="995.49"/><line class="cls-6" x1="4411.42" y1="505.89" x2="-2335.93" y2="983.74"/><line class="cls-6" x1="4410.59" y1="494.14" x2="-2336.76" y2="972"/><line class="cls-6" x1="4409.76" y1="482.4" x2="-2337.59" y2="960.25"/><line class="cls-6" x1="4408.93" y1="470.65" x2="-2338.42" y2="948.51"/><line class="cls-6" x1="4408.1" y1="458.91" x2="-2339.25" y2="936.76"/><line class="cls-6" x1="4407.26" y1="447.16" x2="-2340.09" y2="925.02"/><line class="cls-6" x1="4406.43" y1="435.42" x2="-2340.92" y2="913.27"/><line class="cls-6" x1="4405.6" y1="423.67" x2="-2341.75" y2="901.53"/><line class="cls-6" x1="4404.77" y1="411.93" x2="-2342.58" y2="889.78"/><line class="cls-6" x1="4403.94" y1="400.18" x2="-2343.41" y2="878.04"/><line class="cls-6" x1="4403.1" y1="388.44" x2="-2344.24" y2="866.29"/><line class="cls-6" x1="4402.27" y1="376.69" x2="-2345.08" y2="854.55"/><line class="cls-6" x1="4401.44" y1="364.95" x2="-2345.91" y2="842.8"/><line class="cls-6" x1="4400.61" y1="353.2" x2="-2346.74" y2="831.06"/><line class="cls-6" x1="4399.78" y1="341.46" x2="-2347.57" y2="819.31"/><line class="cls-6" x1="4398.95" y1="329.71" x2="-2348.4" y2="807.57"/><line class="cls-6" x1="4398.11" y1="317.97" x2="-2349.24" y2="795.82"/><line class="cls-6" x1="4397.28" y1="306.22" x2="-2350.07" y2="784.08"/><line class="cls-6" x1="4396.45" y1="294.48" x2="-2350.9" y2="772.33"/><line class="cls-6" x1="4395.62" y1="282.73" x2="-2351.73" y2="760.59"/><line class="cls-6" x1="4394.79" y1="270.99" x2="-2352.56" y2="748.84"/><line class="cls-6" x1="4393.96" y1="259.24" x2="-2353.39" y2="737.1"/><line class="cls-6" x1="4393.12" y1="247.5" x2="-2354.23" y2="725.35"/><line class="cls-6" x1="4392.29" y1="235.75" x2="-2355.06" y2="713.61"/><line class="cls-6" x1="4391.46" y1="224.01" x2="-2355.89" y2="701.86"/><line class="cls-6" x1="4390.63" y1="212.26" x2="-2356.72" y2="690.12"/><line class="cls-6" x1="4389.8" y1="200.52" x2="-2357.55" y2="678.37"/><line class="cls-6" x1="4388.96" y1="188.77" x2="-2358.39" y2="666.63"/></g><g class="cls-7"><line class="cls-8" x1="3963.76" y1="1075.69" x2="-1694.16" y2="1476.39"/><line class="cls-8" x1="3962.93" y1="1063.94" x2="-1694.99" y2="1464.64"/><line class="cls-8" x1="3962.09" y1="1052.2" x2="-1695.82" y2="1452.9"/><line class="cls-8" x1="3961.26" y1="1040.45" x2="-1696.66" y2="1441.15"/><line class="cls-8" x1="3960.43" y1="1028.71" x2="-1697.49" y2="1429.41"/><line class="cls-8" x1="3959.6" y1="1016.96" x2="-1698.32" y2="1417.66"/><line class="cls-8" x1="3958.77" y1="1005.22" x2="-1699.15" y2="1405.92"/><line class="cls-8" x1="3957.93" y1="993.47" x2="-1699.98" y2="1394.17"/><line class="cls-8" x1="3957.1" y1="981.73" x2="-1700.81" y2="1382.43"/><line class="cls-8" x1="3956.27" y1="969.98" x2="-1701.65" y2="1370.68"/><line class="cls-8" x1="3955.44" y1="958.24" x2="-1702.48" y2="1358.94"/><line class="cls-8" x1="3954.61" y1="946.49" x2="-1703.31" y2="1347.19"/><line class="cls-8" x1="3953.78" y1="934.75" x2="-1704.14" y2="1335.45"/><line class="cls-8" x1="3952.94" y1="923" x2="-1704.97" y2="1323.7"/><line class="cls-8" x1="3952.11" y1="911.26" x2="-1705.81" y2="1311.96"/><line class="cls-8" x1="3951.28" y1="899.51" x2="-1706.64" y2="1300.21"/><line class="cls-8" x1="3950.45" y1="887.77" x2="-1707.47" y2="1288.47"/><line class="cls-8" x1="3949.62" y1="876.02" x2="-1708.3" y2="1276.72"/><line class="cls-8" x1="3948.79" y1="864.28" x2="-1709.13" y2="1264.98"/><line class="cls-8" x1="3947.95" y1="852.53" x2="-1709.96" y2="1253.23"/><line class="cls-8" x1="3947.12" y1="840.79" x2="-1710.8" y2="1241.49"/><line class="cls-8" x1="3946.29" y1="829.04" x2="-1711.63" y2="1229.74"/><line class="cls-8" x1="3945.46" y1="817.3" x2="-1712.46" y2="1218"/><line class="cls-8" x1="3944.63" y1="805.55" x2="-1713.29" y2="1206.25"/><line class="cls-8" x1="3943.79" y1="793.81" x2="-1714.12" y2="1194.51"/><line class="cls-8" x1="3942.96" y1="782.06" x2="-1714.96" y2="1182.76"/><line class="cls-8" x1="3942.13" y1="770.32" x2="-1715.79" y2="1171.02"/><line class="cls-8" x1="3941.3" y1="758.57" x2="-1716.62" y2="1159.27"/><line class="cls-8" x1="3940.47" y1="746.83" x2="-1717.45" y2="1147.53"/><line class="cls-8" x1="3939.64" y1="735.08" x2="-1718.28" y2="1135.78"/><line class="cls-8" x1="3938.8" y1="723.34" x2="-1719.11" y2="1124.04"/><line class="cls-8" x1="3937.97" y1="711.59" x2="-1719.95" y2="1112.29"/><line class="cls-8" x1="3937.14" y1="699.85" x2="-1720.78" y2="1100.55"/><line class="cls-8" x1="3936.31" y1="688.1" x2="-1721.61" y2="1088.8"/><line class="cls-8" x1="3935.48" y1="676.36" x2="-1722.44" y2="1077.06"/><line class="cls-8" x1="3934.64" y1="664.61" x2="-1723.27" y2="1065.31"/><line class="cls-8" x1="3933.81" y1="652.87" x2="-1724.11" y2="1053.57"/><line class="cls-8" x1="3932.98" y1="641.12" x2="-1724.94" y2="1041.82"/><line class="cls-8" x1="3932.15" y1="629.38" x2="-1725.77" y2="1030.08"/><line class="cls-8" x1="3931.32" y1="617.63" x2="-1726.6" y2="1018.33"/><line class="cls-8" x1="3930.49" y1="605.89" x2="-1727.43" y2="1006.59"/><line class="cls-8" x1="3929.65" y1="594.14" x2="-1728.26" y2="994.84"/><line class="cls-8" x1="3928.82" y1="582.4" x2="-1729.1" y2="983.1"/><line class="cls-8" x1="3927.99" y1="570.65" x2="-1729.93" y2="971.35"/><line class="cls-8" x1="3927.16" y1="558.91" x2="-1730.76" y2="959.61"/><line class="cls-8" x1="3926.33" y1="547.16" x2="-1731.59" y2="947.86"/><line class="cls-8" x1="3925.49" y1="535.42" x2="-1732.42" y2="936.12"/><line class="cls-8" x1="3924.66" y1="523.67" x2="-1733.25" y2="924.37"/><line class="cls-8" x1="3923.83" y1="511.93" x2="-1734.09" y2="912.63"/><line class="cls-8" x1="3923" y1="500.18" x2="-1734.92" y2="900.88"/><line class="cls-8" x1="3922.17" y1="488.44" x2="-1735.75" y2="889.14"/><line class="cls-8" x1="3921.34" y1="476.69" x2="-1736.58" y2="877.39"/><line class="cls-8" x1="3920.5" y1="464.95" x2="-1737.41" y2="865.65"/><line class="cls-8" x1="3919.67" y1="453.2" x2="-1738.25" y2="853.9"/><line class="cls-8" x1="3918.84" y1="441.46" x2="-1739.08" y2="842.16"/><line class="cls-8" x1="3918.01" y1="429.71" x2="-1739.91" y2="830.41"/><line class="cls-8" x1="3917.18" y1="417.97" x2="-1740.74" y2="818.67"/><line class="cls-8" x1="3916.34" y1="406.22" x2="-1741.57" y2="806.92"/><line class="cls-8" x1="3915.51" y1="394.48" x2="-1742.4" y2="795.18"/><line class="cls-8" x1="3914.68" y1="382.73" x2="-1743.24" y2="783.43"/><line class="cls-8" x1="3913.85" y1="370.99" x2="-1744.07" y2="771.69"/><line class="cls-8" x1="3913.02" y1="359.24" x2="-1744.9" y2="759.94"/><line class="cls-8" x1="3912.19" y1="347.5" x2="-1745.73" y2="748.2"/><line class="cls-8" x1="3911.35" y1="335.75" x2="-1746.56" y2="736.45"/><line class="cls-8" x1="3910.52" y1="324.01" x2="-1747.4" y2="724.71"/><line class="cls-8" x1="3909.69" y1="312.26" x2="-1748.23" y2="712.96"/><line class="cls-8" x1="3908.86" y1="300.52" x2="-1749.06" y2="701.22"/><line class="cls-8" x1="3908.03" y1="288.77" x2="-1749.89" y2="689.47"/><line class="cls-8" x1="3907.2" y1="277.03" x2="-1750.72" y2="677.73"/></g><polygon class="cls-9" points="1325.61 848.83 1299.18 843.68 1266.92 826.92 1226.31 819.77 1190.83 828.3 1174.71 841.47 1166.8 857.07 1244.04 956.86 1285.19 1014.1 1301.15 1012.97 1320.53 1003.58 1335.5 988.48 1350.91 965.33 1355.69 947.95 1298.49 932.96 1221.7 910.32 1210.03 887.09 1240.02 885.97 1250.14 887.26 1280.64 879.08 1306.71 879.24 1338.42 873.99 1381.24 869.95 1355.89 851.7 1325.61 848.83"/></g></g></g><polygon class="cls-10" points="1100 925 1062 920 965 920 868 920 830 925 793 943 793 951 797 961 818 974 851 985 900 995 946 995 965 995 984 995 1030 995 1079 985 1112 974 1133 961 1137 951 1137 943 1100 925"/><polygon class="cls-11" points="876 940 872 942 872 951 901 961 952 973 978 973 1029 960 1056 951 1059 942 1054 938.5 876 940"/><polygon class="cls-12" points="1047 873.03 1035 854.38 1016 841.32 992 832 965 832 938 832 914 841.32 895 854.38 883 873.03 876 905.66 876 932.7 876 947.62 902 956.95 930 964.4 953 970 965 970 977 970 1000 964.4 1028 956.95 1054 947.62 1054 932.7 1054 905.66 1047 873.03"/><polygon class="cls-13" points="977 933 965 933 953 933 876 913.67 876 948 902.75 957.15 935.68 965.79 953 970 965 970 977 970 994.32 965.79 1027.25 957.15 1054 948 1054 913.67 977 933"/><g class="cls-2"><g class="cls-14"><g class="cls-15"><g class="cls-16"><line class="cls-6" x1="4326.05" y1="1070" x2="-2436.74" y2="1210.61"/><line class="cls-6" x1="4325.8" y1="1058.23" x2="-2436.99" y2="1198.84"/><line class="cls-6" x1="4325.56" y1="1046.46" x2="-2437.23" y2="1187.06"/><line class="cls-6" x1="4325.31" y1="1034.69" x2="-2437.48" y2="1175.29"/><line class="cls-6" x1="4325.07" y1="1022.91" x2="-2437.72" y2="1163.52"/><line class="cls-6" x1="4324.82" y1="1011.14" x2="-2437.96" y2="1151.75"/><line class="cls-6" x1="4324.58" y1="999.37" x2="-2438.21" y2="1139.98"/><line class="cls-6" x1="4324.33" y1="987.6" x2="-2438.45" y2="1128.21"/><line class="cls-6" x1="4324.09" y1="975.83" x2="-2438.7" y2="1116.43"/><line class="cls-6" x1="4323.84" y1="964.05" x2="-2438.94" y2="1104.66"/><line class="cls-6" x1="4323.6" y1="952.28" x2="-2439.19" y2="1092.89"/><line class="cls-6" x1="4323.36" y1="940.51" x2="-2439.43" y2="1081.12"/><line class="cls-6" x1="4323.11" y1="928.74" x2="-2439.68" y2="1069.35"/><line class="cls-6" x1="4322.87" y1="916.97" x2="-2439.92" y2="1057.57"/><line class="cls-6" x1="4322.62" y1="905.19" x2="-2440.17" y2="1045.8"/><line class="cls-6" x1="4322.38" y1="893.42" x2="-2440.41" y2="1034.03"/><line class="cls-6" x1="4322.13" y1="881.65" x2="-2440.66" y2="1022.26"/><line class="cls-6" x1="4321.89" y1="869.88" x2="-2440.9" y2="1010.49"/><line class="cls-6" x1="4321.64" y1="858.11" x2="-2441.15" y2="998.71"/><line class="cls-6" x1="4321.4" y1="846.33" x2="-2441.39" y2="986.94"/><line class="cls-6" x1="4321.15" y1="834.56" x2="-2441.64" y2="975.17"/><line class="cls-6" x1="4320.91" y1="822.79" x2="-2441.88" y2="963.4"/><line class="cls-6" x1="4320.66" y1="811.02" x2="-2442.13" y2="951.63"/><line class="cls-6" x1="4320.42" y1="799.25" x2="-2442.37" y2="939.86"/><line class="cls-6" x1="4320.17" y1="787.48" x2="-2442.62" y2="928.08"/><line class="cls-6" x1="4319.93" y1="775.7" x2="-2442.86" y2="916.31"/><line class="cls-6" x1="4319.68" y1="763.93" x2="-2443.1" y2="904.54"/><line class="cls-6" x1="4319.44" y1="752.16" x2="-2443.35" y2="892.77"/><line class="cls-6" x1="4319.19" y1="740.39" x2="-2443.59" y2="881"/><line class="cls-6" x1="4318.95" y1="728.62" x2="-2443.84" y2="869.22"/><line class="cls-6" x1="4318.7" y1="716.84" x2="-2444.08" y2="857.45"/><line class="cls-6" x1="4318.46" y1="705.07" x2="-2444.33" y2="845.68"/><line class="cls-6" x1="4318.22" y1="693.3" x2="-2444.57" y2="833.91"/><line class="cls-6" x1="4317.97" y1="681.53" x2="-2444.82" y2="822.14"/><line class="cls-6" x1="4317.73" y1="669.76" x2="-2445.06" y2="810.36"/><line class="cls-6" x1="4317.48" y1="657.98" x2="-2445.31" y2="798.59"/><line class="cls-6" x1="4317.24" y1="646.21" x2="-2445.55" y2="786.82"/><line class="cls-6" x1="4316.99" y1="634.44" x2="-2445.8" y2="775.05"/><line class="cls-6" x1="4316.75" y1="622.67" x2="-2446.04" y2="763.28"/><line class="cls-6" x1="4316.5" y1="610.9" x2="-2446.29" y2="751.5"/><line class="cls-6" x1="4316.26" y1="599.13" x2="-2446.53" y2="739.73"/><line class="cls-6" x1="4316.01" y1="587.35" x2="-2446.78" y2="727.96"/><line class="cls-6" x1="4315.77" y1="575.58" x2="-2447.02" y2="716.19"/><line class="cls-6" x1="4315.52" y1="563.81" x2="-2447.27" y2="704.42"/><line class="cls-6" x1="4315.28" y1="552.04" x2="-2447.51" y2="692.65"/><line class="cls-6" x1="4315.03" y1="540.27" x2="-2447.75" y2="680.87"/><line class="cls-6" x1="4314.79" y1="528.49" x2="-2448" y2="669.1"/><line class="cls-6" x1="4314.54" y1="516.72" x2="-2448.24" y2="657.33"/><line class="cls-6" x1="4314.3" y1="504.95" x2="-2448.49" y2="645.56"/><line class="cls-6" x1="4314.05" y1="493.18" x2="-2448.73" y2="633.79"/><line class="cls-6" x1="4313.81" y1="481.41" x2="-2448.98" y2="622.01"/><line class="cls-6" x1="4313.57" y1="469.63" x2="-2449.22" y2="610.24"/><line class="cls-6" x1="4313.32" y1="457.86" x2="-2449.47" y2="598.47"/><line class="cls-6" x1="4313.08" y1="446.09" x2="-2449.71" y2="586.7"/><line class="cls-6" x1="4312.83" y1="434.32" x2="-2449.96" y2="574.93"/><line class="cls-6" x1="4312.59" y1="422.55" x2="-2450.2" y2="563.15"/><line class="cls-6" x1="4312.34" y1="410.77" x2="-2450.45" y2="551.38"/><line class="cls-6" x1="4312.1" y1="399" x2="-2450.69" y2="539.61"/><line class="cls-6" x1="4311.85" y1="387.23" x2="-2450.94" y2="527.84"/><line class="cls-6" x1="4311.61" y1="375.46" x2="-2451.18" y2="516.07"/><line class="cls-6" x1="4311.36" y1="363.69" x2="-2451.43" y2="504.3"/><line class="cls-6" x1="4311.12" y1="351.92" x2="-2451.67" y2="492.52"/><line class="cls-6" x1="4310.87" y1="340.14" x2="-2451.92" y2="480.75"/><line class="cls-6" x1="4310.63" y1="328.37" x2="-2452.16" y2="468.98"/><line class="cls-6" x1="4310.38" y1="316.6" x2="-2452.41" y2="457.21"/><line class="cls-6" x1="4310.14" y1="304.83" x2="-2452.65" y2="445.44"/><line class="cls-6" x1="4309.89" y1="293.06" x2="-2452.89" y2="433.66"/><line class="cls-6" x1="4309.65" y1="281.28" x2="-2453.14" y2="421.89"/><line class="cls-6" x1="4309.4" y1="269.51" x2="-2453.38" y2="410.12"/><line class="cls-6" x1="4309.16" y1="257.74" x2="-2453.63" y2="398.35"/></g><g class="cls-17"><line class="cls-8" x1="3839.25" y1="1075.25" x2="-1831.61" y2="1193.15"/><line class="cls-8" x1="3839.01" y1="1063.48" x2="-1831.86" y2="1181.38"/><line class="cls-8" x1="3838.76" y1="1051.71" x2="-1832.1" y2="1169.61"/><line class="cls-8" x1="3838.52" y1="1039.93" x2="-1832.35" y2="1157.84"/><line class="cls-8" x1="3838.27" y1="1028.16" x2="-1832.59" y2="1146.07"/><line class="cls-8" x1="3838.03" y1="1016.39" x2="-1832.84" y2="1134.29"/><line class="cls-8" x1="3837.78" y1="1004.62" x2="-1833.08" y2="1122.52"/><line class="cls-8" x1="3837.54" y1="992.85" x2="-1833.33" y2="1110.75"/><line class="cls-8" x1="3837.29" y1="981.07" x2="-1833.57" y2="1098.98"/><line class="cls-8" x1="3837.05" y1="969.3" x2="-1833.82" y2="1087.21"/><line class="cls-8" x1="3836.8" y1="957.53" x2="-1834.06" y2="1075.43"/><line class="cls-8" x1="3836.56" y1="945.76" x2="-1834.3" y2="1063.66"/><line class="cls-8" x1="3836.31" y1="933.99" x2="-1834.55" y2="1051.89"/><line class="cls-8" x1="3836.07" y1="922.21" x2="-1834.79" y2="1040.12"/><line class="cls-8" x1="3835.82" y1="910.44" x2="-1835.04" y2="1028.35"/><line class="cls-8" x1="3835.58" y1="898.67" x2="-1835.28" y2="1016.58"/><line class="cls-8" x1="3835.34" y1="886.9" x2="-1835.53" y2="1004.8"/><line class="cls-8" x1="3835.09" y1="875.13" x2="-1835.77" y2="993.03"/><line class="cls-8" x1="3834.85" y1="863.35" x2="-1836.02" y2="981.26"/><line class="cls-8" x1="3834.6" y1="851.58" x2="-1836.26" y2="969.49"/><line class="cls-8" x1="3834.36" y1="839.81" x2="-1836.51" y2="957.72"/><line class="cls-8" x1="3834.11" y1="828.04" x2="-1836.75" y2="945.94"/><line class="cls-8" x1="3833.87" y1="816.27" x2="-1837" y2="934.17"/><line class="cls-8" x1="3833.62" y1="804.5" x2="-1837.24" y2="922.4"/><line class="cls-8" x1="3833.38" y1="792.72" x2="-1837.49" y2="910.63"/><line class="cls-8" x1="3833.13" y1="780.95" x2="-1837.73" y2="898.86"/><line class="cls-8" x1="3832.89" y1="769.18" x2="-1837.98" y2="887.08"/><line class="cls-8" x1="3832.64" y1="757.41" x2="-1838.22" y2="875.31"/><line class="cls-8" x1="3832.4" y1="745.64" x2="-1838.47" y2="863.54"/><line class="cls-8" x1="3832.15" y1="733.86" x2="-1838.71" y2="851.77"/><line class="cls-8" x1="3831.91" y1="722.09" x2="-1838.96" y2="840"/><line class="cls-8" x1="3831.66" y1="710.32" x2="-1839.2" y2="828.23"/><line class="cls-8" x1="3831.42" y1="698.55" x2="-1839.44" y2="816.45"/><line class="cls-8" x1="3831.17" y1="686.78" x2="-1839.69" y2="804.68"/><line class="cls-8" x1="3830.93" y1="675" x2="-1839.93" y2="792.91"/><line class="cls-8" x1="3830.68" y1="663.23" x2="-1840.18" y2="781.14"/><line class="cls-8" x1="3830.44" y1="651.46" x2="-1840.42" y2="769.37"/><line class="cls-8" x1="3830.2" y1="639.69" x2="-1840.67" y2="757.59"/><line class="cls-8" x1="3829.95" y1="627.92" x2="-1840.91" y2="745.82"/><line class="cls-8" x1="3829.71" y1="616.15" x2="-1841.16" y2="734.05"/><line class="cls-8" x1="3829.46" y1="604.37" x2="-1841.4" y2="722.28"/><line class="cls-8" x1="3829.22" y1="592.6" x2="-1841.65" y2="710.51"/><line class="cls-8" x1="3828.97" y1="580.83" x2="-1841.89" y2="698.73"/><line class="cls-8" x1="3828.73" y1="569.06" x2="-1842.14" y2="686.96"/><line class="cls-8" x1="3828.48" y1="557.29" x2="-1842.38" y2="675.19"/><line class="cls-8" x1="3828.24" y1="545.51" x2="-1842.63" y2="663.42"/><line class="cls-8" x1="3827.99" y1="533.74" x2="-1842.87" y2="651.65"/><line class="cls-8" x1="3827.75" y1="521.97" x2="-1843.12" y2="639.87"/><line class="cls-8" x1="3827.5" y1="510.2" x2="-1843.36" y2="628.1"/><line class="cls-8" x1="3827.26" y1="498.43" x2="-1843.61" y2="616.33"/><line class="cls-8" x1="3827.01" y1="486.65" x2="-1843.85" y2="604.56"/><line class="cls-8" x1="3826.77" y1="474.88" x2="-1844.1" y2="592.79"/><line class="cls-8" x1="3826.52" y1="463.11" x2="-1844.34" y2="581.02"/><line class="cls-8" x1="3826.28" y1="451.34" x2="-1844.58" y2="569.24"/><line class="cls-8" x1="3826.03" y1="439.57" x2="-1844.83" y2="557.47"/><line class="cls-8" x1="3825.79" y1="427.79" x2="-1845.07" y2="545.7"/><line class="cls-8" x1="3825.54" y1="416.02" x2="-1845.32" y2="533.93"/><line class="cls-8" x1="3825.3" y1="404.25" x2="-1845.56" y2="522.16"/><line class="cls-8" x1="3825.06" y1="392.48" x2="-1845.81" y2="510.38"/><line class="cls-8" x1="3824.81" y1="380.71" x2="-1846.05" y2="498.61"/><line class="cls-8" x1="3824.57" y1="368.94" x2="-1846.3" y2="486.84"/><line class="cls-8" x1="3824.32" y1="357.16" x2="-1846.54" y2="475.07"/><line class="cls-8" x1="3824.08" y1="345.39" x2="-1846.79" y2="463.3"/><line class="cls-8" x1="3823.83" y1="333.62" x2="-1847.03" y2="451.52"/><line class="cls-8" x1="3823.59" y1="321.85" x2="-1847.28" y2="439.75"/></g><polygon class="cls-9" points="1216.69 764.13 1190.55 757.67 1159.16 739.32 1118.96 730.16 1083.1 736.9 1066.35 749.25 1057.66 764.44 1129.83 867.96 1168.07 927.18 1184.07 926.85 1203.89 918.43 1219.6 904.1 1236.14 881.75 1241.78 864.63 1185.4 846.8 1109.84 820.37 1099.34 796.58 1129.35 796.96 1139.39 798.75 1170.26 792.1 1196.3 793.56 1228.23 789.9 1271.2 788 1246.79 768.51 1216.69 764.13"/></g></g></g><g class="cls-18"><polyline class="cls-19" points="1052 945.75 981 966.5 955 966.75 878 945.75"/><polyline class="cls-19" points="1052 939.75 981 960.5 955 960.75 878 939.75"/><polyline class="cls-19" points="1052 933.75 981 954.5 955 954.75 878 933.75"/><polyline class="cls-19" points="1052 927.75 981 948.5 955 948.75 878 927.75"/><polyline class="cls-19" points="1052 921.75 981 942.5 955 942.75 878 921.75"/><polyline class="cls-19" points="1052 915.75 981 936.5 955 936.75 878 915.75"/></g></g></svg>