<svg id="Layer_8" data-name="Layer 8" xmlns="http://www.w3.org/2000/svg" viewBox="0 0 1920 1080"><defs><style>.cls-1{fill:#5d51fc;}.cls-2{fill:#d8d5d4;}</style></defs><title>0</title><path class="cls-1" d="M545.49,194.52c-1.36-115.18-90.38-208.11-200-208.11s-198.69,92.93-200,208.11Z"/><path class="cls-2" d="M557.93,205.19H133l.13-10.78C134.5,73.83,229.77-24.27,345.44-24.27S556.37,73.83,557.8,194.41ZM158.1,183.84H532.78C526.28,79.91,444.27-2.92,345.44-2.92S164.6,79.91,158.1,183.84Z"/><rect class="cls-1" x="143.66" y="186.23" width="403.52" height="905.14"/><path class="cls-2" d="M557.8,1099H133V178.6H557.8Zm-403.52-15.26H536.56V193.86H154.28Z"/><rect class="cls-2" x="334.8" y="-13.59" width="21.24" height="1104.97"/><rect class="cls-2" x="143.66" y="376.92" width="403.52" height="15.26"/><rect class="cls-2" x="143.66" y="633.72" width="403.52" height="15.26"/><rect class="cls-2" x="143.66" y="882.88" width="403.52" height="15.26"/><path class="cls-1" d="M1840.49,194.52c-1.36-115.18-90.38-208.11-200-208.11s-198.69,92.93-200,208.11Z"/><path class="cls-2" d="M1852.93,205.19H1428l.13-10.78c1.42-120.58,96.69-218.68,212.36-218.68s210.93,98.1,212.36,218.68ZM1453.1,183.84h374.68c-6.5-103.93-88.51-186.76-187.34-186.76S1459.6,79.91,1453.1,183.84Z"/><rect class="cls-1" x="1438.66" y="186.23" width="403.52" height="905.14"/><path class="cls-2" d="M1852.8,1099H1428V178.6H1852.8Zm-403.52-15.26h382.28V193.86H1449.28Z"/><rect class="cls-2" x="1629.8" y="-13.59" width="21.24" height="1104.97"/><rect class="cls-2" x="1438.66" y="376.92" width="403.52" height="15.26"/><rect class="cls-2" x="1438.66" y="633.72" width="403.52" height="15.26"/><rect class="cls-2" x="1438.66" y="882.88" width="403.52" height="15.26"/></svg>