<svg xmlns="http://www.w3.org/2000/svg" viewBox="0 0 1920 1080"><defs><style>.cls-1{fill:#96100c;}.cls-2{fill:#ffee8d;}.cls-3{fill:#efdd86;}.cls-4{fill:#890c0c;}</style></defs><title>2</title><g id="Layer_1" data-name="Layer 1"><g id="Layer_4" data-name="Layer 4"><polygon class="cls-1" points="269.27 846 258.9 984 258.9 1085 627.51 1085 614.31 1004 596.4 900 553.98 786 539.83 772 506.84 806 439.9 814 421.05 841 387.11 841 367.32 855 356 866 340.92 861 330.55 841 304.15 847 269.27 846"/><polygon class="cls-1" points="774.86 1081 632.51 987 632.51 974 698.5 843 684.36 837 632.51 804 570.29 743 553.32 745 543.89 745 543.89 763 565.57 782 584.43 837 606.11 895 622.14 996 637.22 1081 774.86 1081"/></g><polygon class="cls-2" points="789.94 1081 789.41 1038.97 787.11 856 789.94 626 787.11 572 774.86 597 764.49 643 755.06 737 748.46 733 726.78 619 731.49 582 712.64 609 712.64 645 701.33 629 678.7 553 642.88 477 642.88 428 650.42 415 620.25 442 610.83 439 629.68 375 648.53 343 630.62 358 601.4 398 595.74 391 619.31 307 665.5 227 631.57 237 570.29 281 601.4 302 607.05 323 593.86 369 579.72 408 576.89 460 573.12 627 575 739 638.16 802 688.13 835 706.04 841 680.59 894 637.22 981 700.38 1025 789.94 1081"/><polygon class="cls-1" points="722.07 1007 659.85 964 704.15 888 729.61 834 694.73 810 648.53 782 595.74 723 595.74 534 601.4 404 604.18 394.19 630.62 358 648.53 343 628.87 377.73 611.3 438.5 620.72 441.5 650.89 414.5 643.35 428.5 643.35 476.5 676.53 548.4 685.87 577.09 700.86 628.5 712.17 644.5 712.17 608.5 731.97 581.5 727.25 618.5 747.99 732.5 754.59 736.5 764.26 645.23 774.66 597.86 786.64 572.5 790.41 626.5 788.39 752.5 787.19 849.66 788.33 952.67 789.49 1045.33 789.59 1053 764.96 1036.5 722.07 1007"/><polygon class="cls-2" points="570.29 287 529.75 291 462.82 333 380.8 402 321.41 477 290.3 536 274.27 601 306.32 659 379.86 667 430.76 654 490.16 619 542.95 570 570.29 538 575 403 588.2 366 598.57 337 601.4 325 595.74 305 570.29 287"/><polygon class="cls-2" points="270.5 612 240.33 675 235.62 759 239.39 807 261.07 821 264.85 746 274.27 683 293.13 645 270.5 612"/><polygon class="cls-2" points="274.27 829 269.56 744 278.99 685 297.84 654 301.61 663 317.64 667 305.38 723 299.73 797 303.5 837 274.27 829"/><polygon class="cls-2" points="570.29 546 570.29 737 551.43 742 541.06 736 536.35 581 570.29 546"/><polygon class="cls-2" points="539.18 745 536.35 768 514.67 782 497.7 782 492.98 729 492.98 662 484.5 627 511.84 609 529.75 588 539.18 745"/><polygon class="cls-2" points="493.93 793 473.19 802 455.27 802 458.1 750 444.9 654 460.93 644 478.84 633 490.16 667 489.21 735 493.93 793"/><polygon class="cls-2" points="444.9 802 431.71 802 422.28 827 398.71 827 394 777 388.34 689 382.69 671 421.34 663 437.36 659 450.56 725 450.56 795 444.9 802"/><polygon class="cls-2" points="392.11 793 385.51 827 357.23 857 343.09 827 343.09 757 347.81 712 343.09 670 377.03 670 382.69 685 388.34 743 392.11 793"/><polygon class="cls-2" points="318.58 670 340.26 670 345.92 713 340.26 759 340.26 788 325.18 821 308.21 837 302.55 797 306.32 744 307.27 725 318.58 670"/><polygon class="cls-2" points="1183.83 1081 1184.36 1038.97 1186.66 856 1183.83 626 1186.66 572 1198.91 597 1209.28 643 1218.71 737 1225.31 733 1246.99 619 1242.28 582 1261.13 609 1261.13 645 1272.44 629 1295.07 553 1330.89 477 1330.89 428 1323.35 415 1353.52 442 1362.95 439 1344.09 375 1325.24 343 1343.15 358 1372.37 398 1378.03 391 1354.46 307 1308.27 227 1342.21 237 1403.48 281 1372.37 302 1366.72 323 1379.91 369 1394.06 408 1396.88 460 1400.65 627 1398.77 739 1335.61 802 1285.64 835 1267.73 841 1293.18 894 1336.55 981 1273.39 1025 1183.83 1081"/><polygon class="cls-1" points="1251.7 1007 1313.92 964 1269.62 888 1244.16 834 1279.04 810 1325.24 782 1378.03 723 1378.03 534 1372.37 404 1369.59 394.19 1343.15 358 1325.24 343 1344.9 377.73 1362.47 438.5 1353.05 441.5 1322.88 414.5 1330.42 428.5 1330.42 476.5 1297.24 548.4 1287.9 577.09 1272.92 628.5 1261.6 644.5 1261.6 608.5 1241.81 581.5 1246.52 618.5 1225.78 732.5 1219.18 736.5 1209.51 645.23 1199.11 597.86 1187.13 572.5 1183.36 626.5 1185.38 752.5 1186.58 849.66 1185.44 952.67 1184.28 1045.33 1184.18 1053 1208.81 1036.5 1251.7 1007"/><polygon class="cls-1" points="1703.5 846 1713.87 984 1713.87 1085 1345.26 1085 1358.46 1004 1376.37 900 1418.8 786 1432.94 772 1465.93 806 1532.87 814 1551.72 841 1585.66 841 1605.45 855 1616.77 866 1631.85 861 1642.22 841 1668.62 847 1703.5 846"/><polygon class="cls-1" points="1198.91 1081 1341.26 987 1341.26 974 1275.27 843 1289.41 837 1341.26 804 1403.48 743 1420.45 745 1429.88 745 1429.88 763 1408.2 782 1389.34 837 1367.66 895 1351.63 996 1336.55 1081 1198.91 1081"/><polygon class="cls-2" points="1403.48 287 1444.02 291 1510.95 333 1592.97 402 1652.36 477 1683.47 536 1699.5 601 1667.44 659 1593.91 667 1543.01 654 1483.61 619 1430.82 570 1403.48 538 1398.77 403 1385.57 366 1375.2 337 1372.37 325 1378.03 305 1403.48 287"/><polygon class="cls-2" points="1703.27 612 1733.44 675 1738.15 759 1734.38 807 1712.7 821 1708.92 746 1699.5 683 1680.64 645 1703.27 612"/><polygon class="cls-2" points="1699.5 829 1704.21 744 1694.78 685 1675.93 654 1672.16 663 1656.13 667 1668.39 723 1674.05 797 1670.27 837 1699.5 829"/><polygon class="cls-2" points="1403.48 546 1403.48 737 1422.34 742 1432.71 736 1437.42 581 1403.48 546"/><polygon class="cls-2" points="1434.59 745 1437.42 768 1459.1 782 1476.07 782 1480.79 729 1480.79 662 1489.27 627 1461.93 609 1444.02 588 1434.59 745"/><polygon class="cls-2" points="1479.84 793 1500.58 802 1518.49 802 1515.67 750 1528.87 654 1512.84 644 1494.93 633 1483.61 667 1484.56 735 1479.84 793"/><polygon class="cls-2" points="1528.87 802 1542.06 802 1551.49 827 1575.06 827 1579.77 777 1585.43 689 1591.09 671 1552.43 663 1536.41 659 1523.21 725 1523.21 795 1528.87 802"/><polygon class="cls-2" points="1581.66 793 1588.26 827 1616.54 857 1630.68 827 1630.68 757 1625.97 712 1630.68 670 1596.74 670 1591.09 685 1585.43 743 1581.66 793"/><polygon class="cls-2" points="1655.19 670 1633.51 670 1627.85 713 1633.51 759 1633.51 788 1648.59 821 1665.56 837 1671.22 797 1667.44 744 1666.5 725 1655.19 670"/><polygon class="cls-3" points="1703 618 1729 675 1735 759 1731 806 1715 816 1726 757 1719 676 1684 646 1703 618"/><polygon class="cls-3" points="1676 659 1691 685 1699 743 1695 827 1675 833 1690 746 1684 685 1673 665 1676 659"/><polygon class="cls-3" points="1636 672 1631 713 1636 754 1636 713 1636 672"/><polygon class="cls-3" points="1663 830 1666 796 1663 724 1652 672 1647 672 1659 725 1662 797 1650 813 1650 818 1663 830"/><polyline class="cls-3" points="1600 672 1599.33 673.73 1595 685 1586 792 1591 824 1615 850 1628 824 1603 823 1589 791 1599 685 1628 672"/><polygon class="cls-3" points="1539 662 1526 725 1526 792 1531 799 1542 799 1536 792 1529 761 1530 726 1548 667 1560 667 1541 662 1539 662"/><polygon class="cls-3" points="1546 802 1553 825 1572 825 1580 718 1567 813 1555 812 1546 802"/><polygon class="cls-3" points="1496 638 1523 654 1520 696 1516 656 1496 638"/><polygon class="cls-3" points="1487 670 1489 737 1483 791 1500 799 1516 799 1499 793 1489 786 1496 738 1487 670"/><polygon class="cls-3" points="1446 595 1459 612 1483 629 1476 662 1477 729 1472 778 1459 778 1468 729 1464 661 1471 636 1454 621 1446 595"/><polygon class="cls-3" points="1406 569 1406 734 1422 737 1411 726 1414 560 1406 569"/><polygon class="cls-3" points="1673 530 1681 540 1695 598 1666 656 1591 662 1546 651 1489 618 1432 567 1424 555 1430 549 1437 564 1496 605 1551 627 1591 631 1656 618 1681 595 1676 540 1673 530"/><polygon class="cls-3" points="271 619 245 676 239 760 243 807 259 817 248 758 255 677 290 647 271 619"/><polygon class="cls-3" points="298 660 283 686 275 744 279 828 299 834 284 747 290 686 301 666 298 660"/><polygon class="cls-3" points="338 673 343 714 338 755 338 714 338 673"/><polygon class="cls-3" points="311 831 308 797 311 725 322 673 327 673 315 726 312 798 324 814 324 819 311 831"/><polyline class="cls-3" points="374 673 374.67 674.73 379 686 388 793 383 825 359 851 346 825 371 824 385 792 375 686 346 673"/><polygon class="cls-3" points="435 663 448 726 448 793 443 800 432 800 438 793 445 762 444 727 426 668 414 668 433 663 435 663"/><polygon class="cls-3" points="428 803 421 826 402 826 394 719 407 814 419 813 428 803"/><polygon class="cls-3" points="478 639 451 655 454 697 458 657 478 639"/><polygon class="cls-3" points="487 671 485 738 491 792 474 800 458 800 475 794 485 787 478 739 487 671"/><polygon class="cls-3" points="528 596 515 613 491 630 498 663 497 730 502 779 515 779 506 730 510 662 503 637 520 622 528 596"/><polygon class="cls-3" points="568 570 568 735 552 738 563 727 560 561 568 570"/><polygon class="cls-3" points="301 531 293 541 279 599 308 657 383 663 428 652 485 619 542 568 550 556 544 550 537 565 478 606 423 628 383 632 318 619 293 596 298 541 301 531"/><polygon class="cls-4" points="568 750 606 788 645 821 691 846 630 968 633 936 665 857 633 840 596 797 568 750"/><polygon class="cls-4" points="504 812 440 821 423 848 389 848 362 872 341 867 326 848 307 851 274 851 262 988 265 1084 389 1085 319 984 298 863 309 858 319 855 335 880 362 888 396 863 429 863 453 838 517 821 539 783 504 812"/><polygon class="cls-4" points="1407 747 1369 785 1330 818 1284 843 1345 965 1342 933 1310 854 1342 837 1379 794 1407 747"/><polygon class="cls-4" points="1470 809 1534 818 1551 845 1585 845 1612 869 1633 864 1648 845 1667 848 1700 848 1712 985 1709 1081 1585 1082 1655 981 1676 860 1665 855 1655 852 1639 877 1612 885 1578 860 1545 860 1521 835 1457 818 1435 780 1470 809"/><polygon class="cls-4" points="1237 837 1261 891 1306 961 1237 1012 1213 988 1237 837"/><polygon class="cls-4" points="1372 649 1372 722 1323 778 1259 816 1318 772 1363 717 1372 649"/><polygon class="cls-4" points="736 837 712 891 667 961 736 1012 760 988 736 837"/><polygon class="cls-4" points="603 648 603 721 652 777 716 815 657 771 612 716 603 648"/></g></svg>