<svg xmlns="http://www.w3.org/2000/svg" xmlns:xlink="http://www.w3.org/1999/xlink" viewBox="0 0 1920 1080"><defs><style>.cls-1{fill:#ffefd7;}.cls-2{fill:#bcbcbc;}.cls-3{fill:#f2f2f2;}.cls-4{fill:none;stroke:#333232;stroke-miterlimit:10;}.cls-5{fill:#ff9f8f;opacity:0.36;}.cls-12,.cls-16,.cls-6{fill:#303030;}.cls-16,.cls-7{opacity:0.54;}.cls-8{fill:url(#linear-gradient);}.cls-9{fill:url(#linear-gradient-2);}.cls-10{fill:url(#linear-gradient-3);}.cls-11{fill:url(#linear-gradient-4);}.cls-12{opacity:0.14;}.cls-13,.cls-15{fill:#d6c994;}.cls-13{opacity:0.2;}.cls-14{fill:#515151;}.cls-15{opacity:0.21;}.cls-17{fill:#424242;}</style><linearGradient id="linear-gradient" x1="1032.54" y1="550.79" x2="1032.54" y2="481.51" gradientUnits="userSpaceOnUse"><stop offset="0"/><stop offset="1" stop-color="#333"/></linearGradient><linearGradient id="linear-gradient-2" x1="1117.48" y1="554.5" x2="1117.48" y2="461.67" xlink:href="#linear-gradient"/><linearGradient id="linear-gradient-3" x1="941.77" y1="550.79" x2="941.77" y2="481.51" xlink:href="#linear-gradient"/><linearGradient id="linear-gradient-4" x1="856.83" y1="554.5" x2="856.83" y2="461.67" xlink:href="#linear-gradient"/></defs><title>3</title><g id="Layer_3" data-name="Layer 3"><polygon class="cls-1" points="1150.83 488 1141.41 438 1141.41 470 1128.21 523 1119.72 525 1119.72 452 1112.18 395 1112.18 478 1079.19 560 1065.05 556 1068.82 442 1065.05 407 1058.45 473 1043.36 490 1036.76 487 1030.16 335 1003.77 247 986.88 264.91 970 247 943.61 335 937.01 487 930.41 490 915.32 473 908.73 407 904.95 442 908.73 556 894.58 560 861.59 478 861.59 395 854.05 452 854.05 525 845.56 523 832.37 470 832.37 438 822.94 488 816.34 574 819.17 633 829.54 662 869.13 709 929.47 763 961.52 768 986.8 768 986.97 768 1012.25 768 1044.31 763 1104.64 709 1144.23 662 1154.6 633 1157.43 574 1150.83 488"/></g><g id="Layer_1" data-name="Layer 1"><polygon class="cls-2" points="986.97 782 937.95 774 901.18 753 849.33 698 810.68 644 799.37 626 790.88 821 793.71 1005 793.71 1081 986.97 1081 986.97 782"/><polygon class="cls-2" points="986.8 782 1035.82 774 1072.59 753 1124.44 698 1163.09 644 1174.4 626 1182.89 821 1180.06 1005 1180.06 1081 986.8 1081 986.8 782"/><polygon class="cls-3" points="1137 600 1115.5 627.87 1071.7 651.76 1018.35 662.91 986.5 662.91 986.5 695.56 986.5 729 1016.76 729 1053.39 719.44 1085.24 700.33 1108.33 678.83 1124.26 648.57 1137 619.11 1137 600"/><polyline class="cls-4" points="1122.67 648.57 1099.91 666.89 1068.51 684.41 1041.83 690.78 1013.57 693.96"/><polyline class="cls-4" points="1043.43 679.23 1043.43 686.4 1041.05 691.18"/><polyline class="cls-4" points="1074.89 693.96 1074.09 688.39 1069.97 684.05"/><polygon class="cls-5" points="1134.61 620.7 1128.24 618.32 1120.2 621.78 1112.32 637.43 1110.72 643.8 1107.54 637.43 1100 636.32 1088.69 642.49 1086.83 650.17 1086.83 654.94 1080.46 650.17 1075.9 649.47 1112.84 629.32 1115.5 627.87 1137 600 1137 619.11 1135.36 622.9 1134.61 620.7"/><polygon class="cls-3" points="836 600 857.5 627.87 901.3 651.76 954.65 662.91 986.5 662.91 986.5 695.56 986.5 729 956.24 729 919.61 719.44 887.76 700.33 864.67 678.83 848.74 648.57 836 619.11 836 600"/><polyline class="cls-4" points="959.43 693.96 931.17 690.78 904.49 684.41 873.09 666.89 850.33 648.57"/><polyline class="cls-4" points="929.57 679.23 929.57 686.4 931.95 691.18"/><polyline class="cls-4" points="898.11 693.96 898.91 688.39 903.03 684.05"/><polygon class="cls-5" points="838.39 620.7 844.76 618.32 852.8 621.78 860.68 637.43 862.28 643.8 865.46 637.43 873 636.32 884.31 642.49 886.17 650.17 886.17 654.94 892.54 650.17 897.1 649.47 860.16 629.32 857.5 627.87 836 600 836 619.11 837.64 622.9 838.39 620.7"/><line class="cls-4" x1="958.63" y1="693.96" x2="1013.57" y2="693.96"/><polygon class="cls-6" points="1012.25 631 1028.82 641 1052.74 655 1075.75 680 1115.32 687 1166.86 687 1195.39 687 1217.47 687 1251.53 676 1275.45 655 1282.81 625 1274.53 603 1256.13 584 1234.04 584 1218.39 593 1214.71 614 1223.92 625 1239.56 631 1246.92 635 1244.16 644 1236.8 652 1223 663 1208.27 670 1168.7 670 1144.77 670 1131.89 663 1098.76 652 1078.51 635 1049.06 623 1028.82 621 1012.25 631"/><polygon class="cls-6" points="986.5 749.89 952 742 971 750 986 750 987 750 1002 750 1021 742 986.5 749.89"/><g class="cls-7"><polygon class="cls-6" points="1000.5 606.07 994.5 562.07 994.5 532 995.5 532 995.5 562 1001.5 605.93 1000.5 606.07"/></g><g class="cls-7"><polygon class="cls-6" points="976.5 606.07 975.5 605.93 981.5 561.93 981.5 532 982.5 532 982.5 562 976.5 606.07"/></g><polygon class="cls-8" points="1067.51 481.51 997.57 500.5 1000.14 505.63 1009.83 516.71 1026.09 530.15 1046.15 541.93 1065.22 550.79 1067.51 481.51"/><polygon class="cls-9" points="1151.66 461.67 1141 464.17 1141 470 1128 523 1119 522 1119.67 469.17 1112 470.97 1112 478 1109.5 485.75 1081.21 554.07 1083.59 554.5 1104.04 551.17 1121.7 543.84 1131.86 532.83 1145.18 510.7 1151.16 490.4 1153.75 476.05 1151.66 461.67"/><polygon class="cls-10" points="906.8 481.51 909.09 550.79 928.16 541.93 948.22 530.15 964.48 516.71 974.17 505.63 976.75 500.5 906.8 481.51"/><polygon class="cls-11" points="864.81 485.75 862.31 478 862.31 470.97 854.64 469.17 855.31 522 846.31 523 833.31 470 833.31 464.17 822.65 461.67 820.57 476.05 823.15 490.4 829.13 510.7 842.45 532.83 852.61 543.84 870.27 551.17 890.72 554.5 893.1 554.07 864.81 485.75"/><polygon class="cls-12" points="982.88 503.16 973.89 528.28 931.13 566.56 840 570.96 839.94 562.9 928.74 561.24 971.14 525.94 982.88 503.16"/><polygon class="cls-12" points="992.12 503.16 1001.11 528.28 1043.87 566.56 1135 570.96 1135.06 562.9 1046.26 561.24 1003.86 525.94 992.12 503.16"/><polygon class="cls-12" points="849 550 842 541 829 520 826 512 824.83 514.83 827 521 841 542 848 551 849 550"/><polygon class="cls-12" points="1125.83 550 1132.83 541 1145.83 520 1148.83 512 1150 514.83 1147.83 521 1133.83 542 1126.83 551 1125.83 550"/><polygon class="cls-6" points="979 498 982 492 983 482 979 485 965 484 940 470 940 481 960 492 979 498"/><polygon class="cls-6" points="913 470 907 467 906 456 912 459 913 470"/><polyline class="cls-6" points="861 453 855.38 450.75 858 436 860 436 861 452"/><polygon class="cls-6" points="994.38 498 991.38 492 990.38 482 994.38 485 1008.38 484 1033.38 470 1033.38 481 1013.38 492 994.38 498"/><polygon class="cls-6" points="1060.38 470 1066.38 467 1067.38 456 1061.38 459 1060.38 470"/><polyline class="cls-6" points="1113.38 453 1119 450.75 1116.38 436 1114.38 436 1113.38 452"/><polygon class="cls-12" points="1015 311 1000 373 992 470 990 470 996 372 1012 309 1015 311"/><polygon class="cls-12" points="988 402 987.92 400.65 983 322 961 290 960 294 979 324 987 433 988 402"/><polygon class="cls-13" points="983 503 976 532 932 581 840 594 840 571 931 566 950 546 956 540 966 531 969 529 971 527 983 503"/><polygon class="cls-13" points="992 503 999 532 1043 581 1135 594 1135 571 1044 566 1025 546 1019 540 1009 531 1006 529 1004 527 992 503"/></g><g id="Layer_2" data-name="Layer 2"><polygon class="cls-14" points="1310.15 323.87 1345.98 351.56 1372.37 392.59 1348.81 312.59 1317.69 253.1 1298.84 221.31 1326.18 221.31 1353.52 237.72 1304.5 183.36 1256.42 149.51 1286.59 145.41 1312.04 149.51 1260.19 122.85 1210.22 102.33 1189.48 86.95 1148.01 65.41 1172.52 59.26 1191.37 59.26 1150.83 49 1098.98 49 1098.98 37.72 1110.3 9 1088.61 19.26 1054.67 33.62 1038.65 43.87 1032.99 29.51 1015.08 45.92 986.97 31.65 986.97 31.56 986.88 31.61 986.8 31.56 986.8 31.65 958.69 45.92 940.78 29.51 935.12 43.87 919.1 33.62 885.16 19.26 863.48 9 874.79 37.72 874.79 49 822.94 49 782.4 59.26 801.25 59.26 825.77 65.41 784.29 86.95 763.55 102.33 713.58 122.85 661.73 149.51 687.18 145.41 717.35 149.51 669.27 183.36 620.25 237.72 647.59 221.31 674.93 221.31 656.08 253.1 624.97 312.59 601.4 392.59 627.79 351.56 663.62 323.87 632.51 382.33 618.37 437.72 648.53 409 662.67 398.74 648.53 427.46 648.53 473.62 659.85 502.33 684.36 551.56 708.87 636.69 708.87 605.92 737.15 566.95 733.38 618.23 752.23 729 758.83 644.9 769.2 595.67 789.94 558.74 797.48 601.82 817.28 630.54 814.45 573.1 820.11 487.97 835.19 406.95 835.19 465.41 848.39 519.77 848.39 453.1 863.48 364.9 863.48 405.92 869.13 482.85 897.41 554.64 904.95 554.64 901.18 432.59 912.5 363.87 912.5 411.05 920.98 472.59 932.29 484.9 938.89 333.1 967.17 234.64 986.8 254.97 986.8 255.15 986.88 255.06 986.97 255.15 986.97 254.97 1006.6 234.64 1034.88 333.1 1041.48 484.9 1052.79 472.59 1061.27 411.05 1061.27 363.87 1072.59 432.59 1068.82 554.64 1076.36 554.64 1104.64 482.85 1110.3 405.92 1110.3 364.9 1125.38 453.1 1125.38 519.77 1138.58 465.41 1138.58 406.95 1153.66 487.97 1159.32 573.1 1156.49 630.54 1176.29 601.82 1183.83 558.74 1204.57 595.67 1214.94 644.9 1221.54 729 1240.39 618.23 1236.62 566.95 1264.9 605.92 1264.9 636.69 1289.41 551.56 1313.92 502.33 1325.24 473.62 1325.24 427.46 1311.1 398.74 1325.24 409 1355.4 437.72 1341.26 382.33 1310.15 323.87"/><polygon class="cls-15" points="1017 313 1002 374 993 480 1017 378 1028 337 1017 313"/><polygon class="cls-15" points="977 325 985 462 969 335 953 313 959 297 977 325"/><polygon class="cls-15" points="1010 289 993 369 991 387 987 322 963 282 969 260 993 297 996 327 1009 269 1010 289"/></g><g id="Layer_6" data-name="Layer 6"><polygon class="cls-6" points="961.52 631 944.95 641 921.03 655 898.02 680 858.45 687 806.91 687 778.38 687 756.3 687 722.25 676 698.32 655 690.96 625 699.24 603 717.64 584 739.73 584 755.38 593 759.06 614 749.85 625 734.21 631 726.85 635 729.61 644 736.97 652 750.77 663 765.5 670 805.07 670 829 670 841.88 663 875.01 652 895.26 635 924.71 623 944.95 621 961.52 631"/><polygon class="cls-16" points="1020 596 1029 613 1017 618 1002 628 992 633 992 629 1000 626 1014 616 1024 612 1018 598 1020 596"/><polygon class="cls-16" points="956 596 947 613 959 618 974 628 984 633 984 629 976 626 962 616 952 612 958 598 956 596"/></g><g id="Layer_7" data-name="Layer 7"><polygon class="cls-17" points="1278 287 1319 315 1353 352 1328 305 1270 252 1307 260 1268 221 1281 207 1307 212 1274 193 1232 193 1270 174 1223 174 1239 144 1269 140 1220 132 1193 142 1208 119 1157 100 1162 88 1110 74 1148 57 1162 56 1134 56 1087 67 1086 42 1097 24 1048 52 1033 67 1033 42 1012 65 987 37 962 65 941 42 941 67 926 52 877 24 888 42 887 67 840 56 812 56 826 57 864 74 812 88 817 100 766 119 781 142 754 132 705 140 735 144 751 174 704 174 742 193 700 193 667 212 693 207 706 221 667 260 704 252 646 305 621 352 655 315 696 287 653 366 640 408 658 374 699 309 674 444 684 492 684 456 710 326 736 260 702 428 712 507 712 433 736 343 727 456 740 532 740 456 752 343 790 258 771 337 763 429 769 555 774 433 783 343 804 281 787 402 787 525 795 404 820 328 801 445 801 512 807 444 824 365 884 262 839 361 844 407 848 365 914 259 893 343 893 422 902 351 938 257 930 323 930 378 936 326 965 227 987 247 1009 227 1038 326 1044 378 1044 323 1036 257 1072 351 1081 422 1081 343 1060 259 1126 365 1130 407 1135 361 1090 262 1150 365 1167 444 1173 512 1173 445 1154 328 1179 404 1187 525 1187 402 1170 281 1191 343 1200 433 1205 555 1211 429 1203 337 1184 258 1222 343 1234 456 1234 532 1247 456 1238 343 1262 433 1262 507 1272 428 1238 260 1264 326 1290 456 1290 492 1300 444 1275 309 1316 374 1334 408 1321 366 1278 287"/><polygon class="cls-17" points="812 516 808 571 812 618.33 798 571 812 516"/><polygon class="cls-17" points="1219 482 1219 531 1214.55 577.09 1226.17 565.51 1226 530 1219 482"/><polygon class="cls-17" points="870 445 874 484 901 551 885 482 870 365 870 445"/><polygon class="cls-17" points="1083 431 1074 543 1102 474 1106 396 1094 474 1083 514 1083 474 1083 431"/></g></svg>