<svg xmlns="http://www.w3.org/2000/svg" viewBox="0 0 1920 1080"><defs><style>.cls-1{fill:#a0a0a0;}.cls-2{fill:#7a7a7a;}</style></defs><title>4</title><g id="Layer_6" data-name="Layer 6"><polygon class="cls-1" points="-19.91 -163.63 134.28 -17.97 252.32 99.58 404.1 229.91 662.6 481.63 887.12 705.23 1100.33 890.51 1296.67 1070.67 1389.42 1155 1179.83 1155 1020.83 1015.73 836.53 822.79 570.33 567.24 328.21 357.69 124.64 187.75 46.34 100.86 13.82 89.36 -44 15.25 -19.91 -163.63"/></g><g id="Layer_12" data-name="Layer 12"><polygon class="cls-2" points="576 413 680 507 713 561 887.04 738 704 569 667 512 576 413"/><polygon class="cls-2" points="768 719 930 792 923.46 846.37 913 799 768 719"/></g><g id="Layer_10" data-name="Layer 10"><polygon class="cls-2" points="1085 898 1175 982 1199 1026 1300.29 1080 1193 1041 1157 982 1085 898"/><polygon class="cls-2" points="162 136 252 220 276 264 377.29 318 270 279 234 220 162 136"/></g></svg>