<svg xmlns="http://www.w3.org/2000/svg" xmlns:xlink="http://www.w3.org/1999/xlink" viewBox="0 0 1920 1080"><defs><style>.cls-1{fill:#9be5f9;}.cls-2{fill:#79cde0;}.cls-3{fill:#f7d1b2;}.cls-4{fill:#282727;}.cls-5{opacity:0.35;}.cls-6{fill:#e6e6e6;}.cls-7{fill:#1a1a1a;opacity:0.75;}.cls-8{fill:url(#linear-gradient);}</style><linearGradient id="linear-gradient" x1="597.85" y1="679.16" x2="624.17" y2="647.8" gradientUnits="userSpaceOnUse"><stop offset="0" stop-color="#fff" stop-opacity="0"/><stop offset="1" stop-color="#494949"/></linearGradient></defs><title>1</title><g id="Layer_1" data-name="Layer 1"><polygon class="cls-1" points="108 579 158 545 194 533 235 533 288 543 330 591 362 649 358 689 369 716 382 726 398 783 430 827 454 835 454 875 470 939 488 979 499 1043 499 1082 0 1082 3 908 22 791 41 675 82 591 108 579"/><polygon class="cls-2" points="344 965 331 767 326 673 296 607 256 563 182 559 107 587 73 619 42 705 29 796 20 900 8 971 94 953 202 948 317 958 344 965"/><polygon class="cls-3" points="301 961 306 1079 56 1079 56 971 94 958 198 952 301 961"/><polygon class="cls-3" points="425 807 432 781 403 736 369 640 378 598 357 589 344 599 340 604 365 645 361 689 371 713 386 725 401 781 429 822 425 807"/><polygon class="cls-3" points="352 416 328 450 321 510 333 555 357 585 382 594 394 522 414 474 352 416"/><polygon class="cls-4" points="278 342 245 364 286 360 235 410 275 393 269 416 243 448 272 434 260 458 249 480 276 458 272 483 271 515 280 492 283 523 286 539 292 530 294 543 321 568 340 594 352 584 329 559 315 509 321 446 347 410 278 342"/><polygon class="cls-4" points="420 469 396 530 441 482 420 469"/><polygon class="cls-4" points="462 502 434 559 432 569 460 543 487 524 462 502"/><polygon class="cls-4" points="487 559 494 531 511 545 487 559"/><polygon class="cls-3" points="695 714 615 647 532 579 507 552 482 566 488 539 480 533 439 566 428 577 428 559 452 511 434 492 396 535 380 628 380 659 407 733 436 784 482 828 538 869 607 893 645 893 662.64 881.24 665 884 668 884 685 873 688 857 682.14 844.7 704 839 709 827 750 842 753 792 768 770 695 714"/><g class="cls-5"><polygon points="658.21 871.61 644.35 853.79 618.55 840.89 567.63 820.93 568.37 819.07 619.37 839.07 645.65 852.21 645.79 852.39 659.79 870.39 658.21 871.61"/></g><polygon class="cls-6" points="680 839 666 828 652 801 627 752 598 701 544 645 509 618 464 608 428 617 396 637 387 659 396 692 414 723 447 742 502 757 550 777 595 795 624 811 648 822 671 839 680 845 680 839"/><polygon class="cls-7" points="568.91 753.81 505.94 705.83 497 698.6 497 692.5 495.99 681.36 493.01 681.64 494 692.57 494 696.18 464.85 672.61 460.98 647.27 458.02 647.73 461.39 669.81 459 667.88 426.04 635.92 414.81 628.73 413.19 631.27 424.06 638.18 456.96 670.08 460.42 672.88 453.75 675.17 447.54 680.35 449.46 682.65 455.25 677.83 463.17 675.1 504.09 708.19 513.25 715.17 512.5 714.92 503.03 718.08 503.97 720.92 512.5 718.08 520.7 720.84 567.16 756.24 651.16 813.24 652.84 810.76 568.91 753.81"/><g class="cls-5"><polygon points="556.38 636.78 532.48 617.87 486.74 597.98 461.88 594.99 462.12 593.01 487.26 596.02 487.4 596.08 533.52 616.13 557.62 635.22 556.38 636.78"/></g><g class="cls-5"><polygon points="501.55 779.89 495.55 776.89 477.59 768.91 453.68 760.95 411.63 742.76 412.42 740.92 454.4 759.08 478.32 767.05 496.41 775.09 502.45 778.11 501.55 779.89"/></g><polygon class="cls-8" points="768 770 753 792 565 629 460 559 451.25 556.14 480 533 487 539 482 566 510 552 533 579 768 770"/></g></svg>