<svg xmlns="http://www.w3.org/2000/svg" viewBox="0 0 1920 1080"><defs><style>.cls-1{fill:#edd791;}.cls-2{fill:#ff6464;}</style></defs><title>2</title><g id="Layer_1" data-name="Layer 1"><polygon class="cls-1" points="306 233 176 137 56 85 44 94 93 170 321 370 521 548 725 725 869 838 1059 962 1086 971 1086 952 1001 841 905 730 783 649 603 505 407 334 306 233"/><polygon class="cls-1" points="951 641 989 578 1016 505 960 539 861 547 818 539 796 516 813 474 850 447 923 437 968 402 970 363 942 296 903 259 862 234 799 229 751 247 712 292 673 363 652 380 624 380 602 358 589 341 607 291 622 261 627 234 655 208 690 167 712 148 783 138 746 131 697 139 644 169 625 189 603 253 569 289 531 291 508 272 501 251 522 218 531 193 501 219 460 220 440 198 446 177 454 168 432 165 412 155 387 179 460 257 546 334 690 454 872 597 942 651 951 641"/><polygon class="cls-2" points="382 181 367 183 367 198 331 229 315 229 390 311 590 487 750 613 879 707 900 720 903 712 933 675 940 657 809 551 720 480 623 416 518 318 414 219 382 181"/></g></svg>