<svg xmlns="http://www.w3.org/2000/svg" viewBox="0 0 1920 1080"><defs><style>.cls-1{fill:#e2d1ae;}</style></defs><title>3</title><g id="Layer_1" data-name="Layer 1"><polygon class="cls-1" points="1322.5 -1.5 1199.5 66.5 1094.5 107.5 1029.5 117.5 966.5 84.5 855.5 47.5 715.5 57.5 651.5 57.5 564.5 130.5 545.5 145.5 534.5 202.5 509.5 254.5 523.5 273.5 554.5 285.5 569.5 279.5 595.5 252.5 621.5 183.5 662.5 147.5 716.5 128.5 782.5 130.5 796.5 137.5 722.5 153.5 694.5 172.5 651.5 225.5 631.5 239.5 622.5 285.5 601.5 325.5 596.5 344.5 614.5 362.5 640.5 374.5 657.5 367.5 671.5 356.5 685.5 327.5 707.5 285.5 730.5 264.5 752.5 238.5 762.5 231.5 826.5 221.5 871.5 226.5 906.5 248.5 949.5 295.5 973.5 340.5 978.5 386.5 974.5 408.5 950.5 428.5 923.5 450.5 884.5 454.5 842.5 461.5 821.5 476.5 808.5 502.5 815.5 527.5 845.5 538.5 875.5 535.5 920.5 532.5 956.5 532.5 1007.5 491.5 1046.5 477.5 1072.5 463.5 1116.5 382.5 1159.5 321.5 1181.5 295.5 1292.5 239.5 1393.5 191.5 1487.5 158.5 1603.5 110.5 1669.5 92.5 1669.5 -1.5 1322.5 -1.5"/><polyline class="cls-1" points="827.5 43.5 792.5 23.5 743.5 17.5 661.5 13.5 612.5 13.5 571.5 43.5 518.5 71.5 491.5 101.5 459.5 164.5 448.5 188.5 461.5 211.5 499.5 214.5 528.5 188.5 535.5 177.5 541.5 142.5 647.5 53.5 720.5 54.5 827.5 45.5"/><polygon class="cls-1" points="591.5 20.5 564.5 22.5 538.5 40.5 496.5 55.5 471.5 68.5 413.5 136.5 426.5 156.5 457.5 160.5 487.5 99.5 514.5 68.5 564.5 41.5 591.5 20.5"/><polyline class="cls-1" points="1670 90 1920 44 2055 -79 1599 -175 1323 -2"/></g></svg>