<svg xmlns="http://www.w3.org/2000/svg" viewBox="0 0 1920 1080"><defs><style>.cls-1{fill:#a4eeff;}</style></defs><title>4</title><g id="Layer_1" data-name="Layer 1"><path class="cls-1" d="M623,778l-1-15V735l-1-13V705l2-19-.24-34-5.84-4.16,1.88.93L565,605l3,10-.37,54.51L568,807v40l4,6h7l3-3,2-6,8-22v-6l-3-9-3-6s-3-3-3-5-3-122-3-122l4-14,5-4,3-.6V665l2,14s1,18,1.55,19.46S593,711,593,711v27l-1,21v23l3,25,3,19-2,21-4,21-3,18.73L592,907l10,10,12,2,9-12V893l-2-11,2-24,3-22V817Z"/><path class="cls-1" d="M746,843v34l2,16,3,18-2,12-8,10h-7l-5-8-3-13,5-14s4-11,4-13,1-13,1-13l2-16v-9l-2-8Z"/></g></svg>