<svg xmlns="http://www.w3.org/2000/svg" xmlns:xlink="http://www.w3.org/1999/xlink" viewBox="0 0 1920 1080"><defs><style>.cls-1,.cls-2{opacity:0.13;}.cls-1{fill:url(#radial-gradient);}.cls-2{fill:url(#radial-gradient-2);}.cls-3,.cls-4{opacity:0.3;}.cls-3{fill:url(#radial-gradient-3);}.cls-4{fill:url(#radial-gradient-4);}.cls-5{opacity:0.21;fill:url(#radial-gradient-5);}.cls-6{opacity:0.2;fill:url(#radial-gradient-6);}.cls-7{opacity:0.24;fill:url(#radial-gradient-7);}</style><radialGradient id="radial-gradient" cx="988.5" cy="619" r="1430.17" gradientUnits="userSpaceOnUse"><stop offset="0.2" stop-color="#f4ddba"/><stop offset="0.5" stop-color="#f4dcb9" stop-opacity="0.99"/><stop offset="0.61" stop-color="#f4d7b5" stop-opacity="0.96"/><stop offset="0.69" stop-color="#f3ceae" stop-opacity="0.92"/><stop offset="0.75" stop-color="#f2c2a4" stop-opacity="0.85"/><stop offset="0.8" stop-color="#f1b297" stop-opacity="0.76"/><stop offset="0.85" stop-color="#f09f88" stop-opacity="0.64"/><stop offset="0.89" stop-color="#ee8775" stop-opacity="0.51"/><stop offset="0.93" stop-color="#ec6c5f" stop-opacity="0.36"/><stop offset="0.97" stop-color="#ea4e47" stop-opacity="0.19"/><stop offset="1" stop-color="#e82d2c" stop-opacity="0"/></radialGradient><radialGradient id="radial-gradient-2" cx="1168.5" cy="654.5" r="289.5" gradientUnits="userSpaceOnUse"><stop offset="0.2" stop-color="#e88623"/><stop offset="0.5" stop-color="#e88523" stop-opacity="0.99"/><stop offset="0.61" stop-color="#e88323" stop-opacity="0.96"/><stop offset="0.69" stop-color="#e87e24" stop-opacity="0.91"/><stop offset="0.75" stop-color="#e87824" stop-opacity="0.84"/><stop offset="0.81" stop-color="#e86f25" stop-opacity="0.74"/><stop offset="0.86" stop-color="#e86526" stop-opacity="0.63"/><stop offset="0.9" stop-color="#e85828" stop-opacity="0.49"/><stop offset="0.94" stop-color="#e84a29" stop-opacity="0.32"/><stop offset="0.97" stop-color="#e83a2b" stop-opacity="0.15"/><stop offset="1" stop-color="#e82d2c" stop-opacity="0"/></radialGradient><radialGradient id="radial-gradient-3" cx="1170" cy="663" r="414" gradientUnits="userSpaceOnUse"><stop offset="0.2" stop-color="#f49a4a"/><stop offset="0.5" stop-color="#f4994a" stop-opacity="0.99"/><stop offset="0.61" stop-color="#f49649" stop-opacity="0.96"/><stop offset="0.69" stop-color="#f39147" stop-opacity="0.92"/><stop offset="0.75" stop-color="#f28945" stop-opacity="0.85"/><stop offset="0.8" stop-color="#f17f43" stop-opacity="0.76"/><stop offset="0.85" stop-color="#f0733f" stop-opacity="0.64"/><stop offset="0.89" stop-color="#ee653b" stop-opacity="0.51"/><stop offset="0.93" stop-color="#ec5437" stop-opacity="0.36"/><stop offset="0.97" stop-color="#ea4232" stop-opacity="0.19"/><stop offset="1" stop-color="#e82d2c" stop-opacity="0"/></radialGradient><radialGradient id="radial-gradient-4" cx="1165.5" cy="655.5" r="511.5" gradientUnits="userSpaceOnUse"><stop offset="0.2" stop-color="#f4da22"/><stop offset="0.5" stop-color="#f4d922" stop-opacity="0.99"/><stop offset="0.61" stop-color="#f4d422" stop-opacity="0.96"/><stop offset="0.69" stop-color="#f3cb23" stop-opacity="0.92"/><stop offset="0.75" stop-color="#f2bf24" stop-opacity="0.85"/><stop offset="0.8" stop-color="#f1b024" stop-opacity="0.76"/><stop offset="0.85" stop-color="#f09d26" stop-opacity="0.64"/><stop offset="0.89" stop-color="#ee8627" stop-opacity="0.51"/><stop offset="0.93" stop-color="#ec6b28" stop-opacity="0.36"/><stop offset="0.97" stop-color="#ea4e2a" stop-opacity="0.19"/><stop offset="1" stop-color="#e82d2c" stop-opacity="0"/></radialGradient><radialGradient id="radial-gradient-5" cx="1172.5" cy="663.5" r="670.5" gradientUnits="userSpaceOnUse"><stop offset="0.2" stop-color="#e86323"/><stop offset="0.5" stop-color="#e86323" stop-opacity="0.99"/><stop offset="0.61" stop-color="#e86123" stop-opacity="0.96"/><stop offset="0.69" stop-color="#e85e24" stop-opacity="0.91"/><stop offset="0.75" stop-color="#e85a24" stop-opacity="0.84"/><stop offset="0.81" stop-color="#e85525" stop-opacity="0.74"/><stop offset="0.86" stop-color="#e84f26" stop-opacity="0.63"/><stop offset="0.9" stop-color="#e84728" stop-opacity="0.49"/><stop offset="0.94" stop-color="#e83f29" stop-opacity="0.32"/><stop offset="0.97" stop-color="#e8352b" stop-opacity="0.15"/><stop offset="1" stop-color="#e82d2c" stop-opacity="0"/></radialGradient><radialGradient id="radial-gradient-6" cx="1076" cy="530" r="1199" gradientUnits="userSpaceOnUse"><stop offset="0.2" stop-color="#f4e358"/><stop offset="0.5" stop-color="#f4e258" stop-opacity="0.99"/><stop offset="0.61" stop-color="#f4dd56" stop-opacity="0.96"/><stop offset="0.69" stop-color="#f3d454" stop-opacity="0.92"/><stop offset="0.75" stop-color="#f2c751" stop-opacity="0.85"/><stop offset="0.8" stop-color="#f1b74d" stop-opacity="0.76"/><stop offset="0.85" stop-color="#f0a248" stop-opacity="0.64"/><stop offset="0.89" stop-color="#ee8a43" stop-opacity="0.51"/><stop offset="0.93" stop-color="#ec6e3c" stop-opacity="0.36"/><stop offset="0.97" stop-color="#ea4f34" stop-opacity="0.19"/><stop offset="1" stop-color="#e82d2c" stop-opacity="0"/></radialGradient><radialGradient id="radial-gradient-7" cx="1176.5" cy="646.5" r="145.5" gradientUnits="userSpaceOnUse"><stop offset="0.2" stop-color="#ea2121"/><stop offset="0.5" stop-color="#ea2121" stop-opacity="0.99"/><stop offset="0.61" stop-color="#ea2121" stop-opacity="0.96"/><stop offset="0.69" stop-color="#ea2222" stop-opacity="0.91"/><stop offset="0.75" stop-color="#ea2323" stop-opacity="0.84"/><stop offset="0.81" stop-color="#e92424" stop-opacity="0.75"/><stop offset="0.85" stop-color="#e92525" stop-opacity="0.63"/><stop offset="0.9" stop-color="#e92727" stop-opacity="0.49"/><stop offset="0.94" stop-color="#e92928" stop-opacity="0.33"/><stop offset="0.97" stop-color="#e82b2a" stop-opacity="0.15"/><stop offset="1" stop-color="#e82d2c" stop-opacity="0"/></radialGradient></defs><title>4</title><g id="Layer_10" data-name="Layer 10"><polygon class="cls-1" points="2453 623.4 2369.84 148.13 2101.89 -291.93 1704.58 -599.98 1104 -776 660.49 -740.79 216.98 -564.77 -50.97 -362.34 -263.49 -98.3 -439.04 306.56 -476 623.4 -439.04 940.25 -291.2 1301.1 -106.41 1547.53 161.54 1767.57 401.78 1899.58 678.97 1978.8 1067.04 2014 1482.83 1934.79 1796.98 1776.37 2037.21 1600.34 2277.45 1274.69 2379.08 1045.86 2453 623.4"/><polygon class="cls-2" points="1458 655.41 1441.56 556.78 1388.59 465.46 1310.05 401.53 1191.33 365 1103.66 372.31 1015.99 408.84 963.02 450.85 921.01 505.64 886.31 589.66 879 655.41 886.31 721.17 915.53 796.05 952.06 847.2 1005.03 892.86 1052.52 920.26 1107.31 936.69 1184.03 944 1266.22 927.56 1328.32 894.68 1375.81 858.15 1423.3 790.57 1443.39 743.09 1458 655.41"/><polygon class="cls-3" points="1584 664.31 1560.49 523.26 1484.74 392.66 1372.43 301.24 1202.65 249 1077.27 259.45 951.9 311.69 876.15 371.76 816.08 450.12 766.45 570.27 756 664.31 766.45 758.34 808.24 865.43 860.48 938.57 936.23 1003.86 1004.14 1043.04 1082.5 1066.55 1192.2 1077 1309.74 1053.49 1398.55 1006.48 1466.46 954.24 1534.37 857.59 1563.1 789.68 1584 664.31"/><polygon class="cls-4" points="1677 657.11 1647.96 482.85 1554.37 321.49 1415.6 208.54 1205.84 144 1050.94 156.91 896.03 221.45 802.45 295.68 728.22 392.49 666.91 540.94 654 657.11 666.91 773.29 718.54 905.6 783.09 995.96 876.67 1076.64 960.58 1125.05 1057.39 1154.09 1192.93 1167 1338.15 1137.96 1447.87 1079.87 1531.78 1015.33 1615.68 895.92 1651.18 812.02 1677 657.11"/><polygon class="cls-5" points="1843 665.62 1804.93 437.18 1682.25 225.67 1500.35 77.61 1225.38 -7 1022.33 9.92 819.27 94.53 696.59 191.82 599.3 318.73 518.92 513.33 502 665.62 518.92 817.9 586.61 991.35 671.21 1109.8 793.89 1215.55 903.88 1279.01 1030.79 1317.08 1208.46 1334 1398.82 1295.93 1542.65 1219.78 1652.64 1135.18 1762.63 978.66 1809.16 868.67 1843 665.62"/><polygon class="cls-6" points="2275 533.78 2206.92 125.29 1987.54 -252.94 1662.26 -517.71 1170.56 -669 807.45 -638.74 444.35 -487.45 224.97 -313.46 50.99 -86.52 -92.74 261.45 -123 533.78 -92.74 806.11 28.29 1116.26 179.59 1328.07 398.96 1517.19 595.64 1630.66 822.58 1698.74 1140.3 1729 1480.71 1660.92 1737.91 1524.75 1934.59 1373.46 2131.27 1093.57 2214.48 896.89 2275 533.78"/><polygon class="cls-7" points="1322 646.96 1313.74 597.39 1287.12 551.49 1247.64 519.36 1187.97 501 1143.91 504.67 1099.85 523.03 1073.23 544.14 1052.11 571.68 1034.67 613.91 1031 646.96 1034.67 680.01 1049.36 717.64 1067.72 743.35 1094.34 766.3 1118.21 780.07 1145.75 788.33 1184.3 792 1225.61 783.74 1256.82 767.22 1280.69 748.86 1304.56 714.89 1314.66 691.02 1322 646.96"/></g></svg>