<svg xmlns="http://www.w3.org/2000/svg" xmlns:xlink="http://www.w3.org/1999/xlink" viewBox="0 0 1920 1080"><defs><style>.cls-1{fill:#1e1e1e;opacity:0.78;}.cls-2{fill:#2b2b2b;}.cls-3{fill:#3f3f3f;}.cls-4{fill:#dbdbd5;}.cls-5{fill:#e8e8e8;}.cls-6{fill:#f7f48b;}.cls-7{fill:#f4cc8c;}.cls-8{fill:url(#linear-gradient);}.cls-9{fill:url(#linear-gradient-2);}.cls-10{fill:url(#linear-gradient-3);}.cls-11{fill:#bcbbbb;}.cls-12{fill:url(#linear-gradient-4);}.cls-13{fill:url(#linear-gradient-5);}.cls-14{opacity:0.21;fill:url(#linear-gradient-6);}.cls-15{opacity:0.17;fill:url(#linear-gradient-7);}</style><linearGradient id="linear-gradient" x1="1159" y1="715" x2="1159" y2="663" gradientUnits="userSpaceOnUse"><stop offset="0" stop-color="#828282"/><stop offset="0.23" stop-color="#ada5a5" stop-opacity="0.66"/><stop offset="0.46" stop-color="#d0c3c3" stop-opacity="0.37"/><stop offset="0.67" stop-color="#ead8d8" stop-opacity="0.17"/><stop offset="0.85" stop-color="#fae4e4" stop-opacity="0.04"/><stop offset="1" stop-color="#ffe9e9" stop-opacity="0"/></linearGradient><linearGradient id="linear-gradient-2" x1="1158.5" y1="716" x2="1158.5" y2="663" xlink:href="#linear-gradient"/><linearGradient id="linear-gradient-3" x1="1207" y1="791" x2="1207" y2="742" xlink:href="#linear-gradient"/><linearGradient id="linear-gradient-4" x1="1210" y1="675" x2="1210" y2="645" xlink:href="#linear-gradient"/><linearGradient id="linear-gradient-5" x1="1210.05" y1="676.26" x2="1210.05" y2="644.76" xlink:href="#linear-gradient"/><linearGradient id="linear-gradient-6" x1="1279.74" y1="791.83" x2="1362" y2="791.83" gradientUnits="userSpaceOnUse"><stop offset="0" stop-color="#3f3f3f"/><stop offset="0.39" stop-color="#3d3d3d"/><stop offset="0.6" stop-color="#353535"/><stop offset="0.76" stop-color="#282828"/><stop offset="0.89" stop-color="#151515"/><stop offset="1"/></linearGradient><linearGradient id="linear-gradient-7" x1="1114.78" y1="791.37" x2="990" y2="791.37" xlink:href="#linear-gradient-6"/></defs><title>5</title><g id="Layer_13" data-name="Layer 13"><polygon class="cls-1" points="1265.16 842.24 1284.08 841.95 1304.39 838.26 1323.5 830.88 1336.64 819.82 1345 807.52 1342.99 794 1311.55 812.44 1270.63 824.03 1265.16 842.24"/><polyline class="cls-1" points="1087.82 845 1069.05 840.89 1045.65 834.25 1033.39 826.5 1020 816.59 1034.51 811 1088 824.29 1087.82 845"/></g><g id="Layer_9" data-name="Layer 9"><polygon class="cls-2" points="1081.7 833.73 1088 849 1274 849 1279.74 830.43 1081.7 833.73"/><polygon class="cls-3" points="1012.57 767.11 1078 755 1176 741 1260.21 746.41 1283.72 752.37 1336.64 765.79 1343.2 772.31 1343.2 772.31 1343 756 1339 741 1332 721 1353 693 1399 693 1427 718 1427 736 1409 751 1402 748 1413 733 1414 715 1404 708 1382 699 1362 700 1348 721 1349 737 1356 752 1362 778 1362 791 1313.22 824.75 1230.07 838.85 1144 841 1074.2 832.85 1068.88 831.1 1003.28 809.58 990 791 1012.57 767.11"/><polygon class="cls-4" points="1055 797 1068 791 1080 791 1097 786 1107 786 1121 772 1127 731 1125 694 1131 659 1131 631 1166 639 1186 641 1209 638 1225 638 1229 663 1229 698 1224 722 1232 751 1245 772 1257 786 1271 791 1282 791 1290 791 1272 797 1252 797 1236 803 1218 803 1200 806 1179 806 1150 806 1132 802 1112 803 1102 806 1079 802 1062 801 1055 797"/><polygon class="cls-5" points="1175.04 639.9 1175 631 1181 631 1181 639.9 1181.59 640.56 1175.04 639.9"/><polygon class="cls-6" points="1169.67 624.33 1169.67 628.33 1171 631 1173.67 633.67 1177.67 635 1181.67 633.67 1184.33 633.67 1185.67 629.67 1187 625.67 1187 620.33 1185.67 616.33 1183 612.33 1181.67 609.67 1180.33 607 1180.33 604.33 1180.33 603 1179 604.33 1176.33 608.33 1175 611 1173.67 613.67 1172.33 616.33 1171 619 1169.67 621.67 1169.67 624.33"/><polygon class="cls-7" points="1173 627.23 1173 629.77 1173.85 631.46 1175.54 633.15 1178.08 634 1180.62 633.15 1182.31 633.15 1183.15 630.62 1184 628.08 1184 624.69 1183.15 622.15 1181.46 619.62 1180.62 617.92 1179.77 616.23 1179.77 614.54 1179.77 613.69 1178.92 614.54 1177.23 617.08 1176.38 618.77 1175.54 620.46 1174.69 622.15 1173.85 623.85 1173 625.54 1173 627.23"/><polyline class="cls-8" points="1139 663 1139 676 1146 686 1156 690 1164 699 1167 707 1173 715 1179 715"/><polygon class="cls-9" points="1172.5 716 1179 716 1179 714 1173.5 714 1167.89 706.51 1164.87 698.48 1156.59 689.16 1146.65 685.18 1140 675.68 1140 663 1138 663 1138 676.32 1145.35 686.82 1155.41 690.84 1163.13 699.52 1166.2 707.6 1172.5 716"/><polyline class="cls-10" points="1222 742 1227 759 1232 769 1241 781 1241 791 1231 791 1225 787 1215 788 1207 785 1197 785 1187 789 1178 789 1173 781 1179 773 1182 767 1184 758"/><polygon class="cls-11" points="1230.7 792 1242 792 1242 780.67 1232.85 768.47 1227.93 758.63 1222.96 741.72 1221.04 742.28 1226.11 759.45 1231.2 769.6 1240 781.33 1240 790 1231.3 790 1225.26 785.97 1215.13 786.98 1207.18 784 1196.81 784 1186.81 788 1178.55 788 1174.21 781.05 1179.89 773.45 1182.98 767.22 1184.98 758.22 1183.02 757.78 1181.05 766.66 1178.15 772.47 1171.79 780.95 1177.45 790 1187.19 790 1197.19 786 1206.82 786 1214.87 789.02 1224.74 788.03 1230.7 792"/><polyline class="cls-12" points="1222 645 1224 653 1220 657 1213 660 1211 666 1211 670 1207 675 1201 672 1198 666 1198 660 1196 656 1196 647"/><polygon class="cls-13" points="1207.28 676.26 1212 670.35 1212 666.16 1213.81 660.74 1220.57 657.84 1225.11 653.31 1222.97 644.76 1221.03 645.24 1222.89 652.69 1219.43 656.16 1212.19 659.26 1210 665.84 1210 669.65 1206.72 673.74 1201.74 671.25 1199 665.76 1199 659.76 1197 655.76 1197 647 1195 647 1195 656.24 1197 660.24 1197 666.24 1200.26 672.75 1207.28 676.26"/><polygon class="cls-14" points="1279.74 830.43 1311.17 815.33 1326 787 1317 773 1287.16 753.24 1337 766 1362 791 1313 825 1279.74 830.43"/><polygon class="cls-15" points="1031 808 1074 833 1003 811 990 791 1013 767 1078 755 1114.79 749.75 1083.93 762.25 1045 777 1025 787 1023 792 1023.25 799 1031 808"/></g></svg>