<svg xmlns="http://www.w3.org/2000/svg" xmlns:xlink="http://www.w3.org/1999/xlink" viewBox="0 0 1920 1080"><defs><style>.cls-1{fill:url(#linear-gradient);}.cls-2{fill:url(#linear-gradient-2);}.cls-3{fill:url(#linear-gradient-3);}.cls-4{fill:url(#linear-gradient-4);}.cls-5{fill:#3f2a00;}.cls-6{fill:url(#linear-gradient-5);}.cls-7{fill:url(#linear-gradient-6);}.cls-8{fill:url(#linear-gradient-7);}.cls-9{fill:url(#linear-gradient-8);}.cls-10{fill:url(#linear-gradient-9);}.cls-11{fill:url(#linear-gradient-10);}.cls-12{fill:#1e1e1e;opacity:0.61;}</style><linearGradient id="linear-gradient" x1="692.21" y1="-7.82" x2="872.59" y2="-7.82" gradientTransform="translate(934.97 211.28) rotate(9.1)" gradientUnits="userSpaceOnUse"><stop offset="0" stop-color="#bf9a00"/><stop offset="0.05" stop-color="#cfa800"/><stop offset="0.15" stop-color="#e4bc00"/><stop offset="0.25" stop-color="#f3ca00"/><stop offset="0.37" stop-color="#fcd200"/><stop offset="0.54" stop-color="#ffd500"/><stop offset="0.66" stop-color="#fbd200"/><stop offset="0.77" stop-color="#f0c700"/><stop offset="0.88" stop-color="#ddb501"/><stop offset="0.99" stop-color="#c29d01"/><stop offset="1" stop-color="#bf9a01"/></linearGradient><linearGradient id="linear-gradient-2" x1="722.81" y1="-132.84" x2="825.08" y2="-132.84" gradientTransform="translate(934.97 211.28) rotate(9.1)" gradientUnits="userSpaceOnUse"><stop offset="0" stop-color="#6a2f00"/><stop offset="0.34" stop-color="#672f00"/><stop offset="0.61" stop-color="#5d3000"/><stop offset="0.86" stop-color="#4c3000"/><stop offset="1" stop-color="#3f3100"/></linearGradient><linearGradient id="linear-gradient-3" x1="744.55" y1="-268.24" x2="866.15" y2="-268.24" xlink:href="#linear-gradient"/><linearGradient id="linear-gradient-4" x1="1493.53" y1="629.1" x2="1743.07" y2="629.1" gradientUnits="userSpaceOnUse"><stop offset="0" stop-color="#b8b8b8"/><stop offset="0.35" stop-color="#b5b5b5"/><stop offset="0.6" stop-color="#acacac"/><stop offset="0.83" stop-color="#9c9c9c"/><stop offset="1" stop-color="#8a8a8a"/></linearGradient><linearGradient id="linear-gradient-5" x1="1574.73" y1="930.93" x2="1574.73" y2="898.19" gradientUnits="userSpaceOnUse"><stop offset="0" stop-color="#828281"/><stop offset="0.14" stop-color="#848483" stop-opacity="0.73"/><stop offset="0.3" stop-color="#868686" stop-opacity="0.47"/><stop offset="0.47" stop-color="#888" stop-opacity="0.26"/><stop offset="0.64" stop-color="#898989" stop-opacity="0.12"/><stop offset="0.81" stop-color="#8a8a8a" stop-opacity="0.03"/><stop offset="1" stop-color="#8a8a8a" stop-opacity="0"/></linearGradient><linearGradient id="linear-gradient-6" x1="694.44" y1="-15.47" x2="870.04" y2="-0.41" gradientTransform="translate(934.97 211.28) rotate(9.1)" gradientUnits="userSpaceOnUse"><stop offset="0" stop-color="#682510"/><stop offset="0.17" stop-color="#713c28" stop-opacity="0.89"/><stop offset="0.48" stop-color="#8a7968" stop-opacity="0.61"/><stop offset="0.87" stop-color="#b1dccf" stop-opacity="0.16"/><stop offset="1" stop-color="#bffff3" stop-opacity="0"/></linearGradient><linearGradient id="linear-gradient-7" x1="721.26" y1="-135.97" x2="830.95" y2="-126.56" xlink:href="#linear-gradient-6"/><linearGradient id="linear-gradient-8" x1="747.09" y1="-271.49" x2="866.99" y2="-261.21" xlink:href="#linear-gradient-6"/><linearGradient id="linear-gradient-9" x1="1561.18" y1="621.84" x2="1714.02" y2="659.95" gradientTransform="matrix(1, 0, 0, 1, 0, 0)" xlink:href="#linear-gradient-6"/><linearGradient id="linear-gradient-10" x1="1457.14" y1="900.74" x2="1666.8" y2="953.01" gradientUnits="userSpaceOnUse"><stop offset="0" stop-color="#371600"/><stop offset="0.28" stop-color="#524430" stop-opacity="0.8"/><stop offset="0.78" stop-color="#9ac0b1" stop-opacity="0.27"/><stop offset="1" stop-color="#bffff3" stop-opacity="0"/></linearGradient></defs><title>7</title><g id="Layer_4" data-name="Layer 4"><polygon class="cls-1" points="1790.99 297.6 1784.87 310.37 1773.6 324.75 1756.3 330.88 1741.7 325.3 1735.81 316.27 1667.55 304.52 1651.98 310.12 1630.33 317.98 1616.8 331.18 1613.89 349.32 1622.55 356.37 1626.32 348.08 1630.73 335.84 1646.02 326.96 1649.99 327.6 1742.77 344.08 1765.7 348.56 1775.62 347.73 1787.89 342.41 1796.02 332.38 1801.35 319.49 1803.12 308.44 1797.35 298.62 1790.99 297.6"/><polygon class="cls-2" points="1708.41 90.21 1691.5 129.57 1673.04 173.53 1666.6 213.76 1662.41 255.16 1667.55 304.52 1735.93 315.48 1758.86 284.36 1750.92 267.72 1755.29 250.62 1766.19 238.61 1760.8 226.43 1755.63 207.8 1764.01 196.2 1773.9 190.5 1770.31 172.13 1767.28 155.46 1778.8 139.51 1778.28 122.43 1777.08 104.44 1708.41 90.21"/><polygon class="cls-3" points="1708.41 90.21 1718.02 65.86 1728.71 44.92 1748.26 39.96 1760.19 41.87 1800.94 57.3 1819.59 73.23 1831 93.67 1829.99 99.97 1822.71 99.62 1811.5 88.11 1797.19 85.82 1785.84 90.48 1777.08 104.44 1708.41 90.21"/><polygon class="cls-4" points="1541.73 930.93 1561.97 922.83 1639.97 922.83 1654.7 897.84 1678.73 791.78 1699.42 677 1715.71 586.59 1726.12 501.61 1733.74 427.5 1738.15 357.68 1743.07 343.95 1650.35 327.27 1643.96 408.1 1630.24 493.29 1607.97 607.79 1576.44 732.79 1538.41 825.78 1493.53 893.19 1504.4 930.93 1541.73 930.93"/><polygon class="cls-5" points="1641.08 920.94 1640.03 922.83 1561.97 922.83 1541.73 930.93 1504.57 930.93 1503.62 928.24 1449.62 930.93 1543.75 937 1561.97 926.88 1653.07 925.87 1674.33 922.83 1641.08 920.94"/><polygon class="cls-6" points="1639.91 922.83 1648.6 908.2 1651.95 902.51 1654.5 898.19 1494.97 898.19 1502.84 925.53 1504.28 930.93 1541.73 930.93 1561.97 922.83 1605.37 922.83 1639.91 922.83"/><polygon class="cls-7" points="1790.99 297.6 1784.87 310.37 1773.6 324.75 1756.3 330.88 1741.7 325.3 1735.81 316.27 1667.55 304.52 1651.98 310.12 1630.33 317.98 1616.8 331.18 1613.89 349.32 1622.55 356.37 1626.32 348.08 1630.73 335.84 1646.02 326.96 1649.99 327.6 1742.77 344.08 1765.7 348.56 1775.62 347.73 1787.89 342.41 1796.02 332.38 1801.35 319.49 1803.12 308.44 1797.35 298.62 1790.99 297.6"/><polygon class="cls-8" points="1708.41 90.21 1691.5 129.57 1673.04 173.53 1666.6 213.76 1662.41 255.16 1667.55 304.52 1735.93 315.48 1758.86 284.36 1750.92 267.72 1755.29 250.62 1766.19 238.61 1760.8 226.43 1755.63 207.8 1764.01 196.2 1773.9 190.5 1770.31 172.13 1767.28 155.46 1778.8 139.51 1778.28 122.43 1777.08 104.44 1708.41 90.21"/><polygon class="cls-9" points="1708.41 90.21 1718.02 65.86 1728.71 44.92 1748.26 39.96 1760.19 41.87 1800.94 57.3 1819.59 73.23 1831 93.67 1829.99 99.97 1822.71 99.62 1811.5 88.11 1797.19 85.82 1785.84 90.48 1777.08 104.44 1708.41 90.21"/><polygon class="cls-10" points="1541.73 930.93 1561.97 922.83 1639.97 922.83 1654.7 897.84 1678.73 791.78 1699.42 677 1715.71 586.59 1726.12 501.61 1733.74 427.5 1738.15 357.68 1743.07 343.95 1650.35 327.27 1643.96 408.1 1630.24 493.29 1607.97 607.79 1576.44 732.79 1538.41 825.78 1493.53 893.19 1504.4 930.93 1541.73 930.93"/><polygon class="cls-11" points="1641.08 920.94 1640.03 922.83 1561.97 922.83 1541.73 930.93 1504.57 930.93 1503.62 928.24 1449.62 930.93 1543.75 937 1561.97 926.88 1653.07 925.87 1674.33 922.83 1641.08 920.94"/></g><g id="Layer_11" data-name="Layer 11"><polygon class="cls-12" points="1641.32 926 1797 976 1477 976 1501.4 934.27 1544 937 1562 926 1641.32 926"/></g></svg>