<svg xmlns="http://www.w3.org/2000/svg" viewBox="0 0 1920 1080"><defs><style>.cls-1{fill:#b2b0af;}</style></defs><title>1</title><g id="Layer_11" data-name="Layer 11"><path class="cls-1" d="M1920,1083H0V856.75c0-4.08.87-3.78,2.57,0,1.7,5.49,4.24,2.84,7.56,0,3.33,3.63,7.46-2.85,12.34,0,4.88.77,10.52.49,16.88,0s13.45,8.24,21.21,0c7.77-5.86,16.22.45,25.32,0,9.1-4,18.85-3.45,29.2,0,10.36-2.38,21.32-8.33,32.86,0,11.54.83,23.66-4.2,36.31,0,12.65-3.34,25.83,14.32,39.52,0,13.68,4.65,27.86,3.73,42.51,0,14.65,3.4,29.76-3.55,45.29,0,15.53-6.29,31.49.08,47.84,0,16.35,5.12,33.09-2.88,50.17,0,17.09-.13,34.53,4.1,52.28,0,17.76,0,35.82,2.87,54.17,0s37,2.52,55.83,0c18.86-2.26,38-1.12,57.27,0,19.31,6.93,38.82,1.36,58.5,0,19.67-.3,39.52,1,59.49,0,20-4.29,40.07,1.46,60.27,0,20.19,1.47,40.48-1.22,60.82,0,20.34,2.82,40.74.21,61.16,0,20.41-1.68,40.85-2.23,61.26,0s40.82-.45,61.16,0c20.34,2.21,40.63,4.31,60.82,0,20.2-2.39,40.3-4.29,60.27,0,20-2.09,39.82,2.9,59.49,0a240.54,240.54,0,0,1,58.5,0c19.3,2.89,38.41.94,57.27,0,18.86.22,37.49,1.07,55.83,0,18.35,3.14,36.41-.2,54.17,0,17.75-1.49,35.19.86,52.28,0,17.08,3.8,33.82-.09,50.17,0,16.35-1.65,32.31,6.39,47.84,0,15.53-2.89,30.64-9.07,45.29,0,14.65,1.4,28.83-1.69,42.51,0,13.69,0,26.87-4.16,39.52,0,12.65-3.52,24.77,1.18,36.31,0,11.54-2,22.5-2.27,32.86,0,10.35.12,20.1-1.64,29.2,0,9.1-2.84,17.55-.81,25.32,0,7.76,4.07,14.85,1,21.21,0,6.36,12.48,12-2.89,16.88,0,4.88,3.1,9,6.7,12.34,0,3.32.23,5.86,5.48,7.56,0,1.7-1.55,2.57,2.8,2.57,0V1083Z"/></g></svg>