<svg xmlns="http://www.w3.org/2000/svg" xmlns:xlink="http://www.w3.org/1999/xlink" viewBox="0 0 1920 1080"><defs><style>.cls-1{fill:url(#linear-gradient);}.cls-2{font-size:72px;fill:#e5e4e3;font-family:CalibanStd, Caliban Std;}.cls-3{letter-spacing:-0.01em;}.cls-4{letter-spacing:-0.01em;}.cls-5{letter-spacing:0em;}.cls-6{letter-spacing:-0.02em;}.cls-7{letter-spacing:0em;}.cls-8{letter-spacing:-0.01em;}.cls-9{letter-spacing:0em;}.cls-10{letter-spacing:-0.01em;}.cls-11{letter-spacing:0em;}.cls-12{letter-spacing:-0.01em;}.cls-13{letter-spacing:0em;}.cls-14{letter-spacing:0.01em;}.cls-15{letter-spacing:0.01em;}</style><linearGradient id="linear-gradient" x1="1961.56" y1="558" x2="-44" y2="558" gradientUnits="userSpaceOnUse"><stop offset="0" stop-color="#515151"/><stop offset="0.23" stop-color="#4d4d4d"/><stop offset="0.46" stop-color="#424242"/><stop offset="0.67" stop-color="#2f2f2f"/><stop offset="0.88" stop-color="#141414"/><stop offset="1" stop-color="#020202"/></linearGradient></defs><title>3</title><g id="Layer_9" data-name="Layer 9"><path class="cls-1" d="M-28.17,1134.7c0,1-3.72,3.08,1.79,3.08a3,3,0,0,1,1.84-3.16c0,2.11-1.84,4.22,1.83,5.27,9.19,1,7.35-10.53,12.87-7.37,11,7.37,29.4,10.53,45.93,13.69,1.84,0,5.52-2.11,7.35-2.11C71,1157.79,71,1131.46,85.71,1126.2c9.18-3.16,12.86,6.32,20.21,8.42s12.86-2.1,19.2-4c6.36-1.63,12.91-1.86,19.62,2.93,13.42,8.25,27.49-5.3,42.16,0,14.68,15,30-9,45.81,0,15.84,4.85,32.24-4.67,49.15,0,16.91-13,34.34-22.14,52.23,0,17.89-17.57,36.25,5.42,55,0,18.78-5.83,38,8.17,57.54,0,19.57,2.1,39.51-5.72,59.78,0,20.27,5.42,40.86-10,61.74,0,20.87-6.39,42,6.79,63.41,0,21.39-2,43-5.82,64.81,0,21.81-10.64,43.8,6,65.93,0,22.14,11.64,44.41,19,66.77,0,22.37-12,44.82-16.59,67.33,0,22.5-4.31,45.06-8.71,67.61,0,22.55,2.6,45.1,21.3,67.6,0a465.56,465.56,0,0,0,67.33,0c22.37,10.07,44.64-3.91,66.77,0,22.13-.63,44.12,2.59,65.93,0,21.8-4.91,43.42,4.68,64.81,0,21.39-10,42.54-4.94,63.41,0,20.88,12.2,41.47.23,61.74,0,20.27-7.63,40.21,6.22,59.78,0,19.57-3.32,38.77-1.71,57.54,0,18.78,6.63,37.14-22.43,55,0,17.89,4.86,35.32-6.83,52.23,0,16.91-3.22,33.32,4.3,49.16,0,15.84,5.52,31.12,1,45.8,0,14.68.64,28.75-7.1,42.17,0,13.41-6.55,26.18,2.53,38.25,0,12.07,13.66,23.44-.06,34.06,0,10.62-.47,20.5,2.38,29.59,0,9.08,1,17.38-2.94,24.83,0,7.46,7.25,14.07.4,19.8,0,5.73,6.89,10.58-7.82,14.49,0,4.58,1,8.26-1,11.93,0V1122c5.51-43.17-18.37-85.29-11-129.51,1.83-9,4.59-17.64,6.88-26.32.79-2.95,1.52-5.89,2.17-8.91,7.48-153.24-5.38-308,.13-461.74,0-18.95-7.35-39-7.35-57.91,1.38-21.59,2.76-43.11,4-64.59q.32-5.37.62-10.73c9.3-100.72,13.15-201.92,6.41-302.33-.26-4-.54-8.06-.89-12.13-2.81-4-1-9.28-1-13.49v1.06c0-2.11,0-5.27-1.84-7.37,1.84,2.1,1.84,4.21,1.84,6.31-3.67-14.74-5.51-28.43-3.67-43.17,0,1.06-1.84,3.16-1.84,4.22V-13c0,2.11,0,3.16,1.84,5.27-1.84-1.06-1.84-3.16-3.68-4.21-1.84,2.1-3.67,3.15-5.51,5.26-1.84-1-1.84-3.16-3.68-4.21-3.67,1-5.51,3.16-5.51,5.26,0-2.1-1.84-5.26-3.67-4.21A38.93,38.93,0,0,0,1917.36-7C1903-2.52,1901.17,7,1895.65,15.38,1890.14,7,1903-13,1879.12-12c-3.68,0,0,6.31-1.84,10.52-9.19-7.37-3.68-15.79-7.51-23.09a19.65,19.65,0,0,0-3.52-7.44,86.41,86.41,0,0,0-12,4.46c-23,11.33-50.52,34.5-84.73,24-7.23.21-14.62,1.09-22.18,1.48a84.85,84.85,0,0,1-23.16-1.48c-15.77.35-32.18-11.81-49.17,0-17,2.34-34.56,8-52.67,0-18.11-1.14-36.76,16.68-55.88,0-19.12-5.76-38.73-5.51-58.76,0-15,2.24-30.29,4.13-45.77,2.68a100.37,100.37,0,0,1-15.56-2.68C1440,3.8,1425.25,8,1412.39,5.9c-33.08-5.26-68-25.27-99.23-9.47-5.51-5.27-20.21-5.27-29.37-3.62-5.44.44-11,1.17-16.66,1.87s-11.26,1.4-16.91,1.75c-22.61,4-45.44-7.69-68.43,0-7.66,2.37-15.35-9.8-23,0-7.7,10.6-15.42-10.3-23.14,0-7.73,7.24-15.48,19.15-23.23,0-5,14.45-10.05-4.54-15.09,5.61-5,27.84-10.07,2.54-15.11-5.61-5,3.11-10.09-4.2-15.14.11-5-9.77-10.1-4.67-15.16-.11-5.05,17.24-10.11,8.74-15.17,1.42-5.07,5-10.13-1.42-15.2-1.49s-10.13,5.19-15.2-1.9c-5.07,2.67-10.14-8.13-15.22,2C986-4.39,981,6.48,975.88-2.24c-5.08-2-10.15-4-15.23-.09-5.07,6.68-10.14.17-15.22,0-5.07.15-10.14-5-15.21-1.19C925.14-5,920.07-6.39,915-7.56A100.52,100.52,0,0,0,899.81-10c-10.13-.77-20.25.62-30.36,6.48a168.91,168.91,0,0,1-60.45,0c-20.07,3.72-40.06,1.16-59.93,0-19.87-4.31-39.61,3.89-59.2,0-19.59,3.16-39-4.09-58.28,0-19.25,5.15-38.3,7.36-57.14,0C555.61-12,537,8.78,518.64-3.57c-18.36,1.87-36.46,11.33-54.27,0-8.9,9.35-17.73,27.74-26.49,1.09-8.75-15.37-17.43,13.48-26-1.09-8.6-10.34-17.11-10.43-25.54-11.09-8.43-10.62-16.78-1.62-25,11.09C353,7,344.85,5.08,336.78,2.48c-8.07,1.81-16,3.55-23.93-6-7.88,2.2-15.66,1.3-23.34-1.33-7.68,6.82-15.26-8.33-22.73,1.33-7.47,1.48-14.84.42-22.09-.48s-14.4-1.64-21.42.48c-14.06,6.84-27.65.52-40.75,0-13.1-13-25.71-4.67-37.78,0-6.71-18-13.26,22-19.64,0-6.37-5.95-12.58-15.85-18.62,0-6,7.29-11.89-11.68-17.57-3.36-2.84,6.52-5.63,5.28-8.38,3.45-.34-2.2-2.17-3.25-5.85-2.2,0,0-1.84,1.06-1.84,2.11,0-2.11-1.83-4.21-3.67-5.27C56.31-9.89,47.12.64,39.77-2.52s-16.54-5.26-23.89-1C8.53,1.69,3,7,1.18,14.33c0-4.21,0-11.58-9.19-10.53C-20.87,3.8-39.24,7-35.57,16.43V3.8c0,15.79,0,30.53,1.84,46.33V45.92c0,11.58,5.51,22.11,5.51,33.69V75.4c-1.84,12.63,5.51,25.27,5.52,38.05,0,3.54-.12,7.22-.31,10.91-.54,10-1.72,19.9-3.11,29.85-.46,3.37-.95,6.74-1.4,10.2,3,62.61-11.72,123.67-3.33,185.47q.42,5.7.85,11.4c1.27,17.1,2.54,34.2,3.45,51.29.18,3.64.34,7.22.48,11.06,1.53,35,16.23,68.72,3.36,104.52-12.86,37.9-7.35,71.6,6.29,108.16a102.62,102.62,0,0,1,.83,10.31c.1,3.13.07,6.27-.07,9.4s-.41,6.26-.78,9.39C-25.28,729.65-58.2,794.19-37,858q2,6,4.62,12.05c26.22,49.76,6,101.35,6,151.89v-1.05c-1.84,20-1.84,40-1.84,59.85v46.49c0,2.11,0,4.21,0,5.91C-28.17,1142.39-28.17,1135.77-28.17,1134.7Z"/><text class="cls-2" transform="translate(246.68 271.34)"><tspan class="cls-3">T</tspan><tspan x="25.85" y="0">he n</tspan><tspan class="cls-4" x="114.33" y="0">a</tspan><tspan x="139.46" y="0">mes Rog</tspan><tspan class="cls-5" x="309.52" y="0">e</tspan><tspan x="329.9" y="0">r! </tspan><tspan class="cls-6" x="-187.41" y="172.8">W</tspan><tspan class="cls-7" x="-141.19" y="172.8">e w</tspan><tspan class="cls-5" x="-69.91" y="172.8">e</tspan><tspan x="-49.54" y="172.8">re de</tspan><tspan class="cls-8" x="51.98" y="172.8">s</tspan><tspan x="72.5" y="172.8">t</tspan><tspan class="cls-4" x="90.36" y="172.8">i</tspan><tspan class="cls-9" x="103.68" y="172.8">n</tspan><tspan x="132.41" y="172.8">ed to meet, </tspan><tspan class="cls-5" x="365.54" y="172.8">R</tspan><tspan x="396.78" y="172.8">ay</tspan><tspan class="cls-4" x="443.22" y="172.8">l</tspan><tspan x="455.03" y="172.8">ie</tspan><tspan class="cls-10" x="488.94" y="172.8">g</tspan><tspan class="cls-11" x="511.98" y="172.8">h! </tspan><tspan x="-144.72" y="345.6">W</tspan><tspan class="cls-5" x="-97.05" y="345.6">h</tspan><tspan class="cls-12" x="-69.55" y="345.6">a</tspan><tspan x="-44.78" y="345.6">t do ya say, </tspan><tspan class="cls-6" x="195.04" y="345.6">W</tspan><tspan class="cls-7" x="241.27" y="345.6">e set s</tspan><tspan class="cls-4" x="365.54" y="345.6">ai</tspan><tspan x="403.98" y="345.6">l and </tspan><tspan class="cls-9" x="-135.54" y="432">tu</tspan><tspan x="-89.17" y="432">rn t</tspan><tspan class="cls-13" x="-8.17" y="432">h</tspan><tspan x="18.61" y="432">is wo</tspan><tspan class="cls-14" x="125.67" y="432">r</tspan><tspan class="cls-9" x="147.92" y="432">l</tspan><tspan x="159.94" y="432">d </tspan><tspan class="cls-4" x="199.62" y="432">u</tspan><tspan class="cls-8" x="228.27" y="432">ps</tspan><tspan x="271.76" y="432">ide d</tspan><tspan class="cls-15" x="372.77" y="432">o</tspan><tspan x="394.3" y="432">wn?!</tspan></text></g></svg>