<svg xmlns="http://www.w3.org/2000/svg" viewBox="0 0 1920 1080"><defs><style>.cls-1{fill:#e2e2e2;stroke:#1e1d1c;stroke-miterlimit:10;stroke-width:13px;}.cls-2{font-size:60px;}.cls-2,.cls-8{font-family:CalibanStd, Caliban Std;}.cls-3{letter-spacing:0em;}.cls-4{letter-spacing:0em;}.cls-5{letter-spacing:-0.01em;}.cls-6{letter-spacing:-0.01em;}.cls-7{letter-spacing:-0.01em;}.cls-8{font-size:52px;}.cls-9{letter-spacing:-0.03em;}.cls-10{letter-spacing:0em;}.cls-11{letter-spacing:0.01em;}.cls-12{letter-spacing:-0.01em;}.cls-13{letter-spacing:-0.01em;}.cls-14{letter-spacing:0.01em;}.cls-15{letter-spacing:-0.01em;}.cls-16{letter-spacing:0.02em;}.cls-17{letter-spacing:-0.01em;}.cls-18{letter-spacing:0em;}.cls-19{letter-spacing:-0.01em;}.cls-20{letter-spacing:0em;}</style></defs><title>5</title><g id="Layer_2" data-name="Layer 2"><path class="cls-1" d="M832.45,106c-139.09,0-251.84,64.69-251.84,144.5a85.33,85.33,0,0,0,1.55,16.15,91.65,91.65,0,0,0,6.32,19.83q2.1,4.69,4.72,9.25c-33.17,37.78-93.54,45.16-93.54,45.16,30.66,12.28,86.55.68,123.91-9.65C668.82,369.7,745.49,395,832.45,395c139.09,0,251.85-64.69,251.85-144.5S971.54,106,832.45,106Z"/><text class="cls-2" transform="translate(633.93 238.77)">I’ll let you h<tspan class="cls-3" x="195.9" y="0">o</tspan><tspan class="cls-4" x="213.65" y="0">l</tspan><tspan x="223.67" y="0">d o</tspan><tspan class="cls-5" x="274.19" y="0">n</tspan><tspan x="297.83" y="0">to t</tspan><tspan class="cls-4" x="355.25" y="0">h</tspan><tspan x="377.57" y="0">is </tspan><tspan class="cls-3" x="64.05" y="72">h</tspan><tspan class="cls-6" x="86.97" y="72">a</tspan><tspan x="107.61" y="72">t for a </tspan><tspan class="cls-4" x="222.92" y="72">wh</tspan><tspan class="cls-7" x="277.46" y="72">i</tspan><tspan x="288.56" y="72">le...</tspan></text><path class="cls-1" d="M960.45,723c-139.09,0-251.84-64.69-251.84-144.5a85.33,85.33,0,0,1,1.55-16.15,91.65,91.65,0,0,1,6.32-19.83q2.1-4.69,4.72-9.25c-33.17-37.78-93.54-45.16-93.54-45.16,30.66-12.28,86.55-.68,123.91,9.65C796.82,459.3,873.49,434,960.45,434c139.09,0,251.85,64.69,251.85,144.5S1099.54,723,960.45,723Z"/><text class="cls-8" transform="translate(772.32 541.78)">It<tspan class="cls-9" x="22.83" y="0">’</tspan><tspan x="29.59" y="0">s </tspan><tspan class="cls-10" x="53.56" y="0">ve</tspan><tspan class="cls-11" x="84.24" y="0">r</tspan><tspan x="100.67" y="0">y </tspan><tspan class="cls-12" x="124.48" y="0">i</tspan><tspan class="cls-13" x="134.1" y="0">m</tspan><tspan x="163.74" y="0">po</tspan><tspan class="cls-14" x="195.77" y="0">r</tspan><tspan x="212.05" y="0">ta</tspan><tspan class="cls-15" x="243.51" y="0">n</tspan><tspan x="264" y="0">t to m</tspan><tspan class="cls-16" x="352.55" y="0">e</tspan><tspan x="368.04" y="0">, </tspan><tspan x="-14.56" y="62.4">so I wa</tspan><tspan class="cls-15" x="90.06" y="62.4">n</tspan><tspan x="110.55" y="62.4">t you to ke</tspan><tspan class="cls-17" x="260.98" y="62.4">e</tspan><tspan x="274.91" y="62.4">p </tspan><tspan class="cls-15" x="300.65" y="62.4">i</tspan><tspan x="310.17" y="62.4">t s</tspan><tspan class="cls-12" x="347.04" y="62.4">a</tspan><tspan class="cls-13" x="365.18" y="62.4">f</tspan><tspan x="375.95" y="62.4">e </tspan><tspan class="cls-18" x="85.35" y="124.8">wh</tspan><tspan class="cls-19" x="132.62" y="124.8">i</tspan><tspan x="142.24" y="124.8">le </tspan><tspan class="cls-12" x="174.48" y="124.8">i</tspan><tspan x="184.1" y="124.8">m </tspan><tspan class="cls-10" x="222.89" y="124.8">g</tspan><tspan x="240.16" y="124.8">o</tspan><tspan class="cls-20" x="255.29" y="124.8">n</tspan><tspan x="276.03" y="124.8">e</tspan></text></g></svg>